M48
; DRILL file {KiCad 9.0.0} date 2025-04-19T21:29:46+0800
; FORMAT={-:-/ absolute / metric / decimal}
; #@! TF.CreationDate,2025-04-19T21:29:46+08:00
; #@! TF.GenerationSoftware,Kicad,Pcbnew,9.0.0
; #@! TF.FileFunction,Plated,1,4,PTH
FMAT,2
METRIC
; #@! TA.AperFunction,Plated,PTH,ViaDrill
T1C0.300
%
G90
G05
T1
X131.191Y-96.52
X131.191Y-97.155
X131.191Y-97.79
X131.216Y-89.535
X131.216Y-90.17
X131.216Y-90.78
X131.826Y-96.52
X131.826Y-97.155
X131.826Y-97.79
X131.851Y-89.535
X131.851Y-90.17
X131.851Y-90.78
X132.207Y-81.915
X132.207Y-82.923
X132.461Y-96.52
X132.461Y-97.155
X132.461Y-97.79
X132.486Y-89.535
X132.486Y-90.17
X132.486Y-90.78
X133.477Y-80.112
X133.985Y-94.793
X135.53Y-80.112
X135.636Y-97.79
X135.636Y-98.425
X135.636Y-99.06
X136.271Y-97.79
X136.271Y-98.425
X136.271Y-99.06
X136.906Y-97.79
X136.906Y-98.425
X136.906Y-99.06
X137.414Y-103.632
X137.643Y-80.112
X138.227Y-77.902
X138.227Y-78.537
X138.684Y-102.108
X138.862Y-77.902
X138.862Y-78.537
X139.26Y-101.346
X139.79Y-82.079
X139.79Y-82.779
X140.081Y-100.203
X140.582Y-99.246
X140.749Y-84.939
X140.817Y-85.751
X141.224Y-96.757
X141.732Y-76.708
X141.986Y-83.541
X141.986Y-84.176
X141.986Y-90.424
X142.367Y-94.361
X142.621Y-83.541
X142.621Y-84.176
X143.256Y-83.541
X143.256Y-84.176
X143.256Y-90.424
X143.485Y-76.124
X143.485Y-76.759
X143.51Y-99.187
X143.789Y-93.98
X143.789Y-94.615
X144.12Y-76.124
X144.12Y-76.759
X144.208Y-86.804
X144.424Y-93.98
X144.424Y-94.615
X144.526Y-90.424
X144.628Y-82.601
X144.628Y-83.261
X145.172Y-95.746
X145.542Y-77.724
X145.542Y-78.359
X145.542Y-78.994
X145.898Y-82.499
X145.898Y-83.134
X145.898Y-83.769
X146.152Y-110.109
X146.533Y-82.499
X146.533Y-83.134
X146.533Y-83.769
X146.609Y-91.504
X146.899Y-100.279
X147.168Y-82.499
X147.168Y-83.134
X147.168Y-83.769
X147.828Y-102.129
X148.209Y-95.168
X148.539Y-82.702
X148.539Y-83.312
X148.59Y-77.851
X148.59Y-78.486
X148.59Y-79.121
X148.717Y-104.648
X148.751Y-103.769
X148.812Y-99.06
X148.895Y-102.108
X149.225Y-84.074
X149.479Y-95.168
X149.619Y-81.394
X149.695Y-107.696
X150.464Y-108.071
X150.749Y-95.168
X151.13Y-77.851
X151.13Y-78.486
X151.232Y-104.826
X151.232Y-105.461
X151.257Y-86.741
X151.384Y-107.271
X151.638Y-82.601
X151.638Y-83.21
X151.79Y-77.902
X151.79Y-78.537
X151.867Y-104.826
X151.867Y-105.461
X151.964Y-107.95
X152.06Y-112.608
X152.464Y-98.309
X152.527Y-95.123
X153.01Y-82.448
X153.01Y-83.083
X153.01Y-83.718
X153.348Y-103.279
X153.645Y-82.448
X153.645Y-83.083
X153.645Y-83.718
X153.797Y-91.796
X154.28Y-82.448
X154.28Y-83.083
X154.28Y-83.718
X154.305Y-81.28
X154.403Y-96.998
X154.516Y-105.279
X155.067Y-109.191
X155.067Y-111.125
X155.575Y-77.851
X155.575Y-78.486
X155.575Y-79.121
X155.651Y-82.499
X155.651Y-83.109
X156.367Y-96.87
X156.718Y-90.551
X156.972Y-83.566
X156.972Y-84.201
X157.607Y-83.566
X157.607Y-84.201
X157.734Y-109.715
X157.81Y-77.445
X157.988Y-99.881
X158.131Y-90.678
X158.242Y-83.566
X158.242Y-84.201
X158.369Y-96.901
X158.75Y-86.995
X159.031Y-72.903
X159.545Y-90.238
X159.639Y-96.901
X160.426Y-75.413
X160.756Y-96.875
X160.849Y-94.943
X161.442Y-94.943
X161.9Y-76.073
X161.9Y-76.708
X162.535Y-76.073
X162.535Y-76.708
X163.322Y-97.79
X163.322Y-98.425
X163.322Y-99.06
X163.957Y-97.79
X163.957Y-98.425
X163.957Y-99.06
X164.592Y-97.79
X164.592Y-98.425
X164.592Y-99.06
X165.168Y-101.431
X167.843Y-97.306
X168.021Y-90.424
X168.021Y-92.456
M30
