%TF.GenerationSoftware,KiCad,Pcbnew,9.0.0*%
%TF.CreationDate,2025-04-19T21:29:44+08:00*%
%TF.ProjectId,Motor42,4d6f746f-7234-4322-9e6b-696361645f70,rev?*%
%TF.SameCoordinates,Original*%
%TF.FileFunction,Copper,L2,Inr*%
%TF.FilePolarity,Positive*%
%FSLAX46Y46*%
G04 Gerber Fmt 4.6, Leading zero omitted, Abs format (unit mm)*
G04 Created by KiCad (PCBNEW 9.0.0) date 2025-04-19 21:29:44*
%MOMM*%
%LPD*%
G01*
G04 APERTURE LIST*
%TA.AperFunction,ViaPad*%
%ADD10C,0.600000*%
%TD*%
G04 APERTURE END LIST*
D10*
%TO.N,GND*%
X135636000Y-98425000D03*
X151866600Y-105460800D03*
X161899600Y-76708000D03*
X144424400Y-94615000D03*
X141986000Y-83540600D03*
X148209000Y-95168000D03*
X138861800Y-77901800D03*
X158242000Y-83566000D03*
X153009600Y-83718400D03*
X147167600Y-83769200D03*
X154279600Y-83718400D03*
X162534600Y-76073000D03*
X146532600Y-83134200D03*
X151231600Y-104825800D03*
X164592000Y-99060000D03*
X156972000Y-84201000D03*
X136906000Y-99060000D03*
X145897600Y-82499200D03*
X145897600Y-83134200D03*
X143789400Y-93980000D03*
X163322000Y-99060000D03*
X153797000Y-91795600D03*
X151866600Y-104825800D03*
X163957000Y-98425000D03*
X157607000Y-84201000D03*
X164592000Y-98425000D03*
X157607000Y-83566000D03*
X164592000Y-97790000D03*
X143789400Y-94615000D03*
X161899600Y-76073000D03*
X136906000Y-98425000D03*
X141986000Y-84175600D03*
X136271000Y-99060000D03*
X138226800Y-77901800D03*
X163957000Y-97790000D03*
X158242000Y-84201000D03*
X163322000Y-98425000D03*
X138226800Y-78536800D03*
X153009600Y-82448400D03*
X163957000Y-99060000D03*
X136271000Y-97790000D03*
X133477000Y-80111600D03*
X146532600Y-83769200D03*
X143256000Y-83540600D03*
X151231600Y-105460800D03*
X135636000Y-99060000D03*
X153009600Y-83083400D03*
X146532600Y-82499200D03*
X156972000Y-83566000D03*
X142621000Y-83540600D03*
X143256000Y-84175600D03*
X154279600Y-82448400D03*
X153644600Y-83718400D03*
X162534600Y-76708000D03*
X163322000Y-97790000D03*
X145897600Y-83769200D03*
X136906000Y-97790000D03*
X147167600Y-83134200D03*
X136271000Y-98425000D03*
X144424400Y-93980000D03*
X154279600Y-83083400D03*
X148717000Y-104648000D03*
X138861800Y-78536800D03*
X147167600Y-82499200D03*
X153644600Y-83083400D03*
X142621000Y-84175600D03*
X135636000Y-97790000D03*
X153644600Y-82448400D03*
X142367000Y-94361000D03*
%TO.N,+5V*%
X137642600Y-80111600D03*
X133985000Y-94792800D03*
X139789800Y-82079200D03*
X154402500Y-96998500D03*
X143510000Y-99187000D03*
X137414000Y-103632000D03*
X139789800Y-82779203D03*
X159545130Y-90238225D03*
%TO.N,+3.3V*%
X146151600Y-110109000D03*
X161442400Y-94942996D03*
X135530000Y-80111600D03*
X167843200Y-97306000D03*
X156366779Y-96870436D03*
X160426400Y-75412600D03*
X148751195Y-103769162D03*
X160849000Y-94942996D03*
X149618700Y-81394300D03*
X140081000Y-100203000D03*
X141732000Y-76708000D03*
X146608800Y-91503800D03*
X157734000Y-109715000D03*
%TO.N,/H_BRID/VREF_A*%
X151257000Y-86741000D03*
X160755706Y-96874706D03*
%TO.N,/H_BRID/VREF_B*%
X140581985Y-99246413D03*
X144208500Y-86804500D03*
%TO.N,VCC*%
X132461000Y-96520000D03*
X131191000Y-97155000D03*
X132207000Y-81915000D03*
X131191000Y-96520000D03*
X132207000Y-82923500D03*
X131826000Y-96520000D03*
X131826000Y-97155000D03*
X144119600Y-76758800D03*
X132461000Y-97155000D03*
X144119600Y-76123800D03*
X143484600Y-76758800D03*
X131191000Y-97790000D03*
X143484600Y-76123800D03*
X131826000Y-97790000D03*
X132461000Y-97790000D03*
%TO.N,+24V*%
X131851400Y-90779600D03*
X131216400Y-89535000D03*
X131216400Y-90170000D03*
X132486400Y-89535000D03*
X158750000Y-86995000D03*
X132486400Y-90779600D03*
X131851400Y-89535000D03*
X132486400Y-90170000D03*
X131851400Y-90170000D03*
X131216400Y-90779600D03*
%TO.N,Net-(D8-A)*%
X159030853Y-72902572D03*
%TO.N,Net-(IC1-RS)*%
X154305000Y-81280000D03*
X155651200Y-82499200D03*
X155651200Y-83108800D03*
X151638000Y-82600800D03*
X151638000Y-83210400D03*
%TO.N,/H_BRID/MOTOR_OUT_A-*%
X155575000Y-77851000D03*
X155575000Y-78486000D03*
X155575000Y-79121000D03*
%TO.N,/H_BRID/MOTOR_OUT_A+*%
X151790400Y-77901800D03*
X151130000Y-77851000D03*
X151790400Y-78536800D03*
X151130000Y-78486000D03*
%TO.N,/H_BRID/MOTOR_OUT_B+*%
X145542000Y-78994000D03*
X145542000Y-78359000D03*
X145542000Y-77724000D03*
%TO.N,Net-(IC2-RS)*%
X148539200Y-82702400D03*
X144627600Y-83261200D03*
X144627600Y-82600800D03*
X148539200Y-83312000D03*
%TO.N,/H_BRID/MOTOR_OUT_B-*%
X148590000Y-79121000D03*
X148590000Y-77851000D03*
X148590000Y-78486000D03*
%TO.N,/MT6816_MOSI*%
X152527000Y-95123000D03*
%TO.N,/MT6816_MISO*%
X150749000Y-95168000D03*
%TO.N,/MT6816_SCK*%
X149479000Y-95168000D03*
%TO.N,/DEBUG_RX*%
X148894800Y-102108000D03*
X168021000Y-92456000D03*
%TO.N,/DEBUG_TX*%
X168021000Y-90424000D03*
X147828000Y-102129000D03*
%TO.N,/SWD_CLK*%
X165168000Y-101430907D03*
X155067000Y-109191500D03*
%TO.N,/PORT/_CAN_H*%
X140816706Y-85751294D03*
X143256000Y-90424000D03*
%TO.N,/PORT/_CAN_L*%
X140748545Y-84938908D03*
X144526000Y-90424000D03*
%TO.N,Net-(J8-02)*%
X156718000Y-90551000D03*
%TO.N,Net-(J8-01)*%
X158131500Y-90678000D03*
%TO.N,Net-(U2-PB2)*%
X152463999Y-98309129D03*
%TO.N,/TB_IN_PWM_A*%
X151964000Y-107950000D03*
%TO.N,/TB_IN_PWM_B*%
X151384000Y-107271199D03*
%TO.N,/LED1*%
X157988000Y-99881000D03*
X157810200Y-77444600D03*
%TO.N,/KEY1*%
X152060000Y-112608000D03*
%TO.N,/KEY2*%
X155067000Y-111125000D03*
%TO.N,/TB_Temp*%
X146899000Y-100278915D03*
X149225000Y-84074000D03*
%TO.N,/RS485_TX*%
X159639000Y-96901000D03*
%TO.N,/CAN_RX*%
X138684000Y-102108000D03*
X145172245Y-95746285D03*
X150464000Y-108071175D03*
%TO.N,/CAN_SILENT*%
X148812000Y-99060000D03*
X141986000Y-90424000D03*
X153348000Y-103279000D03*
%TO.N,/CAN_TX*%
X149694997Y-107696000D03*
X141224000Y-96757000D03*
X139260000Y-101346000D03*
%TO.N,/RS485_RX*%
X154516400Y-105278999D03*
%TO.N,/RS485_DIR*%
X158369000Y-96901000D03*
%TD*%
%TA.AperFunction,Conductor*%
%TO.N,GND*%
G36*
X166066392Y-71464649D02*
G01*
X166074628Y-71465053D01*
X166330094Y-71477600D01*
X166337826Y-71478226D01*
X166396943Y-71484886D01*
X166401159Y-71485435D01*
X166636203Y-71520297D01*
X166645555Y-71522055D01*
X166674756Y-71528719D01*
X166677053Y-71529269D01*
X166928165Y-71592167D01*
X166939806Y-71595698D01*
X167205492Y-71690758D01*
X167216734Y-71695414D01*
X167471835Y-71816065D01*
X167482539Y-71821787D01*
X167704527Y-71954837D01*
X167706623Y-71956122D01*
X167731965Y-71972045D01*
X167739827Y-71977420D01*
X167739858Y-71977443D01*
X167930625Y-72118923D01*
X167934070Y-72121573D01*
X167980543Y-72158633D01*
X167986504Y-72163702D01*
X168181649Y-72340567D01*
X168186058Y-72344765D01*
X170224799Y-74383506D01*
X170228997Y-74387915D01*
X170406283Y-74583524D01*
X170411352Y-74589484D01*
X170448390Y-74635929D01*
X170451020Y-74639348D01*
X170508664Y-74717073D01*
X170592555Y-74830189D01*
X170597949Y-74838082D01*
X170613761Y-74863246D01*
X170615127Y-74865471D01*
X170748184Y-75087468D01*
X170753919Y-75098198D01*
X170874552Y-75353264D01*
X170874556Y-75353271D01*
X170879213Y-75364514D01*
X170974273Y-75630201D01*
X170977805Y-75641846D01*
X171040679Y-75892866D01*
X171041286Y-75895402D01*
X171047906Y-75924407D01*
X171049673Y-75933806D01*
X171084525Y-76168777D01*
X171085087Y-76173087D01*
X171091742Y-76232153D01*
X171092373Y-76239953D01*
X171105351Y-76504189D01*
X171105500Y-76510272D01*
X171105500Y-108418309D01*
X171105351Y-108424393D01*
X171092400Y-108688049D01*
X171091769Y-108695844D01*
X171091769Y-108695848D01*
X171085115Y-108754907D01*
X171084553Y-108759218D01*
X171049702Y-108994175D01*
X171047935Y-109003575D01*
X171041302Y-109032634D01*
X171040695Y-109035169D01*
X170977825Y-109286161D01*
X170974292Y-109297807D01*
X170879232Y-109563474D01*
X170874575Y-109574718D01*
X170753923Y-109829804D01*
X170748186Y-109840537D01*
X170615162Y-110062461D01*
X170613799Y-110064681D01*
X170597946Y-110089911D01*
X170592548Y-110097809D01*
X170451043Y-110288595D01*
X170448392Y-110292040D01*
X170411323Y-110338521D01*
X170406253Y-110344483D01*
X170228565Y-110540517D01*
X170224371Y-110544921D01*
X168186493Y-112582799D01*
X168182084Y-112586997D01*
X167986474Y-112764283D01*
X167980514Y-112769352D01*
X167934069Y-112806390D01*
X167930623Y-112809041D01*
X167739809Y-112950555D01*
X167731916Y-112955949D01*
X167706752Y-112971761D01*
X167704527Y-112973127D01*
X167482531Y-113106184D01*
X167471799Y-113111920D01*
X167216728Y-113232556D01*
X167205485Y-113237213D01*
X166939798Y-113332273D01*
X166928153Y-113335805D01*
X166677132Y-113398679D01*
X166674596Y-113399286D01*
X166645591Y-113405906D01*
X166636192Y-113407673D01*
X166401221Y-113442525D01*
X166396911Y-113443087D01*
X166337845Y-113449742D01*
X166330045Y-113450373D01*
X166179296Y-113457777D01*
X166065794Y-113463351D01*
X166059727Y-113463500D01*
X134151690Y-113463500D01*
X134145607Y-113463351D01*
X133881937Y-113450400D01*
X133874138Y-113449769D01*
X133815103Y-113443118D01*
X133810792Y-113442556D01*
X133575815Y-113407704D01*
X133566418Y-113405938D01*
X133537358Y-113399306D01*
X133534820Y-113398698D01*
X133283838Y-113335833D01*
X133272193Y-113332301D01*
X133006507Y-113237241D01*
X132995264Y-113232584D01*
X132842940Y-113160542D01*
X132740172Y-113111938D01*
X132729462Y-113106213D01*
X132507484Y-112973169D01*
X132505326Y-112971845D01*
X132480046Y-112955961D01*
X132472164Y-112950573D01*
X132281391Y-112809088D01*
X132277946Y-112806438D01*
X132231455Y-112769364D01*
X132225493Y-112764295D01*
X132072751Y-112625860D01*
X132072751Y-112625859D01*
X132030329Y-112587411D01*
X132025920Y-112583213D01*
X131984815Y-112542108D01*
X151559500Y-112542108D01*
X151559500Y-112673891D01*
X151593608Y-112801187D01*
X151596640Y-112806438D01*
X151659500Y-112915314D01*
X151752686Y-113008500D01*
X151866814Y-113074392D01*
X151994108Y-113108500D01*
X151994110Y-113108500D01*
X152125890Y-113108500D01*
X152125892Y-113108500D01*
X152253186Y-113074392D01*
X152367314Y-113008500D01*
X152460500Y-112915314D01*
X152526392Y-112801186D01*
X152560500Y-112673892D01*
X152560500Y-112542108D01*
X152526392Y-112414814D01*
X152460500Y-112300686D01*
X152367314Y-112207500D01*
X152310250Y-112174554D01*
X152253187Y-112141608D01*
X152189539Y-112124554D01*
X152125892Y-112107500D01*
X151994108Y-112107500D01*
X151866812Y-112141608D01*
X151752686Y-112207500D01*
X151752683Y-112207502D01*
X151659502Y-112300683D01*
X151659500Y-112300686D01*
X151593608Y-112414812D01*
X151559500Y-112542108D01*
X131984815Y-112542108D01*
X130501815Y-111059108D01*
X154566500Y-111059108D01*
X154566500Y-111190891D01*
X154600608Y-111318187D01*
X154633554Y-111375250D01*
X154666500Y-111432314D01*
X154759686Y-111525500D01*
X154873814Y-111591392D01*
X155001108Y-111625500D01*
X155001110Y-111625500D01*
X155132890Y-111625500D01*
X155132892Y-111625500D01*
X155260186Y-111591392D01*
X155374314Y-111525500D01*
X155467500Y-111432314D01*
X155533392Y-111318186D01*
X155567500Y-111190892D01*
X155567500Y-111059108D01*
X155533392Y-110931814D01*
X155467500Y-110817686D01*
X155374314Y-110724500D01*
X155317250Y-110691554D01*
X155260187Y-110658608D01*
X155196539Y-110641554D01*
X155132892Y-110624500D01*
X155001108Y-110624500D01*
X154873812Y-110658608D01*
X154759686Y-110724500D01*
X154759683Y-110724502D01*
X154666502Y-110817683D01*
X154666500Y-110817686D01*
X154600608Y-110931812D01*
X154566500Y-111059108D01*
X130501815Y-111059108D01*
X129987200Y-110544493D01*
X129983002Y-110540084D01*
X129805715Y-110344474D01*
X129800646Y-110338514D01*
X129763608Y-110292069D01*
X129760991Y-110288667D01*
X129619443Y-110097808D01*
X129614047Y-110089913D01*
X129598236Y-110064749D01*
X129596872Y-110062527D01*
X129585233Y-110043108D01*
X145651100Y-110043108D01*
X145651100Y-110174892D01*
X145652842Y-110181392D01*
X145685208Y-110302187D01*
X145697922Y-110324208D01*
X145751100Y-110416314D01*
X145844286Y-110509500D01*
X145958414Y-110575392D01*
X146085708Y-110609500D01*
X146085710Y-110609500D01*
X146217490Y-110609500D01*
X146217492Y-110609500D01*
X146344786Y-110575392D01*
X146458914Y-110509500D01*
X146552100Y-110416314D01*
X146617992Y-110302186D01*
X146652100Y-110174892D01*
X146652100Y-110043108D01*
X146617992Y-109915814D01*
X146552100Y-109801686D01*
X146458914Y-109708500D01*
X146371257Y-109657891D01*
X146344787Y-109642608D01*
X146281139Y-109625554D01*
X146217492Y-109608500D01*
X146085708Y-109608500D01*
X145958412Y-109642608D01*
X145844286Y-109708500D01*
X145844283Y-109708502D01*
X145751102Y-109801683D01*
X145751100Y-109801686D01*
X145685208Y-109915812D01*
X145671820Y-109965778D01*
X145651100Y-110043108D01*
X129585233Y-110043108D01*
X129463815Y-109840531D01*
X129458082Y-109829804D01*
X129337436Y-109574712D01*
X129332786Y-109563485D01*
X129332782Y-109563474D01*
X129245264Y-109318867D01*
X129237726Y-109297798D01*
X129234194Y-109286153D01*
X129216247Y-109214500D01*
X129171301Y-109035060D01*
X129170712Y-109032596D01*
X129170074Y-109029800D01*
X129164089Y-109003575D01*
X129162328Y-108994212D01*
X129127467Y-108759182D01*
X129126911Y-108754911D01*
X129123553Y-108725108D01*
X129120254Y-108695829D01*
X129119628Y-108688087D01*
X129106648Y-108423792D01*
X129106500Y-108417730D01*
X129106500Y-107824038D01*
X133019500Y-107824038D01*
X133019500Y-107824505D01*
X133019500Y-108075962D01*
X133041487Y-108214784D01*
X133058910Y-108324785D01*
X133136760Y-108564383D01*
X133203736Y-108695829D01*
X133236034Y-108759218D01*
X133251132Y-108788848D01*
X133399201Y-108992649D01*
X133399205Y-108992654D01*
X133577345Y-109170794D01*
X133577350Y-109170798D01*
X133736124Y-109286153D01*
X133781155Y-109318870D01*
X133910328Y-109384687D01*
X134005616Y-109433239D01*
X134005618Y-109433239D01*
X134005621Y-109433241D01*
X134245215Y-109511090D01*
X134494038Y-109550500D01*
X134494039Y-109550500D01*
X134745961Y-109550500D01*
X134745962Y-109550500D01*
X134994785Y-109511090D01*
X135234379Y-109433241D01*
X135458845Y-109318870D01*
X135662656Y-109170793D01*
X135707841Y-109125608D01*
X154566500Y-109125608D01*
X154566500Y-109257392D01*
X154574209Y-109286161D01*
X154600608Y-109384687D01*
X154613885Y-109407683D01*
X154666500Y-109498814D01*
X154759686Y-109592000D01*
X154873814Y-109657892D01*
X155001108Y-109692000D01*
X155001110Y-109692000D01*
X155132890Y-109692000D01*
X155132892Y-109692000D01*
X155260186Y-109657892D01*
X155275400Y-109649108D01*
X157233500Y-109649108D01*
X157233500Y-109780892D01*
X157246606Y-109829804D01*
X157267608Y-109908187D01*
X157272012Y-109915814D01*
X157333500Y-110022314D01*
X157426686Y-110115500D01*
X157540814Y-110181392D01*
X157668108Y-110215500D01*
X157668110Y-110215500D01*
X157799890Y-110215500D01*
X157799892Y-110215500D01*
X157927186Y-110181392D01*
X158041314Y-110115500D01*
X158134500Y-110022314D01*
X158200392Y-109908186D01*
X158234500Y-109780892D01*
X158234500Y-109649108D01*
X158200392Y-109521814D01*
X158194200Y-109511090D01*
X158187112Y-109498813D01*
X158134500Y-109407686D01*
X158041314Y-109314500D01*
X157984250Y-109281554D01*
X157927187Y-109248608D01*
X157863539Y-109231554D01*
X157799892Y-109214500D01*
X157668108Y-109214500D01*
X157540812Y-109248608D01*
X157426686Y-109314500D01*
X157426683Y-109314502D01*
X157333502Y-109407683D01*
X157333500Y-109407686D01*
X157267608Y-109521812D01*
X157248802Y-109591999D01*
X157233500Y-109649108D01*
X155275400Y-109649108D01*
X155374314Y-109592000D01*
X155467500Y-109498814D01*
X155533392Y-109384686D01*
X155567500Y-109257392D01*
X155567500Y-109125608D01*
X155533392Y-108998314D01*
X155527894Y-108988792D01*
X155524563Y-108983021D01*
X155467500Y-108884186D01*
X155374314Y-108791000D01*
X155311799Y-108754907D01*
X155260187Y-108725108D01*
X155196539Y-108708054D01*
X155132892Y-108691000D01*
X155001108Y-108691000D01*
X154873812Y-108725108D01*
X154759686Y-108791000D01*
X154759683Y-108791002D01*
X154666502Y-108884183D01*
X154666500Y-108884186D01*
X154600608Y-108998312D01*
X154566500Y-109125608D01*
X135707841Y-109125608D01*
X135840793Y-108992656D01*
X135988870Y-108788845D01*
X136103241Y-108564379D01*
X136181090Y-108324785D01*
X136220500Y-108075962D01*
X136220500Y-107824038D01*
X136189784Y-107630108D01*
X149194497Y-107630108D01*
X149194497Y-107761892D01*
X149202399Y-107791384D01*
X149228605Y-107889187D01*
X149232365Y-107895699D01*
X149294497Y-108003314D01*
X149387683Y-108096500D01*
X149501811Y-108162392D01*
X149629105Y-108196500D01*
X149629107Y-108196500D01*
X149760886Y-108196500D01*
X149760889Y-108196500D01*
X149845013Y-108173959D01*
X149914860Y-108175622D01*
X149972723Y-108214784D01*
X149994428Y-108256886D01*
X149994500Y-108256857D01*
X149994852Y-108257708D01*
X149996877Y-108261635D01*
X149997606Y-108264358D01*
X149997607Y-108264360D01*
X150025456Y-108312596D01*
X150063500Y-108378489D01*
X150156686Y-108471675D01*
X150270814Y-108537567D01*
X150398108Y-108571675D01*
X150398110Y-108571675D01*
X150529890Y-108571675D01*
X150529892Y-108571675D01*
X150657186Y-108537567D01*
X150771314Y-108471675D01*
X150864500Y-108378489D01*
X150930392Y-108264361D01*
X150964500Y-108137067D01*
X150964500Y-108005283D01*
X150930392Y-107877989D01*
X150930390Y-107877985D01*
X150909980Y-107842633D01*
X150893507Y-107774732D01*
X150916360Y-107708706D01*
X150971281Y-107665515D01*
X151040835Y-107658874D01*
X151079360Y-107673243D01*
X151190814Y-107737591D01*
X151318108Y-107771699D01*
X151318110Y-107771699D01*
X151339500Y-107771699D01*
X151406539Y-107791384D01*
X151452294Y-107844188D01*
X151463500Y-107895699D01*
X151463500Y-108015891D01*
X151497608Y-108143187D01*
X151515375Y-108173959D01*
X151563500Y-108257314D01*
X151656686Y-108350500D01*
X151770814Y-108416392D01*
X151898108Y-108450500D01*
X151898110Y-108450500D01*
X152029890Y-108450500D01*
X152029892Y-108450500D01*
X152157186Y-108416392D01*
X152271314Y-108350500D01*
X152364500Y-108257314D01*
X152430392Y-108143186D01*
X152464500Y-108015892D01*
X152464500Y-107884108D01*
X152448404Y-107824038D01*
X163991500Y-107824038D01*
X163991500Y-107824505D01*
X163991500Y-108075962D01*
X164013487Y-108214784D01*
X164030910Y-108324785D01*
X164108760Y-108564383D01*
X164175736Y-108695829D01*
X164208034Y-108759218D01*
X164223132Y-108788848D01*
X164371201Y-108992649D01*
X164371205Y-108992654D01*
X164549345Y-109170794D01*
X164549350Y-109170798D01*
X164708124Y-109286153D01*
X164753155Y-109318870D01*
X164882328Y-109384687D01*
X164977616Y-109433239D01*
X164977618Y-109433239D01*
X164977621Y-109433241D01*
X165217215Y-109511090D01*
X165466038Y-109550500D01*
X165466039Y-109550500D01*
X165717961Y-109550500D01*
X165717962Y-109550500D01*
X165966785Y-109511090D01*
X166206379Y-109433241D01*
X166430845Y-109318870D01*
X166634656Y-109170793D01*
X166812793Y-108992656D01*
X166960870Y-108788845D01*
X167075241Y-108564379D01*
X167153090Y-108324785D01*
X167192500Y-108075962D01*
X167192500Y-107824038D01*
X167153090Y-107575215D01*
X167075241Y-107335621D01*
X167075239Y-107335618D01*
X167075239Y-107335616D01*
X167021225Y-107229608D01*
X166960870Y-107111155D01*
X166936790Y-107078011D01*
X166812798Y-106907350D01*
X166812794Y-106907345D01*
X166634654Y-106729205D01*
X166634649Y-106729201D01*
X166430848Y-106581132D01*
X166430847Y-106581131D01*
X166430845Y-106581130D01*
X166360747Y-106545413D01*
X166206383Y-106466760D01*
X165966785Y-106388910D01*
X165717962Y-106349500D01*
X165466038Y-106349500D01*
X165341626Y-106369205D01*
X165217214Y-106388910D01*
X164977616Y-106466760D01*
X164753151Y-106581132D01*
X164549350Y-106729201D01*
X164549345Y-106729205D01*
X164371205Y-106907345D01*
X164371201Y-106907350D01*
X164223132Y-107111151D01*
X164108760Y-107335616D01*
X164030910Y-107575214D01*
X164015628Y-107671699D01*
X163991500Y-107824038D01*
X152448404Y-107824038D01*
X152430392Y-107756814D01*
X152364500Y-107642686D01*
X152271314Y-107549500D01*
X152190452Y-107502814D01*
X152157187Y-107483608D01*
X152093539Y-107466554D01*
X152029892Y-107449500D01*
X152008500Y-107449500D01*
X151941461Y-107429815D01*
X151895706Y-107377011D01*
X151884500Y-107325500D01*
X151884500Y-107205309D01*
X151884500Y-107205307D01*
X151850392Y-107078013D01*
X151784500Y-106963885D01*
X151691314Y-106870699D01*
X151634250Y-106837753D01*
X151577187Y-106804807D01*
X151513539Y-106787753D01*
X151449892Y-106770699D01*
X151318108Y-106770699D01*
X151190812Y-106804807D01*
X151076686Y-106870699D01*
X151076683Y-106870701D01*
X150983502Y-106963882D01*
X150983500Y-106963885D01*
X150917608Y-107078011D01*
X150883500Y-107205307D01*
X150883500Y-107337090D01*
X150917608Y-107464387D01*
X150938020Y-107499741D01*
X150954491Y-107567641D01*
X150931639Y-107633668D01*
X150876717Y-107676858D01*
X150807164Y-107683499D01*
X150768636Y-107669128D01*
X150697099Y-107627827D01*
X150657187Y-107604783D01*
X150559144Y-107578513D01*
X150529892Y-107570675D01*
X150398108Y-107570675D01*
X150398106Y-107570675D01*
X150313984Y-107593215D01*
X150244134Y-107591552D01*
X150186272Y-107552389D01*
X150164569Y-107510288D01*
X150164497Y-107510318D01*
X150164138Y-107509452D01*
X150162117Y-107505531D01*
X150161389Y-107502814D01*
X150130608Y-107449500D01*
X150095497Y-107388686D01*
X150002311Y-107295500D01*
X149945247Y-107262554D01*
X149888184Y-107229608D01*
X149797497Y-107205309D01*
X149760889Y-107195500D01*
X149629105Y-107195500D01*
X149501809Y-107229608D01*
X149387683Y-107295500D01*
X149387680Y-107295502D01*
X149294499Y-107388683D01*
X149294497Y-107388686D01*
X149228605Y-107502812D01*
X149204828Y-107591552D01*
X149194497Y-107630108D01*
X136189784Y-107630108D01*
X136181090Y-107575215D01*
X136173673Y-107552389D01*
X136140243Y-107449500D01*
X136103241Y-107335621D01*
X136103239Y-107335618D01*
X136103239Y-107335616D01*
X136049225Y-107229608D01*
X135988870Y-107111155D01*
X135964790Y-107078011D01*
X135840798Y-106907350D01*
X135840794Y-106907345D01*
X135662654Y-106729205D01*
X135662649Y-106729201D01*
X135458848Y-106581132D01*
X135458847Y-106581131D01*
X135458845Y-106581130D01*
X135388747Y-106545413D01*
X135234383Y-106466760D01*
X134994785Y-106388910D01*
X134745962Y-106349500D01*
X134494038Y-106349500D01*
X134369626Y-106369205D01*
X134245214Y-106388910D01*
X134005616Y-106466760D01*
X133781151Y-106581132D01*
X133577350Y-106729201D01*
X133577345Y-106729205D01*
X133399205Y-106907345D01*
X133399201Y-106907350D01*
X133251132Y-107111151D01*
X133136760Y-107335616D01*
X133058910Y-107575214D01*
X133043628Y-107671699D01*
X133019500Y-107824038D01*
X129106500Y-107824038D01*
X129106500Y-105213107D01*
X154015900Y-105213107D01*
X154015900Y-105344890D01*
X154050008Y-105472186D01*
X154082954Y-105529249D01*
X154115900Y-105586313D01*
X154209086Y-105679499D01*
X154323214Y-105745391D01*
X154450508Y-105779499D01*
X154450510Y-105779499D01*
X154582290Y-105779499D01*
X154582292Y-105779499D01*
X154709586Y-105745391D01*
X154823714Y-105679499D01*
X154916900Y-105586313D01*
X154982792Y-105472185D01*
X155016900Y-105344891D01*
X155016900Y-105213107D01*
X154982792Y-105085813D01*
X154916900Y-104971685D01*
X154823714Y-104878499D01*
X154766650Y-104845553D01*
X154709587Y-104812607D01*
X154645939Y-104795553D01*
X154582292Y-104778499D01*
X154450508Y-104778499D01*
X154323212Y-104812607D01*
X154209086Y-104878499D01*
X154209083Y-104878501D01*
X154115902Y-104971682D01*
X154115900Y-104971685D01*
X154050008Y-105085811D01*
X154015900Y-105213107D01*
X129106500Y-105213107D01*
X129106500Y-103566108D01*
X136913500Y-103566108D01*
X136913500Y-103697892D01*
X136930554Y-103761539D01*
X136947608Y-103825187D01*
X136953305Y-103835054D01*
X137013500Y-103939314D01*
X137106686Y-104032500D01*
X137220814Y-104098392D01*
X137348108Y-104132500D01*
X137348110Y-104132500D01*
X137479890Y-104132500D01*
X137479892Y-104132500D01*
X137607186Y-104098392D01*
X137721314Y-104032500D01*
X137814500Y-103939314D01*
X137880392Y-103825186D01*
X137913059Y-103703270D01*
X148250695Y-103703270D01*
X148250695Y-103835053D01*
X148284803Y-103962349D01*
X148317749Y-104019412D01*
X148350695Y-104076476D01*
X148443881Y-104169662D01*
X148558009Y-104235554D01*
X148685303Y-104269662D01*
X148685305Y-104269662D01*
X148817085Y-104269662D01*
X148817087Y-104269662D01*
X148944381Y-104235554D01*
X149058509Y-104169662D01*
X149151695Y-104076476D01*
X149217587Y-103962348D01*
X149251695Y-103835054D01*
X149251695Y-103703270D01*
X149217587Y-103575976D01*
X149151695Y-103461848D01*
X149058509Y-103368662D01*
X149058507Y-103368661D01*
X149058505Y-103368659D01*
X148961006Y-103312368D01*
X148961005Y-103312368D01*
X148944382Y-103302770D01*
X148880734Y-103285716D01*
X148817087Y-103268662D01*
X148685303Y-103268662D01*
X148558007Y-103302770D01*
X148443881Y-103368662D01*
X148443878Y-103368664D01*
X148350697Y-103461845D01*
X148350695Y-103461848D01*
X148284803Y-103575974D01*
X148250695Y-103703270D01*
X137913059Y-103703270D01*
X137914500Y-103697892D01*
X137914500Y-103566108D01*
X137880392Y-103438814D01*
X137814500Y-103324686D01*
X137721314Y-103231500D01*
X137689458Y-103213108D01*
X152847500Y-103213108D01*
X152847500Y-103344891D01*
X152881608Y-103472187D01*
X152914554Y-103529250D01*
X152947500Y-103586314D01*
X153040686Y-103679500D01*
X153154814Y-103745392D01*
X153282108Y-103779500D01*
X153282110Y-103779500D01*
X153413890Y-103779500D01*
X153413892Y-103779500D01*
X153541186Y-103745392D01*
X153655314Y-103679500D01*
X153748500Y-103586314D01*
X153814392Y-103472186D01*
X153848500Y-103344892D01*
X153848500Y-103213108D01*
X153814392Y-103085814D01*
X153748500Y-102971686D01*
X153655314Y-102878500D01*
X153598250Y-102845554D01*
X153541187Y-102812608D01*
X153477539Y-102795554D01*
X153413892Y-102778500D01*
X153282108Y-102778500D01*
X153154812Y-102812608D01*
X153040686Y-102878500D01*
X153040683Y-102878502D01*
X152947502Y-102971683D01*
X152947500Y-102971686D01*
X152881608Y-103085812D01*
X152847500Y-103213108D01*
X137689458Y-103213108D01*
X137664250Y-103198554D01*
X137607187Y-103165608D01*
X137543539Y-103148554D01*
X137479892Y-103131500D01*
X137348108Y-103131500D01*
X137220812Y-103165608D01*
X137106686Y-103231500D01*
X137106683Y-103231502D01*
X137013502Y-103324683D01*
X137013500Y-103324686D01*
X136947608Y-103438812D01*
X136913500Y-103566108D01*
X129106500Y-103566108D01*
X129106500Y-102042108D01*
X138183500Y-102042108D01*
X138183500Y-102173891D01*
X138217608Y-102301187D01*
X138228577Y-102320185D01*
X138283500Y-102415314D01*
X138376686Y-102508500D01*
X138490814Y-102574392D01*
X138618108Y-102608500D01*
X138618110Y-102608500D01*
X138749890Y-102608500D01*
X138749892Y-102608500D01*
X138877186Y-102574392D01*
X138991314Y-102508500D01*
X139084500Y-102415314D01*
X139150392Y-102301186D01*
X139184500Y-102173892D01*
X139184500Y-102063108D01*
X147327500Y-102063108D01*
X147327500Y-102194891D01*
X147361608Y-102322187D01*
X147375445Y-102346153D01*
X147427500Y-102436314D01*
X147520686Y-102529500D01*
X147634814Y-102595392D01*
X147762108Y-102629500D01*
X147762110Y-102629500D01*
X147893890Y-102629500D01*
X147893892Y-102629500D01*
X148021186Y-102595392D01*
X148135314Y-102529500D01*
X148228500Y-102436314D01*
X148260075Y-102381623D01*
X148310642Y-102333409D01*
X148379249Y-102320185D01*
X148444113Y-102346153D01*
X148474849Y-102381624D01*
X148494300Y-102415314D01*
X148587486Y-102508500D01*
X148701614Y-102574392D01*
X148828908Y-102608500D01*
X148828910Y-102608500D01*
X148960690Y-102608500D01*
X148960692Y-102608500D01*
X149087986Y-102574392D01*
X149202114Y-102508500D01*
X149295300Y-102415314D01*
X149361192Y-102301186D01*
X149395300Y-102173892D01*
X149395300Y-102042108D01*
X149361192Y-101914814D01*
X149295300Y-101800686D01*
X149202114Y-101707500D01*
X149108265Y-101653316D01*
X149087987Y-101641608D01*
X149022622Y-101624094D01*
X148960692Y-101607500D01*
X148828908Y-101607500D01*
X148701612Y-101641608D01*
X148587486Y-101707500D01*
X148587483Y-101707502D01*
X148494302Y-101800683D01*
X148494298Y-101800689D01*
X148462723Y-101855377D01*
X148412155Y-101903592D01*
X148343548Y-101916813D01*
X148278684Y-101890844D01*
X148247951Y-101855376D01*
X148228500Y-101821686D01*
X148135314Y-101728500D01*
X148078250Y-101695554D01*
X148021187Y-101662608D01*
X147913892Y-101633859D01*
X147893892Y-101628500D01*
X147762108Y-101628500D01*
X147634812Y-101662608D01*
X147520686Y-101728500D01*
X147520683Y-101728502D01*
X147427502Y-101821683D01*
X147427500Y-101821686D01*
X147361608Y-101935812D01*
X147327500Y-102063108D01*
X139184500Y-102063108D01*
X139184500Y-102042108D01*
X139172494Y-101997302D01*
X139171550Y-101991916D01*
X139174868Y-101962417D01*
X139175575Y-101932743D01*
X139178731Y-101928079D01*
X139179361Y-101922484D01*
X139198100Y-101899462D01*
X139214738Y-101874881D01*
X139219913Y-101872664D01*
X139223469Y-101868297D01*
X139251682Y-101859060D01*
X139278967Y-101847377D01*
X139289242Y-101846764D01*
X139289871Y-101846559D01*
X139290397Y-101846696D01*
X139293687Y-101846500D01*
X139325890Y-101846500D01*
X139325892Y-101846500D01*
X139453186Y-101812392D01*
X139567314Y-101746500D01*
X139660500Y-101653314D01*
X139726392Y-101539186D01*
X139760500Y-101411892D01*
X139760500Y-101365015D01*
X164667500Y-101365015D01*
X164667500Y-101496799D01*
X164678858Y-101539187D01*
X164701608Y-101624094D01*
X164704152Y-101628500D01*
X164767500Y-101738221D01*
X164860686Y-101831407D01*
X164974814Y-101897299D01*
X165102108Y-101931407D01*
X165102110Y-101931407D01*
X165233890Y-101931407D01*
X165233892Y-101931407D01*
X165361186Y-101897299D01*
X165475314Y-101831407D01*
X165568500Y-101738221D01*
X165634392Y-101624093D01*
X165668500Y-101496799D01*
X165668500Y-101365015D01*
X165634392Y-101237721D01*
X165568500Y-101123593D01*
X165475314Y-101030407D01*
X165418250Y-100997461D01*
X165361187Y-100964515D01*
X165290220Y-100945500D01*
X165233892Y-100930407D01*
X165102108Y-100930407D01*
X164974812Y-100964515D01*
X164860686Y-101030407D01*
X164860683Y-101030409D01*
X164767502Y-101123590D01*
X164767500Y-101123593D01*
X164701608Y-101237719D01*
X164690250Y-101280110D01*
X164667500Y-101365015D01*
X139760500Y-101365015D01*
X139760500Y-101280108D01*
X139726392Y-101152814D01*
X139660500Y-101038686D01*
X139567314Y-100945500D01*
X139510250Y-100912554D01*
X139453187Y-100879608D01*
X139389539Y-100862554D01*
X139325892Y-100845500D01*
X139194108Y-100845500D01*
X139066812Y-100879608D01*
X138952686Y-100945500D01*
X138952683Y-100945502D01*
X138859502Y-101038683D01*
X138859500Y-101038686D01*
X138793608Y-101152812D01*
X138759500Y-101280108D01*
X138759500Y-101411891D01*
X138770088Y-101451407D01*
X138768425Y-101521257D01*
X138729262Y-101579119D01*
X138665033Y-101606623D01*
X138650313Y-101607500D01*
X138618108Y-101607500D01*
X138490812Y-101641608D01*
X138376686Y-101707500D01*
X138376683Y-101707502D01*
X138283502Y-101800683D01*
X138283500Y-101800686D01*
X138217608Y-101914812D01*
X138183500Y-102042108D01*
X129106500Y-102042108D01*
X129106500Y-100137108D01*
X139580500Y-100137108D01*
X139580500Y-100268892D01*
X139583878Y-100281499D01*
X139614608Y-100396187D01*
X139647554Y-100453250D01*
X139680500Y-100510314D01*
X139773686Y-100603500D01*
X139887814Y-100669392D01*
X140015108Y-100703500D01*
X140015110Y-100703500D01*
X140146890Y-100703500D01*
X140146892Y-100703500D01*
X140274186Y-100669392D01*
X140388314Y-100603500D01*
X140481500Y-100510314D01*
X140547392Y-100396186D01*
X140581500Y-100268892D01*
X140581500Y-100213023D01*
X146398500Y-100213023D01*
X146398500Y-100344807D01*
X146408332Y-100381500D01*
X146432608Y-100472102D01*
X146454670Y-100510313D01*
X146498500Y-100586229D01*
X146591686Y-100679415D01*
X146705814Y-100745307D01*
X146833108Y-100779415D01*
X146833110Y-100779415D01*
X146964890Y-100779415D01*
X146964892Y-100779415D01*
X147092186Y-100745307D01*
X147206314Y-100679415D01*
X147299500Y-100586229D01*
X147365392Y-100472101D01*
X147399500Y-100344807D01*
X147399500Y-100213023D01*
X147365392Y-100085729D01*
X147299500Y-99971601D01*
X147206314Y-99878415D01*
X147149250Y-99845469D01*
X147096664Y-99815108D01*
X157487500Y-99815108D01*
X157487500Y-99946891D01*
X157521608Y-100074187D01*
X157528271Y-100085727D01*
X157587500Y-100188314D01*
X157680686Y-100281500D01*
X157779521Y-100338563D01*
X157790336Y-100344807D01*
X157794814Y-100347392D01*
X157922108Y-100381500D01*
X157922110Y-100381500D01*
X158053890Y-100381500D01*
X158053892Y-100381500D01*
X158181186Y-100347392D01*
X158295314Y-100281500D01*
X158388500Y-100188314D01*
X158454392Y-100074186D01*
X158488500Y-99946892D01*
X158488500Y-99815108D01*
X158454392Y-99687814D01*
X158388500Y-99573686D01*
X158295314Y-99480500D01*
X158238250Y-99447554D01*
X158181187Y-99414608D01*
X158117539Y-99397554D01*
X158053892Y-99380500D01*
X157922108Y-99380500D01*
X157794812Y-99414608D01*
X157680686Y-99480500D01*
X157680683Y-99480502D01*
X157587502Y-99573683D01*
X157587500Y-99573686D01*
X157521608Y-99687812D01*
X157487500Y-99815108D01*
X147096664Y-99815108D01*
X147092187Y-99812523D01*
X147028539Y-99795469D01*
X146964892Y-99778415D01*
X146833108Y-99778415D01*
X146705812Y-99812523D01*
X146591686Y-99878415D01*
X146591683Y-99878417D01*
X146498502Y-99971598D01*
X146498500Y-99971601D01*
X146432608Y-100085727D01*
X146405121Y-100188313D01*
X146398500Y-100213023D01*
X140581500Y-100213023D01*
X140581500Y-100137108D01*
X140547392Y-100009814D01*
X140502992Y-99932912D01*
X140486520Y-99865014D01*
X140509372Y-99798987D01*
X140564293Y-99755796D01*
X140610380Y-99746913D01*
X140647875Y-99746913D01*
X140647877Y-99746913D01*
X140775171Y-99712805D01*
X140889299Y-99646913D01*
X140982485Y-99553727D01*
X141048377Y-99439599D01*
X141082485Y-99312305D01*
X141082485Y-99180521D01*
X141066565Y-99121108D01*
X143009500Y-99121108D01*
X143009500Y-99252891D01*
X143043608Y-99380187D01*
X143076554Y-99437250D01*
X143109500Y-99494314D01*
X143202686Y-99587500D01*
X143316814Y-99653392D01*
X143444108Y-99687500D01*
X143444110Y-99687500D01*
X143575890Y-99687500D01*
X143575892Y-99687500D01*
X143703186Y-99653392D01*
X143817314Y-99587500D01*
X143910500Y-99494314D01*
X143976392Y-99380186D01*
X144010500Y-99252892D01*
X144010500Y-99121108D01*
X143976471Y-98994108D01*
X148311500Y-98994108D01*
X148311500Y-99125891D01*
X148345608Y-99253187D01*
X148378554Y-99310250D01*
X148411500Y-99367314D01*
X148504686Y-99460500D01*
X148618814Y-99526392D01*
X148746108Y-99560500D01*
X148746110Y-99560500D01*
X148877890Y-99560500D01*
X148877892Y-99560500D01*
X149005186Y-99526392D01*
X149119314Y-99460500D01*
X149212500Y-99367314D01*
X149278392Y-99253186D01*
X149312500Y-99125892D01*
X149312500Y-98994108D01*
X149278392Y-98866814D01*
X149212500Y-98752686D01*
X149119314Y-98659500D01*
X149044741Y-98616445D01*
X149005187Y-98593608D01*
X148941539Y-98576554D01*
X148877892Y-98559500D01*
X148746108Y-98559500D01*
X148618812Y-98593608D01*
X148504686Y-98659500D01*
X148504683Y-98659502D01*
X148411502Y-98752683D01*
X148411500Y-98752686D01*
X148345608Y-98866812D01*
X148311500Y-98994108D01*
X143976471Y-98994108D01*
X143976392Y-98993814D01*
X143910500Y-98879686D01*
X143817314Y-98786500D01*
X143758741Y-98752683D01*
X143703187Y-98720608D01*
X143639539Y-98703554D01*
X143575892Y-98686500D01*
X143444108Y-98686500D01*
X143316812Y-98720608D01*
X143202686Y-98786500D01*
X143202683Y-98786502D01*
X143109502Y-98879683D01*
X143109500Y-98879686D01*
X143043608Y-98993812D01*
X143009500Y-99121108D01*
X141066565Y-99121108D01*
X141048377Y-99053227D01*
X140982485Y-98939099D01*
X140889299Y-98845913D01*
X140832235Y-98812967D01*
X140775172Y-98780021D01*
X140673143Y-98752683D01*
X140647877Y-98745913D01*
X140516093Y-98745913D01*
X140388797Y-98780021D01*
X140274671Y-98845913D01*
X140274668Y-98845915D01*
X140181487Y-98939096D01*
X140181485Y-98939099D01*
X140115593Y-99053225D01*
X140090983Y-99145074D01*
X140081485Y-99180521D01*
X140081485Y-99312305D01*
X140096225Y-99367316D01*
X140115593Y-99439600D01*
X140127660Y-99460500D01*
X140159992Y-99516500D01*
X140176465Y-99584399D01*
X140153613Y-99650426D01*
X140098692Y-99693617D01*
X140052605Y-99702500D01*
X140015108Y-99702500D01*
X139887812Y-99736608D01*
X139773686Y-99802500D01*
X139773683Y-99802502D01*
X139680502Y-99895683D01*
X139680500Y-99895686D01*
X139614608Y-100009812D01*
X139597359Y-100074187D01*
X139580500Y-100137108D01*
X129106500Y-100137108D01*
X129106500Y-96454108D01*
X130690500Y-96454108D01*
X130690500Y-96585892D01*
X130723168Y-96707812D01*
X130724609Y-96713188D01*
X130724609Y-96713189D01*
X130760584Y-96775500D01*
X130777057Y-96843401D01*
X130760584Y-96899500D01*
X130724609Y-96961810D01*
X130724609Y-96961811D01*
X130724609Y-96961812D01*
X130724608Y-96961814D01*
X130690500Y-97089108D01*
X130690500Y-97220892D01*
X130721564Y-97336827D01*
X130724609Y-97348188D01*
X130724609Y-97348189D01*
X130760584Y-97410500D01*
X130777057Y-97478401D01*
X130760584Y-97534500D01*
X130724609Y-97596810D01*
X130724609Y-97596811D01*
X130724609Y-97596812D01*
X130724608Y-97596814D01*
X130695219Y-97706497D01*
X130690500Y-97724108D01*
X130690500Y-97855891D01*
X130724608Y-97983187D01*
X130735363Y-98001815D01*
X130790500Y-98097314D01*
X130883686Y-98190500D01*
X130997814Y-98256392D01*
X131125108Y-98290500D01*
X131125110Y-98290500D01*
X131256890Y-98290500D01*
X131256892Y-98290500D01*
X131384186Y-98256392D01*
X131446500Y-98220414D01*
X131514399Y-98203942D01*
X131570499Y-98220414D01*
X131632814Y-98256392D01*
X131760108Y-98290500D01*
X131760110Y-98290500D01*
X131891890Y-98290500D01*
X131891892Y-98290500D01*
X132019186Y-98256392D01*
X132081500Y-98220414D01*
X132149399Y-98203942D01*
X132205499Y-98220414D01*
X132267814Y-98256392D01*
X132395108Y-98290500D01*
X132395110Y-98290500D01*
X132526890Y-98290500D01*
X132526892Y-98290500D01*
X132654186Y-98256392D01*
X132676971Y-98243237D01*
X151963499Y-98243237D01*
X151963499Y-98375020D01*
X151997607Y-98502316D01*
X152030553Y-98559379D01*
X152063499Y-98616443D01*
X152156685Y-98709629D01*
X152270813Y-98775521D01*
X152398107Y-98809629D01*
X152398109Y-98809629D01*
X152529889Y-98809629D01*
X152529891Y-98809629D01*
X152657185Y-98775521D01*
X152771313Y-98709629D01*
X152864499Y-98616443D01*
X152930391Y-98502315D01*
X152964499Y-98375021D01*
X152964499Y-98243237D01*
X152930391Y-98115943D01*
X152864499Y-98001815D01*
X152771313Y-97908629D01*
X152714249Y-97875683D01*
X152657186Y-97842737D01*
X152593538Y-97825683D01*
X152529891Y-97808629D01*
X152398107Y-97808629D01*
X152270811Y-97842737D01*
X152156685Y-97908629D01*
X152156682Y-97908631D01*
X152063501Y-98001812D01*
X152063499Y-98001815D01*
X151997607Y-98115941D01*
X151963499Y-98243237D01*
X132676971Y-98243237D01*
X132768314Y-98190500D01*
X132861500Y-98097314D01*
X132927392Y-97983186D01*
X132961500Y-97855892D01*
X132961500Y-97724108D01*
X132927392Y-97596814D01*
X132891414Y-97534499D01*
X132874942Y-97466601D01*
X132891415Y-97410499D01*
X132896612Y-97401499D01*
X132927392Y-97348186D01*
X132961500Y-97220892D01*
X132961500Y-97089108D01*
X132927392Y-96961814D01*
X132891414Y-96899499D01*
X132890428Y-96895436D01*
X132887598Y-96892360D01*
X132882263Y-96861778D01*
X132874942Y-96831601D01*
X132876104Y-96826474D01*
X132875591Y-96823530D01*
X132879384Y-96812016D01*
X132884518Y-96789383D01*
X132887530Y-96782228D01*
X132927392Y-96713186D01*
X132933308Y-96691108D01*
X140723500Y-96691108D01*
X140723500Y-96822892D01*
X140733919Y-96861778D01*
X140757608Y-96950187D01*
X140790554Y-97007250D01*
X140823500Y-97064314D01*
X140916686Y-97157500D01*
X141030814Y-97223392D01*
X141158108Y-97257500D01*
X141158110Y-97257500D01*
X141289890Y-97257500D01*
X141289892Y-97257500D01*
X141417186Y-97223392D01*
X141531314Y-97157500D01*
X141624500Y-97064314D01*
X141690392Y-96950186D01*
X141695102Y-96932608D01*
X153902000Y-96932608D01*
X153902000Y-97064392D01*
X153913620Y-97107757D01*
X153936108Y-97191687D01*
X153964066Y-97240110D01*
X154002000Y-97305814D01*
X154095186Y-97399000D01*
X154209314Y-97464892D01*
X154336608Y-97499000D01*
X154336610Y-97499000D01*
X154468390Y-97499000D01*
X154468392Y-97499000D01*
X154595686Y-97464892D01*
X154709814Y-97399000D01*
X154803000Y-97305814D01*
X154868892Y-97191686D01*
X154903000Y-97064392D01*
X154903000Y-96932608D01*
X154868892Y-96805314D01*
X154868447Y-96804544D01*
X155866279Y-96804544D01*
X155866279Y-96936328D01*
X155873108Y-96961814D01*
X155900387Y-97063623D01*
X155925868Y-97107757D01*
X155966279Y-97177750D01*
X156059465Y-97270936D01*
X156173593Y-97336828D01*
X156300887Y-97370936D01*
X156300889Y-97370936D01*
X156432669Y-97370936D01*
X156432671Y-97370936D01*
X156559965Y-97336828D01*
X156674093Y-97270936D01*
X156767279Y-97177750D01*
X156833171Y-97063622D01*
X156867279Y-96936328D01*
X156867279Y-96835108D01*
X157868500Y-96835108D01*
X157868500Y-96966891D01*
X157902608Y-97094187D01*
X157913363Y-97112814D01*
X157968500Y-97208314D01*
X158061686Y-97301500D01*
X158175814Y-97367392D01*
X158303108Y-97401500D01*
X158303110Y-97401500D01*
X158434890Y-97401500D01*
X158434892Y-97401500D01*
X158562186Y-97367392D01*
X158676314Y-97301500D01*
X158769500Y-97208314D01*
X158835392Y-97094186D01*
X158869500Y-96966892D01*
X158869500Y-96835108D01*
X159138500Y-96835108D01*
X159138500Y-96966891D01*
X159172608Y-97094187D01*
X159183363Y-97112814D01*
X159238500Y-97208314D01*
X159331686Y-97301500D01*
X159445814Y-97367392D01*
X159573108Y-97401500D01*
X159573110Y-97401500D01*
X159704890Y-97401500D01*
X159704892Y-97401500D01*
X159832186Y-97367392D01*
X159946314Y-97301500D01*
X160039500Y-97208314D01*
X160097556Y-97107757D01*
X160148123Y-97059542D01*
X160216730Y-97046319D01*
X160281595Y-97072287D01*
X160312330Y-97107757D01*
X160355206Y-97182020D01*
X160448392Y-97275206D01*
X160562520Y-97341098D01*
X160689814Y-97375206D01*
X160689816Y-97375206D01*
X160821596Y-97375206D01*
X160821598Y-97375206D01*
X160948892Y-97341098D01*
X161063020Y-97275206D01*
X161098118Y-97240108D01*
X167342700Y-97240108D01*
X167342700Y-97371892D01*
X167353045Y-97410499D01*
X167376808Y-97499187D01*
X167397197Y-97534501D01*
X167442700Y-97613314D01*
X167535886Y-97706500D01*
X167650014Y-97772392D01*
X167777308Y-97806500D01*
X167777310Y-97806500D01*
X167909090Y-97806500D01*
X167909092Y-97806500D01*
X168036386Y-97772392D01*
X168150514Y-97706500D01*
X168243700Y-97613314D01*
X168309592Y-97499186D01*
X168343700Y-97371892D01*
X168343700Y-97240108D01*
X168309592Y-97112814D01*
X168243700Y-96998686D01*
X168150514Y-96905500D01*
X168093450Y-96872554D01*
X168036387Y-96839608D01*
X167933410Y-96812016D01*
X167909092Y-96805500D01*
X167777308Y-96805500D01*
X167650012Y-96839608D01*
X167535886Y-96905500D01*
X167535883Y-96905502D01*
X167442702Y-96998683D01*
X167442700Y-96998686D01*
X167376808Y-97112812D01*
X167347849Y-97220890D01*
X167342700Y-97240108D01*
X161098118Y-97240108D01*
X161156206Y-97182020D01*
X161158670Y-97177752D01*
X161163158Y-97169980D01*
X161209849Y-97089108D01*
X161222098Y-97067892D01*
X161256206Y-96940598D01*
X161256206Y-96808814D01*
X161222098Y-96681520D01*
X161156206Y-96567392D01*
X161063020Y-96474206D01*
X161005956Y-96441260D01*
X160948893Y-96408314D01*
X160885245Y-96391260D01*
X160821598Y-96374206D01*
X160689814Y-96374206D01*
X160562518Y-96408314D01*
X160448392Y-96474206D01*
X160448389Y-96474208D01*
X160355208Y-96567389D01*
X160355202Y-96567398D01*
X160297148Y-96667948D01*
X160246581Y-96716163D01*
X160177974Y-96729385D01*
X160113109Y-96703417D01*
X160082375Y-96667947D01*
X160067791Y-96642687D01*
X160039500Y-96593686D01*
X159946314Y-96500500D01*
X159889250Y-96467554D01*
X159832187Y-96434608D01*
X159768539Y-96417554D01*
X159704892Y-96400500D01*
X159573108Y-96400500D01*
X159445812Y-96434608D01*
X159331686Y-96500500D01*
X159331683Y-96500502D01*
X159238502Y-96593683D01*
X159238500Y-96593686D01*
X159172608Y-96707812D01*
X159138500Y-96835108D01*
X158869500Y-96835108D01*
X158835392Y-96707814D01*
X158769500Y-96593686D01*
X158676314Y-96500500D01*
X158619250Y-96467554D01*
X158562187Y-96434608D01*
X158498539Y-96417554D01*
X158434892Y-96400500D01*
X158303108Y-96400500D01*
X158175812Y-96434608D01*
X158061686Y-96500500D01*
X158061683Y-96500502D01*
X157968502Y-96593683D01*
X157968500Y-96593686D01*
X157902608Y-96707812D01*
X157868500Y-96835108D01*
X156867279Y-96835108D01*
X156867279Y-96804544D01*
X156833171Y-96677250D01*
X156827800Y-96667948D01*
X156813216Y-96642687D01*
X156767279Y-96563122D01*
X156674093Y-96469936D01*
X156612903Y-96434608D01*
X156559966Y-96404044D01*
X156496318Y-96386990D01*
X156432671Y-96369936D01*
X156300887Y-96369936D01*
X156173591Y-96404044D01*
X156059465Y-96469936D01*
X156059462Y-96469938D01*
X155966281Y-96563119D01*
X155966279Y-96563122D01*
X155900387Y-96677248D01*
X155874061Y-96775500D01*
X155866279Y-96804544D01*
X154868447Y-96804544D01*
X154825054Y-96729385D01*
X154803000Y-96691186D01*
X154709814Y-96598000D01*
X154649404Y-96563122D01*
X154595687Y-96532108D01*
X154532039Y-96515054D01*
X154468392Y-96498000D01*
X154336608Y-96498000D01*
X154209312Y-96532108D01*
X154095186Y-96598000D01*
X154095183Y-96598002D01*
X154002002Y-96691183D01*
X154002000Y-96691186D01*
X153936108Y-96805312D01*
X153912784Y-96892360D01*
X153902000Y-96932608D01*
X141695102Y-96932608D01*
X141724500Y-96822892D01*
X141724500Y-96691108D01*
X141690392Y-96563814D01*
X141689992Y-96563122D01*
X141672086Y-96532108D01*
X141624500Y-96449686D01*
X141531314Y-96356500D01*
X141474250Y-96323554D01*
X141417187Y-96290608D01*
X141353539Y-96273554D01*
X141289892Y-96256500D01*
X141158108Y-96256500D01*
X141030812Y-96290608D01*
X140916686Y-96356500D01*
X140916683Y-96356502D01*
X140823502Y-96449683D01*
X140823500Y-96449686D01*
X140757608Y-96563812D01*
X140749603Y-96593689D01*
X140723500Y-96691108D01*
X132933308Y-96691108D01*
X132961500Y-96585892D01*
X132961500Y-96454108D01*
X132927392Y-96326814D01*
X132861500Y-96212686D01*
X132768314Y-96119500D01*
X132711250Y-96086554D01*
X132654187Y-96053608D01*
X132590539Y-96036554D01*
X132526892Y-96019500D01*
X132395108Y-96019500D01*
X132267814Y-96053608D01*
X132267813Y-96053608D01*
X132267811Y-96053609D01*
X132267810Y-96053609D01*
X132205500Y-96089584D01*
X132137599Y-96106057D01*
X132081500Y-96089584D01*
X132019189Y-96053609D01*
X132019186Y-96053608D01*
X131891892Y-96019500D01*
X131760108Y-96019500D01*
X131632814Y-96053608D01*
X131632813Y-96053608D01*
X131632811Y-96053609D01*
X131632810Y-96053609D01*
X131570500Y-96089584D01*
X131502599Y-96106057D01*
X131446500Y-96089584D01*
X131384189Y-96053609D01*
X131384186Y-96053608D01*
X131256892Y-96019500D01*
X131125108Y-96019500D01*
X130997812Y-96053608D01*
X130883686Y-96119500D01*
X130883683Y-96119502D01*
X130790502Y-96212683D01*
X130790500Y-96212686D01*
X130724608Y-96326812D01*
X130711909Y-96374206D01*
X130690500Y-96454108D01*
X129106500Y-96454108D01*
X129106500Y-95680393D01*
X144671745Y-95680393D01*
X144671745Y-95812176D01*
X144705853Y-95939472D01*
X144738799Y-95996535D01*
X144771745Y-96053599D01*
X144864931Y-96146785D01*
X144979059Y-96212677D01*
X145106353Y-96246785D01*
X145106355Y-96246785D01*
X145238135Y-96246785D01*
X145238137Y-96246785D01*
X145365431Y-96212677D01*
X145479559Y-96146785D01*
X145572745Y-96053599D01*
X145638637Y-95939471D01*
X145672745Y-95812177D01*
X145672745Y-95680393D01*
X145638637Y-95553099D01*
X145572745Y-95438971D01*
X145479559Y-95345785D01*
X145388651Y-95293299D01*
X145365432Y-95279893D01*
X145288169Y-95259191D01*
X145238137Y-95245785D01*
X145106353Y-95245785D01*
X144979057Y-95279893D01*
X144864931Y-95345785D01*
X144864928Y-95345787D01*
X144771747Y-95438968D01*
X144771745Y-95438971D01*
X144705853Y-95553097D01*
X144671745Y-95680393D01*
X129106500Y-95680393D01*
X129106500Y-94726908D01*
X133484500Y-94726908D01*
X133484500Y-94858692D01*
X133489434Y-94877106D01*
X133518608Y-94985987D01*
X133545163Y-95031980D01*
X133584500Y-95100114D01*
X133677686Y-95193300D01*
X133791814Y-95259192D01*
X133919108Y-95293300D01*
X133919110Y-95293300D01*
X134050890Y-95293300D01*
X134050892Y-95293300D01*
X134178186Y-95259192D01*
X134292314Y-95193300D01*
X134383506Y-95102108D01*
X148978500Y-95102108D01*
X148978500Y-95233891D01*
X149012608Y-95361187D01*
X149045554Y-95418250D01*
X149078500Y-95475314D01*
X149171686Y-95568500D01*
X149285814Y-95634392D01*
X149413108Y-95668500D01*
X149413110Y-95668500D01*
X149544890Y-95668500D01*
X149544892Y-95668500D01*
X149672186Y-95634392D01*
X149786314Y-95568500D01*
X149879500Y-95475314D01*
X149945392Y-95361186D01*
X149979500Y-95233892D01*
X149979500Y-95102108D01*
X150248500Y-95102108D01*
X150248500Y-95233891D01*
X150282608Y-95361187D01*
X150315554Y-95418250D01*
X150348500Y-95475314D01*
X150441686Y-95568500D01*
X150555814Y-95634392D01*
X150683108Y-95668500D01*
X150683110Y-95668500D01*
X150814890Y-95668500D01*
X150814892Y-95668500D01*
X150942186Y-95634392D01*
X151056314Y-95568500D01*
X151149500Y-95475314D01*
X151215392Y-95361186D01*
X151249500Y-95233892D01*
X151249500Y-95102108D01*
X151237442Y-95057108D01*
X152026500Y-95057108D01*
X152026500Y-95188892D01*
X152027681Y-95193299D01*
X152060608Y-95316187D01*
X152076375Y-95343495D01*
X152126500Y-95430314D01*
X152219686Y-95523500D01*
X152333814Y-95589392D01*
X152461108Y-95623500D01*
X152461110Y-95623500D01*
X152592890Y-95623500D01*
X152592892Y-95623500D01*
X152720186Y-95589392D01*
X152834314Y-95523500D01*
X152927500Y-95430314D01*
X152993392Y-95316186D01*
X153027500Y-95188892D01*
X153027500Y-95057108D01*
X152993392Y-94929814D01*
X152962960Y-94877104D01*
X160348500Y-94877104D01*
X160348500Y-95008888D01*
X160354688Y-95031981D01*
X160382608Y-95136183D01*
X160413039Y-95188890D01*
X160448500Y-95250310D01*
X160541686Y-95343496D01*
X160655814Y-95409388D01*
X160783108Y-95443496D01*
X160783110Y-95443496D01*
X160914890Y-95443496D01*
X160914892Y-95443496D01*
X161042186Y-95409388D01*
X161083700Y-95385419D01*
X161151599Y-95368947D01*
X161207699Y-95385419D01*
X161249214Y-95409388D01*
X161376508Y-95443496D01*
X161376510Y-95443496D01*
X161508290Y-95443496D01*
X161508292Y-95443496D01*
X161635586Y-95409388D01*
X161749714Y-95343496D01*
X161842900Y-95250310D01*
X161908792Y-95136182D01*
X161942900Y-95008888D01*
X161942900Y-94877104D01*
X161908792Y-94749810D01*
X161842900Y-94635682D01*
X161749714Y-94542496D01*
X161677100Y-94500572D01*
X161635587Y-94476604D01*
X161571939Y-94459550D01*
X161508292Y-94442496D01*
X161376508Y-94442496D01*
X161249214Y-94476604D01*
X161249209Y-94476606D01*
X161207698Y-94500572D01*
X161139798Y-94517043D01*
X161083702Y-94500572D01*
X161042190Y-94476606D01*
X161042188Y-94476605D01*
X161042186Y-94476604D01*
X160914892Y-94442496D01*
X160783108Y-94442496D01*
X160655812Y-94476604D01*
X160541686Y-94542496D01*
X160541683Y-94542498D01*
X160448502Y-94635679D01*
X160448500Y-94635682D01*
X160382608Y-94749808D01*
X160364956Y-94815689D01*
X160348500Y-94877104D01*
X152962960Y-94877104D01*
X152952329Y-94858691D01*
X152927502Y-94815689D01*
X152927497Y-94815683D01*
X152834316Y-94722502D01*
X152834314Y-94722500D01*
X152777250Y-94689554D01*
X152720187Y-94656608D01*
X152642077Y-94635679D01*
X152592892Y-94622500D01*
X152461108Y-94622500D01*
X152333812Y-94656608D01*
X152219686Y-94722500D01*
X152219683Y-94722502D01*
X152126502Y-94815683D01*
X152126500Y-94815686D01*
X152060608Y-94929812D01*
X152039420Y-95008888D01*
X152026500Y-95057108D01*
X151237442Y-95057108D01*
X151215392Y-94974814D01*
X151149500Y-94860686D01*
X151056314Y-94767500D01*
X150986007Y-94726908D01*
X150942187Y-94701608D01*
X150878539Y-94684554D01*
X150814892Y-94667500D01*
X150683108Y-94667500D01*
X150555812Y-94701608D01*
X150441686Y-94767500D01*
X150441683Y-94767502D01*
X150348502Y-94860683D01*
X150348500Y-94860686D01*
X150282608Y-94974812D01*
X150248500Y-95102108D01*
X149979500Y-95102108D01*
X149945392Y-94974814D01*
X149879500Y-94860686D01*
X149786314Y-94767500D01*
X149716007Y-94726908D01*
X149672187Y-94701608D01*
X149608539Y-94684554D01*
X149544892Y-94667500D01*
X149413108Y-94667500D01*
X149285812Y-94701608D01*
X149171686Y-94767500D01*
X149171683Y-94767502D01*
X149078502Y-94860683D01*
X149078500Y-94860686D01*
X149012608Y-94974812D01*
X148978500Y-95102108D01*
X134383506Y-95102108D01*
X134385500Y-95100114D01*
X134405687Y-95065148D01*
X134424837Y-95031981D01*
X134424837Y-95031980D01*
X134438170Y-95008887D01*
X134451392Y-94985986D01*
X134485500Y-94858692D01*
X134485500Y-94726908D01*
X134451392Y-94599614D01*
X134385500Y-94485486D01*
X134292314Y-94392300D01*
X134238101Y-94361000D01*
X147447000Y-94361000D01*
X152781000Y-94361000D01*
X152781000Y-92390108D01*
X167520500Y-92390108D01*
X167520500Y-92521891D01*
X167554608Y-92649187D01*
X167587554Y-92706250D01*
X167620500Y-92763314D01*
X167713686Y-92856500D01*
X167827814Y-92922392D01*
X167955108Y-92956500D01*
X167955110Y-92956500D01*
X168086890Y-92956500D01*
X168086892Y-92956500D01*
X168214186Y-92922392D01*
X168328314Y-92856500D01*
X168421500Y-92763314D01*
X168487392Y-92649186D01*
X168521500Y-92521892D01*
X168521500Y-92390108D01*
X168487392Y-92262814D01*
X168421500Y-92148686D01*
X168328314Y-92055500D01*
X168271250Y-92022554D01*
X168214187Y-91989608D01*
X168141720Y-91970191D01*
X168086892Y-91955500D01*
X167955108Y-91955500D01*
X167827812Y-91989608D01*
X167713686Y-92055500D01*
X167713683Y-92055502D01*
X167620502Y-92148683D01*
X167620500Y-92148686D01*
X167554608Y-92262812D01*
X167520500Y-92390108D01*
X152781000Y-92390108D01*
X152781000Y-90551000D01*
X147447000Y-90551000D01*
X147447000Y-94361000D01*
X134238101Y-94361000D01*
X134235250Y-94359354D01*
X134178187Y-94326408D01*
X134114539Y-94309354D01*
X134050892Y-94292300D01*
X133919108Y-94292300D01*
X133791812Y-94326408D01*
X133677686Y-94392300D01*
X133677683Y-94392302D01*
X133584502Y-94485483D01*
X133584500Y-94485486D01*
X133518608Y-94599612D01*
X133500418Y-94667500D01*
X133484500Y-94726908D01*
X129106500Y-94726908D01*
X129106500Y-91437908D01*
X146108300Y-91437908D01*
X146108300Y-91569691D01*
X146142408Y-91696987D01*
X146175354Y-91754050D01*
X146208300Y-91811114D01*
X146301486Y-91904300D01*
X146415614Y-91970192D01*
X146542908Y-92004300D01*
X146542910Y-92004300D01*
X146674690Y-92004300D01*
X146674692Y-92004300D01*
X146801986Y-91970192D01*
X146916114Y-91904300D01*
X147009300Y-91811114D01*
X147075192Y-91696986D01*
X147109300Y-91569692D01*
X147109300Y-91437908D01*
X147075192Y-91310614D01*
X147009300Y-91196486D01*
X146916114Y-91103300D01*
X146859050Y-91070354D01*
X146801987Y-91037408D01*
X146738339Y-91020354D01*
X146674692Y-91003300D01*
X146542908Y-91003300D01*
X146415612Y-91037408D01*
X146301486Y-91103300D01*
X146301483Y-91103302D01*
X146208302Y-91196483D01*
X146208300Y-91196486D01*
X146142408Y-91310612D01*
X146108300Y-91437908D01*
X129106500Y-91437908D01*
X129106500Y-89469108D01*
X130715900Y-89469108D01*
X130715900Y-89600891D01*
X130750009Y-89728188D01*
X130750009Y-89728189D01*
X130785984Y-89790500D01*
X130802457Y-89858401D01*
X130785984Y-89914500D01*
X130750009Y-89976810D01*
X130750009Y-89976811D01*
X130750009Y-89976812D01*
X130750008Y-89976814D01*
X130715900Y-90104108D01*
X130715900Y-90235892D01*
X130748648Y-90358108D01*
X130750008Y-90363185D01*
X130750008Y-90363186D01*
X130778653Y-90412801D01*
X130795125Y-90480701D01*
X130778653Y-90536799D01*
X130750008Y-90586413D01*
X130750008Y-90586414D01*
X130715900Y-90713708D01*
X130715900Y-90845492D01*
X130719336Y-90858314D01*
X130750008Y-90972787D01*
X130757240Y-90985313D01*
X130815900Y-91086914D01*
X130909086Y-91180100D01*
X131023214Y-91245992D01*
X131150508Y-91280100D01*
X131150510Y-91280100D01*
X131282290Y-91280100D01*
X131282292Y-91280100D01*
X131409586Y-91245992D01*
X131471900Y-91210014D01*
X131539799Y-91193542D01*
X131595899Y-91210014D01*
X131658214Y-91245992D01*
X131785508Y-91280100D01*
X131785510Y-91280100D01*
X131917290Y-91280100D01*
X131917292Y-91280100D01*
X132044586Y-91245992D01*
X132106900Y-91210014D01*
X132174799Y-91193542D01*
X132230899Y-91210014D01*
X132293214Y-91245992D01*
X132420508Y-91280100D01*
X132420510Y-91280100D01*
X132552290Y-91280100D01*
X132552292Y-91280100D01*
X132679586Y-91245992D01*
X132793714Y-91180100D01*
X132886900Y-91086914D01*
X132952792Y-90972786D01*
X132986900Y-90845492D01*
X132986900Y-90713708D01*
X132952792Y-90586414D01*
X132924148Y-90536801D01*
X132923099Y-90532478D01*
X132920101Y-90529193D01*
X132914935Y-90498832D01*
X132907674Y-90468901D01*
X132908919Y-90463464D01*
X132908383Y-90460313D01*
X132912444Y-90448072D01*
X132917453Y-90426204D01*
X132920393Y-90419302D01*
X132952792Y-90363186D01*
X132954153Y-90358108D01*
X141485500Y-90358108D01*
X141485500Y-90489892D01*
X141496031Y-90529193D01*
X141519608Y-90617187D01*
X141552554Y-90674250D01*
X141585500Y-90731314D01*
X141678686Y-90824500D01*
X141792814Y-90890392D01*
X141920108Y-90924500D01*
X141920110Y-90924500D01*
X142051890Y-90924500D01*
X142051892Y-90924500D01*
X142179186Y-90890392D01*
X142293314Y-90824500D01*
X142386500Y-90731314D01*
X142452392Y-90617186D01*
X142486500Y-90489892D01*
X142486500Y-90358108D01*
X142755500Y-90358108D01*
X142755500Y-90489892D01*
X142766031Y-90529193D01*
X142789608Y-90617187D01*
X142822554Y-90674250D01*
X142855500Y-90731314D01*
X142948686Y-90824500D01*
X143062814Y-90890392D01*
X143190108Y-90924500D01*
X143190110Y-90924500D01*
X143321890Y-90924500D01*
X143321892Y-90924500D01*
X143449186Y-90890392D01*
X143563314Y-90824500D01*
X143656500Y-90731314D01*
X143722392Y-90617186D01*
X143756500Y-90489892D01*
X143756500Y-90358108D01*
X144025500Y-90358108D01*
X144025500Y-90489892D01*
X144036031Y-90529193D01*
X144059608Y-90617187D01*
X144092554Y-90674250D01*
X144125500Y-90731314D01*
X144218686Y-90824500D01*
X144332814Y-90890392D01*
X144460108Y-90924500D01*
X144460110Y-90924500D01*
X144591890Y-90924500D01*
X144591892Y-90924500D01*
X144719186Y-90890392D01*
X144833314Y-90824500D01*
X144926500Y-90731314D01*
X144992392Y-90617186D01*
X145026500Y-90489892D01*
X145026500Y-90485108D01*
X156217500Y-90485108D01*
X156217500Y-90616891D01*
X156251608Y-90744187D01*
X156284554Y-90801250D01*
X156317500Y-90858314D01*
X156410686Y-90951500D01*
X156524814Y-91017392D01*
X156652108Y-91051500D01*
X156652110Y-91051500D01*
X156783890Y-91051500D01*
X156783892Y-91051500D01*
X156911186Y-91017392D01*
X157025314Y-90951500D01*
X157118500Y-90858314D01*
X157184392Y-90744186D01*
X157218500Y-90616892D01*
X157218500Y-90612108D01*
X157631000Y-90612108D01*
X157631000Y-90743891D01*
X157665108Y-90871187D01*
X157695888Y-90924499D01*
X157731000Y-90985314D01*
X157824186Y-91078500D01*
X157938314Y-91144392D01*
X158065608Y-91178500D01*
X158065610Y-91178500D01*
X158197390Y-91178500D01*
X158197392Y-91178500D01*
X158324686Y-91144392D01*
X158438814Y-91078500D01*
X158532000Y-90985314D01*
X158597892Y-90871186D01*
X158632000Y-90743892D01*
X158632000Y-90612108D01*
X158597892Y-90484814D01*
X158532000Y-90370686D01*
X158438814Y-90277500D01*
X158428580Y-90271591D01*
X158324688Y-90211609D01*
X158324687Y-90211608D01*
X158324686Y-90211608D01*
X158197392Y-90177500D01*
X158065608Y-90177500D01*
X157938312Y-90211608D01*
X157824186Y-90277500D01*
X157824183Y-90277502D01*
X157731002Y-90370683D01*
X157731000Y-90370686D01*
X157665108Y-90484812D01*
X157631000Y-90612108D01*
X157218500Y-90612108D01*
X157218500Y-90485108D01*
X157184392Y-90357814D01*
X157118500Y-90243686D01*
X157047147Y-90172333D01*
X159044630Y-90172333D01*
X159044630Y-90304117D01*
X159046055Y-90309434D01*
X159078738Y-90431412D01*
X159097244Y-90463464D01*
X159144630Y-90545539D01*
X159237816Y-90638725D01*
X159351944Y-90704617D01*
X159479238Y-90738725D01*
X159479240Y-90738725D01*
X159611020Y-90738725D01*
X159611022Y-90738725D01*
X159738316Y-90704617D01*
X159852444Y-90638725D01*
X159945630Y-90545539D01*
X160011522Y-90431411D01*
X160031163Y-90358108D01*
X167520500Y-90358108D01*
X167520500Y-90489892D01*
X167531031Y-90529193D01*
X167554608Y-90617187D01*
X167587554Y-90674250D01*
X167620500Y-90731314D01*
X167713686Y-90824500D01*
X167827814Y-90890392D01*
X167955108Y-90924500D01*
X167955110Y-90924500D01*
X168086890Y-90924500D01*
X168086892Y-90924500D01*
X168214186Y-90890392D01*
X168328314Y-90824500D01*
X168421500Y-90731314D01*
X168487392Y-90617186D01*
X168521500Y-90489892D01*
X168521500Y-90358108D01*
X168487392Y-90230814D01*
X168421500Y-90116686D01*
X168328314Y-90023500D01*
X168247452Y-89976814D01*
X168214187Y-89957608D01*
X168114539Y-89930908D01*
X168086892Y-89923500D01*
X167955108Y-89923500D01*
X167827812Y-89957608D01*
X167713686Y-90023500D01*
X167713683Y-90023502D01*
X167620502Y-90116683D01*
X167620500Y-90116686D01*
X167554608Y-90230812D01*
X167531277Y-90317887D01*
X167520500Y-90358108D01*
X160031163Y-90358108D01*
X160045630Y-90304117D01*
X160045630Y-90172333D01*
X160011522Y-90045039D01*
X159945630Y-89930911D01*
X159852444Y-89837725D01*
X159795380Y-89804779D01*
X159738317Y-89771833D01*
X159674669Y-89754779D01*
X159611022Y-89737725D01*
X159479238Y-89737725D01*
X159351942Y-89771833D01*
X159237816Y-89837725D01*
X159237813Y-89837727D01*
X159144632Y-89930908D01*
X159144630Y-89930911D01*
X159078738Y-90045037D01*
X159044630Y-90172333D01*
X157047147Y-90172333D01*
X157025314Y-90150500D01*
X156966741Y-90116683D01*
X156911187Y-90084608D01*
X156847539Y-90067554D01*
X156783892Y-90050500D01*
X156652108Y-90050500D01*
X156524812Y-90084608D01*
X156410686Y-90150500D01*
X156410683Y-90150502D01*
X156317502Y-90243683D01*
X156317500Y-90243686D01*
X156251608Y-90357812D01*
X156217500Y-90485108D01*
X145026500Y-90485108D01*
X145026500Y-90358108D01*
X144992392Y-90230814D01*
X144926500Y-90116686D01*
X144833314Y-90023500D01*
X144752452Y-89976814D01*
X144719187Y-89957608D01*
X144619539Y-89930908D01*
X144591892Y-89923500D01*
X144460108Y-89923500D01*
X144332812Y-89957608D01*
X144218686Y-90023500D01*
X144218683Y-90023502D01*
X144125502Y-90116683D01*
X144125500Y-90116686D01*
X144059608Y-90230812D01*
X144036277Y-90317887D01*
X144025500Y-90358108D01*
X143756500Y-90358108D01*
X143722392Y-90230814D01*
X143656500Y-90116686D01*
X143563314Y-90023500D01*
X143482452Y-89976814D01*
X143449187Y-89957608D01*
X143349539Y-89930908D01*
X143321892Y-89923500D01*
X143190108Y-89923500D01*
X143062812Y-89957608D01*
X142948686Y-90023500D01*
X142948683Y-90023502D01*
X142855502Y-90116683D01*
X142855500Y-90116686D01*
X142789608Y-90230812D01*
X142766277Y-90317887D01*
X142755500Y-90358108D01*
X142486500Y-90358108D01*
X142452392Y-90230814D01*
X142386500Y-90116686D01*
X142293314Y-90023500D01*
X142212452Y-89976814D01*
X142179187Y-89957608D01*
X142079539Y-89930908D01*
X142051892Y-89923500D01*
X141920108Y-89923500D01*
X141792812Y-89957608D01*
X141678686Y-90023500D01*
X141678683Y-90023502D01*
X141585502Y-90116683D01*
X141585500Y-90116686D01*
X141519608Y-90230812D01*
X141496277Y-90317887D01*
X141485500Y-90358108D01*
X132954153Y-90358108D01*
X132986900Y-90235892D01*
X132986900Y-90104108D01*
X132952792Y-89976814D01*
X132916814Y-89914499D01*
X132900342Y-89846601D01*
X132916815Y-89790499D01*
X132947285Y-89737725D01*
X132952792Y-89728186D01*
X132986900Y-89600892D01*
X132986900Y-89469108D01*
X132952792Y-89341814D01*
X132886900Y-89227686D01*
X132793714Y-89134500D01*
X132736650Y-89101554D01*
X132679587Y-89068608D01*
X132615939Y-89051554D01*
X132552292Y-89034500D01*
X132420508Y-89034500D01*
X132293214Y-89068608D01*
X132293213Y-89068608D01*
X132293211Y-89068609D01*
X132293210Y-89068609D01*
X132230900Y-89104584D01*
X132162999Y-89121057D01*
X132106900Y-89104584D01*
X132044589Y-89068609D01*
X132044586Y-89068608D01*
X131917292Y-89034500D01*
X131785508Y-89034500D01*
X131658214Y-89068608D01*
X131658213Y-89068608D01*
X131658211Y-89068609D01*
X131658210Y-89068609D01*
X131595900Y-89104584D01*
X131527999Y-89121057D01*
X131471900Y-89104584D01*
X131409589Y-89068609D01*
X131409586Y-89068608D01*
X131282292Y-89034500D01*
X131150508Y-89034500D01*
X131023212Y-89068608D01*
X130909086Y-89134500D01*
X130909083Y-89134502D01*
X130815902Y-89227683D01*
X130815900Y-89227686D01*
X130750008Y-89341812D01*
X130715900Y-89469108D01*
X129106500Y-89469108D01*
X129106500Y-86738608D01*
X143708000Y-86738608D01*
X143708000Y-86870391D01*
X143742108Y-86997687D01*
X143771338Y-87048313D01*
X143808000Y-87111814D01*
X143901186Y-87205000D01*
X144015314Y-87270892D01*
X144142608Y-87305000D01*
X144142610Y-87305000D01*
X144274390Y-87305000D01*
X144274392Y-87305000D01*
X144401686Y-87270892D01*
X144515814Y-87205000D01*
X144609000Y-87111814D01*
X144674892Y-86997686D01*
X144709000Y-86870392D01*
X144709000Y-86738608D01*
X144691985Y-86675108D01*
X150756500Y-86675108D01*
X150756500Y-86806891D01*
X150790608Y-86934187D01*
X150823554Y-86991250D01*
X150856500Y-87048314D01*
X150949686Y-87141500D01*
X151063814Y-87207392D01*
X151191108Y-87241500D01*
X151191110Y-87241500D01*
X151322890Y-87241500D01*
X151322892Y-87241500D01*
X151450186Y-87207392D01*
X151564314Y-87141500D01*
X151657500Y-87048314D01*
X151723392Y-86934186D01*
X151724753Y-86929108D01*
X158249500Y-86929108D01*
X158249500Y-87060891D01*
X158283608Y-87188187D01*
X158314388Y-87241499D01*
X158349500Y-87302314D01*
X158442686Y-87395500D01*
X158556814Y-87461392D01*
X158684108Y-87495500D01*
X158684110Y-87495500D01*
X158815890Y-87495500D01*
X158815892Y-87495500D01*
X158943186Y-87461392D01*
X159057314Y-87395500D01*
X159150500Y-87302314D01*
X159216392Y-87188186D01*
X159250500Y-87060892D01*
X159250500Y-86929108D01*
X159216392Y-86801814D01*
X159150500Y-86687686D01*
X159057314Y-86594500D01*
X158976452Y-86547814D01*
X158943187Y-86528608D01*
X158825916Y-86497186D01*
X158815892Y-86494500D01*
X158684108Y-86494500D01*
X158556812Y-86528608D01*
X158442686Y-86594500D01*
X158442683Y-86594502D01*
X158349502Y-86687683D01*
X158349500Y-86687686D01*
X158283608Y-86801812D01*
X158249500Y-86929108D01*
X151724753Y-86929108D01*
X151757500Y-86806892D01*
X151757500Y-86675108D01*
X151723392Y-86547814D01*
X151657500Y-86433686D01*
X151564314Y-86340500D01*
X151501094Y-86304000D01*
X151450187Y-86274608D01*
X151365038Y-86251793D01*
X151322892Y-86240500D01*
X151191108Y-86240500D01*
X151063812Y-86274608D01*
X150949686Y-86340500D01*
X150949683Y-86340502D01*
X150856502Y-86433683D01*
X150856500Y-86433686D01*
X150790608Y-86547812D01*
X150756500Y-86675108D01*
X144691985Y-86675108D01*
X144674892Y-86611314D01*
X144609000Y-86497186D01*
X144515814Y-86404000D01*
X144405833Y-86340502D01*
X144401687Y-86338108D01*
X144338039Y-86321054D01*
X144274392Y-86304000D01*
X144142608Y-86304000D01*
X144015312Y-86338108D01*
X143901186Y-86404000D01*
X143901183Y-86404002D01*
X143808002Y-86497183D01*
X143808000Y-86497186D01*
X143742108Y-86611312D01*
X143708000Y-86738608D01*
X129106500Y-86738608D01*
X129106500Y-84873016D01*
X140248045Y-84873016D01*
X140248045Y-85004799D01*
X140282153Y-85132095D01*
X140315099Y-85189158D01*
X140348045Y-85246222D01*
X140348047Y-85246224D01*
X140396361Y-85294538D01*
X140429846Y-85355861D01*
X140424862Y-85425553D01*
X140416067Y-85444219D01*
X140350315Y-85558104D01*
X140350315Y-85558105D01*
X140316206Y-85685402D01*
X140316206Y-85817185D01*
X140350314Y-85944481D01*
X140383260Y-86001544D01*
X140416206Y-86058608D01*
X140509392Y-86151794D01*
X140623520Y-86217686D01*
X140750814Y-86251794D01*
X140750816Y-86251794D01*
X140882596Y-86251794D01*
X140882598Y-86251794D01*
X141009892Y-86217686D01*
X141124020Y-86151794D01*
X141217206Y-86058608D01*
X141283098Y-85944480D01*
X141317206Y-85817186D01*
X141317206Y-85685402D01*
X141283098Y-85558108D01*
X141217206Y-85443980D01*
X141168889Y-85395663D01*
X141135404Y-85334340D01*
X141140388Y-85264648D01*
X141149177Y-85245991D01*
X141214937Y-85132094D01*
X141249045Y-85004800D01*
X141249045Y-84873016D01*
X141214937Y-84745722D01*
X141149045Y-84631594D01*
X141055859Y-84538408D01*
X140998795Y-84505462D01*
X140941732Y-84472516D01*
X140878084Y-84455462D01*
X140814437Y-84438408D01*
X140682653Y-84438408D01*
X140555357Y-84472516D01*
X140441231Y-84538408D01*
X140441228Y-84538410D01*
X140348047Y-84631591D01*
X140348045Y-84631594D01*
X140282153Y-84745720D01*
X140248045Y-84873016D01*
X129106500Y-84873016D01*
X129106500Y-81849108D01*
X131706500Y-81849108D01*
X131706500Y-81980891D01*
X131740608Y-82108187D01*
X131761915Y-82145091D01*
X131806500Y-82222314D01*
X131899686Y-82315500D01*
X131899689Y-82315502D01*
X131906135Y-82320448D01*
X131904104Y-82323094D01*
X131941621Y-82362468D01*
X131954820Y-82431079D01*
X131928830Y-82495935D01*
X131905005Y-82516579D01*
X131906135Y-82518052D01*
X131899683Y-82523002D01*
X131806502Y-82616183D01*
X131806500Y-82616186D01*
X131740608Y-82730312D01*
X131706500Y-82857608D01*
X131706500Y-82989391D01*
X131740608Y-83116687D01*
X131756671Y-83144508D01*
X131806500Y-83230814D01*
X131899686Y-83324000D01*
X132013814Y-83389892D01*
X132141108Y-83424000D01*
X132141110Y-83424000D01*
X132272890Y-83424000D01*
X132272892Y-83424000D01*
X132400186Y-83389892D01*
X132514314Y-83324000D01*
X132607500Y-83230814D01*
X132673392Y-83116686D01*
X132707500Y-82989392D01*
X132707500Y-82857608D01*
X132673392Y-82730314D01*
X132607500Y-82616186D01*
X132514314Y-82523000D01*
X132514311Y-82522998D01*
X132507865Y-82518052D01*
X132509902Y-82515397D01*
X132472411Y-82476097D01*
X132459172Y-82407493D01*
X132485124Y-82342622D01*
X132509002Y-82321930D01*
X132507865Y-82320448D01*
X132514306Y-82315504D01*
X132514314Y-82315500D01*
X132607500Y-82222314D01*
X132673392Y-82108186D01*
X132698814Y-82013308D01*
X139289300Y-82013308D01*
X139289300Y-82145092D01*
X139309991Y-82222314D01*
X139323409Y-82272388D01*
X139323409Y-82272389D01*
X139378149Y-82367201D01*
X139394622Y-82435101D01*
X139378149Y-82491201D01*
X139323409Y-82586013D01*
X139323409Y-82586014D01*
X139323409Y-82586015D01*
X139323408Y-82586017D01*
X139289300Y-82713311D01*
X139289300Y-82845095D01*
X139305512Y-82905600D01*
X139323408Y-82972390D01*
X139335308Y-82993001D01*
X139389300Y-83086517D01*
X139482486Y-83179703D01*
X139596614Y-83245595D01*
X139723908Y-83279703D01*
X139723910Y-83279703D01*
X139855690Y-83279703D01*
X139855692Y-83279703D01*
X139982986Y-83245595D01*
X140097114Y-83179703D01*
X140190300Y-83086517D01*
X140256192Y-82972389D01*
X140290300Y-82845095D01*
X140290300Y-82713311D01*
X140256192Y-82586017D01*
X140226684Y-82534908D01*
X144127100Y-82534908D01*
X144127100Y-82666692D01*
X144154323Y-82768292D01*
X144161209Y-82793988D01*
X144161209Y-82793989D01*
X144204517Y-82869000D01*
X144220990Y-82936900D01*
X144204517Y-82993000D01*
X144161209Y-83068010D01*
X144161209Y-83068011D01*
X144161208Y-83068013D01*
X144161208Y-83068014D01*
X144156250Y-83086517D01*
X144127100Y-83195308D01*
X144127100Y-83327091D01*
X144161208Y-83454387D01*
X144190537Y-83505186D01*
X144227100Y-83568514D01*
X144320286Y-83661700D01*
X144434414Y-83727592D01*
X144561708Y-83761700D01*
X144561710Y-83761700D01*
X144693490Y-83761700D01*
X144693492Y-83761700D01*
X144820786Y-83727592D01*
X144934914Y-83661700D01*
X145028100Y-83568514D01*
X145093992Y-83454386D01*
X145128100Y-83327092D01*
X145128100Y-83195308D01*
X145093992Y-83068014D01*
X145050682Y-82993000D01*
X145034209Y-82925101D01*
X145050683Y-82868999D01*
X145057259Y-82857610D01*
X145093992Y-82793986D01*
X145128100Y-82666692D01*
X145128100Y-82636508D01*
X148038700Y-82636508D01*
X148038700Y-82768292D01*
X148065685Y-82869000D01*
X148072808Y-82895585D01*
X148072808Y-82895586D01*
X148101453Y-82945201D01*
X148117925Y-83013101D01*
X148101453Y-83069199D01*
X148072808Y-83118813D01*
X148072808Y-83118814D01*
X148038700Y-83246108D01*
X148038700Y-83377892D01*
X148055754Y-83441539D01*
X148072808Y-83505187D01*
X148075183Y-83509300D01*
X148138700Y-83619314D01*
X148231886Y-83712500D01*
X148346014Y-83778392D01*
X148473308Y-83812500D01*
X148473310Y-83812500D01*
X148613219Y-83812500D01*
X148613219Y-83815463D01*
X148668223Y-83824033D01*
X148720485Y-83870406D01*
X148739380Y-83937672D01*
X148735164Y-83968305D01*
X148724500Y-84008103D01*
X148724500Y-84139891D01*
X148758608Y-84267187D01*
X148791554Y-84324250D01*
X148824500Y-84381314D01*
X148917686Y-84474500D01*
X149016521Y-84531563D01*
X149028377Y-84538408D01*
X149031814Y-84540392D01*
X149159108Y-84574500D01*
X149159110Y-84574500D01*
X149290890Y-84574500D01*
X149290892Y-84574500D01*
X149418186Y-84540392D01*
X149532314Y-84474500D01*
X149625500Y-84381314D01*
X149691392Y-84267186D01*
X149725500Y-84139892D01*
X149725500Y-84008108D01*
X149691392Y-83880814D01*
X149625500Y-83766686D01*
X149532314Y-83673500D01*
X149438465Y-83619316D01*
X149418187Y-83607608D01*
X149354539Y-83590554D01*
X149290892Y-83573500D01*
X149159108Y-83573500D01*
X149150981Y-83573500D01*
X149150981Y-83570546D01*
X149095918Y-83561939D01*
X149043680Y-83515539D01*
X149024819Y-83448264D01*
X149029033Y-83417698D01*
X149039700Y-83377892D01*
X149039700Y-83246108D01*
X149005592Y-83118814D01*
X149004363Y-83116686D01*
X148976948Y-83069201D01*
X148960474Y-83001301D01*
X148976948Y-82945199D01*
X149005589Y-82895591D01*
X149005588Y-82895591D01*
X149005592Y-82895586D01*
X149039700Y-82768292D01*
X149039700Y-82636508D01*
X149012477Y-82534908D01*
X151137500Y-82534908D01*
X151137500Y-82666692D01*
X151164724Y-82768292D01*
X151171608Y-82793985D01*
X151171608Y-82793986D01*
X151200253Y-82843601D01*
X151216725Y-82911501D01*
X151200253Y-82967599D01*
X151171608Y-83017213D01*
X151171608Y-83017214D01*
X151137500Y-83144508D01*
X151137500Y-83276291D01*
X151171608Y-83403587D01*
X151183393Y-83423999D01*
X151237500Y-83517714D01*
X151330686Y-83610900D01*
X151418669Y-83661697D01*
X151439115Y-83673502D01*
X151444814Y-83676792D01*
X151572108Y-83710900D01*
X151572110Y-83710900D01*
X151703890Y-83710900D01*
X151703892Y-83710900D01*
X151831186Y-83676792D01*
X151945314Y-83610900D01*
X152038500Y-83517714D01*
X152104392Y-83403586D01*
X152138500Y-83276292D01*
X152138500Y-83144508D01*
X152104392Y-83017214D01*
X152102017Y-83013101D01*
X152075748Y-82967601D01*
X152059274Y-82899701D01*
X152075748Y-82843599D01*
X152104389Y-82793991D01*
X152104390Y-82793989D01*
X152104392Y-82793986D01*
X152138500Y-82666692D01*
X152138500Y-82534908D01*
X152111277Y-82433308D01*
X155150700Y-82433308D01*
X155150700Y-82565092D01*
X155177924Y-82666692D01*
X155184808Y-82692385D01*
X155184808Y-82692386D01*
X155213453Y-82742001D01*
X155229925Y-82809901D01*
X155213453Y-82865999D01*
X155184808Y-82915613D01*
X155184808Y-82915614D01*
X155150700Y-83042908D01*
X155150700Y-83174692D01*
X155152043Y-83179703D01*
X155184808Y-83301987D01*
X155199302Y-83327090D01*
X155250700Y-83416114D01*
X155343886Y-83509300D01*
X155458014Y-83575192D01*
X155585308Y-83609300D01*
X155585310Y-83609300D01*
X155717090Y-83609300D01*
X155717092Y-83609300D01*
X155844386Y-83575192D01*
X155958514Y-83509300D01*
X156051700Y-83416114D01*
X156117592Y-83301986D01*
X156151700Y-83174692D01*
X156151700Y-83042908D01*
X156117592Y-82915614D01*
X156115217Y-82911501D01*
X156088948Y-82866001D01*
X156072474Y-82798101D01*
X156088948Y-82741999D01*
X156117589Y-82692391D01*
X156117588Y-82692391D01*
X156117592Y-82692386D01*
X156151700Y-82565092D01*
X156151700Y-82433308D01*
X156117592Y-82306014D01*
X156051700Y-82191886D01*
X155958514Y-82098700D01*
X155901450Y-82065754D01*
X155844387Y-82032808D01*
X155771610Y-82013308D01*
X155717092Y-81998700D01*
X155585308Y-81998700D01*
X155458012Y-82032808D01*
X155343886Y-82098700D01*
X155343883Y-82098702D01*
X155250702Y-82191883D01*
X155250700Y-82191886D01*
X155184808Y-82306012D01*
X155163238Y-82386514D01*
X155150700Y-82433308D01*
X152111277Y-82433308D01*
X152104392Y-82407614D01*
X152038500Y-82293486D01*
X151945314Y-82200300D01*
X151888250Y-82167354D01*
X151831187Y-82134408D01*
X151767539Y-82117354D01*
X151703892Y-82100300D01*
X151572108Y-82100300D01*
X151444812Y-82134408D01*
X151330686Y-82200300D01*
X151330683Y-82200302D01*
X151237502Y-82293483D01*
X151237500Y-82293486D01*
X151171608Y-82407612D01*
X151140691Y-82523000D01*
X151137500Y-82534908D01*
X149012477Y-82534908D01*
X149005592Y-82509214D01*
X148939700Y-82395086D01*
X148846514Y-82301900D01*
X148789450Y-82268954D01*
X148732387Y-82236008D01*
X148668739Y-82218954D01*
X148605092Y-82201900D01*
X148473308Y-82201900D01*
X148346012Y-82236008D01*
X148231886Y-82301900D01*
X148231883Y-82301902D01*
X148138702Y-82395083D01*
X148138700Y-82395086D01*
X148072808Y-82509212D01*
X148052229Y-82586015D01*
X148038700Y-82636508D01*
X145128100Y-82636508D01*
X145128100Y-82534908D01*
X145093992Y-82407614D01*
X145028100Y-82293486D01*
X144934914Y-82200300D01*
X144877850Y-82167354D01*
X144820787Y-82134408D01*
X144757139Y-82117354D01*
X144693492Y-82100300D01*
X144561708Y-82100300D01*
X144434412Y-82134408D01*
X144320286Y-82200300D01*
X144320283Y-82200302D01*
X144227102Y-82293483D01*
X144227100Y-82293486D01*
X144161208Y-82407612D01*
X144130291Y-82523000D01*
X144127100Y-82534908D01*
X140226684Y-82534908D01*
X140216102Y-82516579D01*
X140201450Y-82491201D01*
X140184977Y-82423301D01*
X140201450Y-82367201D01*
X140256192Y-82272386D01*
X140290300Y-82145092D01*
X140290300Y-82013308D01*
X140256192Y-81886014D01*
X140190300Y-81771886D01*
X140097114Y-81678700D01*
X140040050Y-81645754D01*
X139982987Y-81612808D01*
X139919339Y-81595754D01*
X139855692Y-81578700D01*
X139723908Y-81578700D01*
X139596612Y-81612808D01*
X139482486Y-81678700D01*
X139482483Y-81678702D01*
X139389302Y-81771883D01*
X139389300Y-81771886D01*
X139323408Y-81886012D01*
X139297986Y-81980890D01*
X139289300Y-82013308D01*
X132698814Y-82013308D01*
X132707500Y-81980892D01*
X132707500Y-81849108D01*
X132673392Y-81721814D01*
X132607500Y-81607686D01*
X132514314Y-81514500D01*
X132442756Y-81473186D01*
X132400187Y-81448608D01*
X132385664Y-81444716D01*
X132272892Y-81414500D01*
X132141108Y-81414500D01*
X132013812Y-81448608D01*
X131899686Y-81514500D01*
X131899683Y-81514502D01*
X131806502Y-81607683D01*
X131806500Y-81607686D01*
X131740608Y-81721812D01*
X131706500Y-81849108D01*
X129106500Y-81849108D01*
X129106500Y-81328408D01*
X149118200Y-81328408D01*
X149118200Y-81460191D01*
X149152308Y-81587487D01*
X149185254Y-81644550D01*
X149218200Y-81701614D01*
X149311386Y-81794800D01*
X149425514Y-81860692D01*
X149552808Y-81894800D01*
X149552810Y-81894800D01*
X149684590Y-81894800D01*
X149684592Y-81894800D01*
X149811886Y-81860692D01*
X149926014Y-81794800D01*
X150019200Y-81701614D01*
X150085092Y-81587486D01*
X150119200Y-81460192D01*
X150119200Y-81328408D01*
X150088574Y-81214108D01*
X153804500Y-81214108D01*
X153804500Y-81345891D01*
X153838608Y-81473187D01*
X153862461Y-81514500D01*
X153904500Y-81587314D01*
X153997686Y-81680500D01*
X154111814Y-81746392D01*
X154239108Y-81780500D01*
X154239110Y-81780500D01*
X154370890Y-81780500D01*
X154370892Y-81780500D01*
X154498186Y-81746392D01*
X154612314Y-81680500D01*
X154705500Y-81587314D01*
X154771392Y-81473186D01*
X154805500Y-81345892D01*
X154805500Y-81214108D01*
X154771392Y-81086814D01*
X154705500Y-80972686D01*
X154612314Y-80879500D01*
X154555250Y-80846554D01*
X154498187Y-80813608D01*
X154434539Y-80796554D01*
X154370892Y-80779500D01*
X154239108Y-80779500D01*
X154111812Y-80813608D01*
X153997686Y-80879500D01*
X153997683Y-80879502D01*
X153904502Y-80972683D01*
X153904500Y-80972686D01*
X153838608Y-81086812D01*
X153804500Y-81214108D01*
X150088574Y-81214108D01*
X150085092Y-81201114D01*
X150019200Y-81086986D01*
X149926014Y-80993800D01*
X149868950Y-80960854D01*
X149811887Y-80927908D01*
X149748239Y-80910854D01*
X149684592Y-80893800D01*
X149552808Y-80893800D01*
X149425512Y-80927908D01*
X149311386Y-80993800D01*
X149311383Y-80993802D01*
X149218202Y-81086983D01*
X149218200Y-81086986D01*
X149152308Y-81201112D01*
X149118200Y-81328408D01*
X129106500Y-81328408D01*
X129106500Y-80045708D01*
X135029500Y-80045708D01*
X135029500Y-80177491D01*
X135063608Y-80304787D01*
X135096554Y-80361850D01*
X135129500Y-80418914D01*
X135222686Y-80512100D01*
X135336814Y-80577992D01*
X135464108Y-80612100D01*
X135464110Y-80612100D01*
X135595890Y-80612100D01*
X135595892Y-80612100D01*
X135723186Y-80577992D01*
X135837314Y-80512100D01*
X135930500Y-80418914D01*
X135996392Y-80304786D01*
X136030500Y-80177492D01*
X136030500Y-80045708D01*
X137142100Y-80045708D01*
X137142100Y-80177491D01*
X137176208Y-80304787D01*
X137209154Y-80361850D01*
X137242100Y-80418914D01*
X137335286Y-80512100D01*
X137449414Y-80577992D01*
X137576708Y-80612100D01*
X137576710Y-80612100D01*
X137708490Y-80612100D01*
X137708492Y-80612100D01*
X137835786Y-80577992D01*
X137949914Y-80512100D01*
X138043100Y-80418914D01*
X138108992Y-80304786D01*
X138143100Y-80177492D01*
X138143100Y-80045708D01*
X138108992Y-79918414D01*
X138043100Y-79804286D01*
X137949914Y-79711100D01*
X137892850Y-79678154D01*
X137835787Y-79645208D01*
X137772139Y-79628154D01*
X137708492Y-79611100D01*
X137576708Y-79611100D01*
X137449412Y-79645208D01*
X137335286Y-79711100D01*
X137335283Y-79711102D01*
X137242102Y-79804283D01*
X137242100Y-79804286D01*
X137176208Y-79918412D01*
X137142100Y-80045708D01*
X136030500Y-80045708D01*
X135996392Y-79918414D01*
X135930500Y-79804286D01*
X135837314Y-79711100D01*
X135780250Y-79678154D01*
X135723187Y-79645208D01*
X135659539Y-79628154D01*
X135595892Y-79611100D01*
X135464108Y-79611100D01*
X135336812Y-79645208D01*
X135222686Y-79711100D01*
X135222683Y-79711102D01*
X135129502Y-79804283D01*
X135129500Y-79804286D01*
X135063608Y-79918412D01*
X135029500Y-80045708D01*
X129106500Y-80045708D01*
X129106500Y-76852038D01*
X133019500Y-76852038D01*
X133019500Y-76852505D01*
X133019500Y-77103962D01*
X133028264Y-77159297D01*
X133058910Y-77352785D01*
X133136760Y-77592383D01*
X133215413Y-77746747D01*
X133237396Y-77789891D01*
X133251132Y-77816848D01*
X133399201Y-78020649D01*
X133399205Y-78020654D01*
X133577345Y-78198794D01*
X133577350Y-78198798D01*
X133755117Y-78327952D01*
X133781155Y-78346870D01*
X133924184Y-78419747D01*
X134005616Y-78461239D01*
X134005618Y-78461239D01*
X134005621Y-78461241D01*
X134245215Y-78539090D01*
X134494038Y-78578500D01*
X134494039Y-78578500D01*
X134745961Y-78578500D01*
X134745962Y-78578500D01*
X134994785Y-78539090D01*
X135234379Y-78461241D01*
X135458845Y-78346870D01*
X135662656Y-78198793D01*
X135840793Y-78020656D01*
X135988870Y-77816845D01*
X136069750Y-77658108D01*
X145041500Y-77658108D01*
X145041500Y-77789892D01*
X145075529Y-77916892D01*
X145075609Y-77917188D01*
X145075609Y-77917189D01*
X145111584Y-77979500D01*
X145128057Y-78047401D01*
X145111584Y-78103500D01*
X145075609Y-78165810D01*
X145075609Y-78165811D01*
X145075609Y-78165812D01*
X145075608Y-78165814D01*
X145041500Y-78293108D01*
X145041500Y-78424892D01*
X145075529Y-78551892D01*
X145075609Y-78552188D01*
X145075609Y-78552189D01*
X145111584Y-78614500D01*
X145128057Y-78682401D01*
X145111584Y-78738500D01*
X145075609Y-78800810D01*
X145075609Y-78800811D01*
X145075609Y-78800812D01*
X145075608Y-78800814D01*
X145058276Y-78865500D01*
X145041500Y-78928108D01*
X145041500Y-79059891D01*
X145075608Y-79187187D01*
X145108554Y-79244250D01*
X145141500Y-79301314D01*
X145234686Y-79394500D01*
X145348814Y-79460392D01*
X145476108Y-79494500D01*
X145476110Y-79494500D01*
X145607890Y-79494500D01*
X145607892Y-79494500D01*
X145735186Y-79460392D01*
X145849314Y-79394500D01*
X145942500Y-79301314D01*
X146008392Y-79187186D01*
X146042500Y-79059892D01*
X146042500Y-78928108D01*
X146008392Y-78800814D01*
X145972414Y-78738499D01*
X145955942Y-78670601D01*
X145972415Y-78614499D01*
X145979233Y-78602691D01*
X146008392Y-78552186D01*
X146042500Y-78424892D01*
X146042500Y-78293108D01*
X146008392Y-78165814D01*
X145972414Y-78103499D01*
X145955942Y-78035601D01*
X145972415Y-77979499D01*
X145979233Y-77967691D01*
X146008392Y-77917186D01*
X146042500Y-77789892D01*
X146042500Y-77785108D01*
X148089500Y-77785108D01*
X148089500Y-77916892D01*
X148122888Y-78041500D01*
X148123609Y-78044188D01*
X148123609Y-78044189D01*
X148159584Y-78106500D01*
X148176057Y-78174401D01*
X148159584Y-78230500D01*
X148123609Y-78292810D01*
X148123609Y-78292811D01*
X148123609Y-78292812D01*
X148123608Y-78292814D01*
X148089500Y-78420108D01*
X148089500Y-78551892D01*
X148122888Y-78676500D01*
X148123609Y-78679188D01*
X148123609Y-78679189D01*
X148159584Y-78741500D01*
X148176057Y-78809401D01*
X148159584Y-78865500D01*
X148123609Y-78927810D01*
X148123609Y-78927811D01*
X148123609Y-78927812D01*
X148123608Y-78927814D01*
X148107884Y-78986499D01*
X148089500Y-79055108D01*
X148089500Y-79186891D01*
X148123608Y-79314187D01*
X148156554Y-79371250D01*
X148189500Y-79428314D01*
X148282686Y-79521500D01*
X148396814Y-79587392D01*
X148524108Y-79621500D01*
X148524110Y-79621500D01*
X148655890Y-79621500D01*
X148655892Y-79621500D01*
X148783186Y-79587392D01*
X148897314Y-79521500D01*
X148990500Y-79428314D01*
X149056392Y-79314186D01*
X149090500Y-79186892D01*
X149090500Y-79055108D01*
X149056392Y-78927814D01*
X149020414Y-78865499D01*
X149003942Y-78797601D01*
X149020415Y-78741499D01*
X149022147Y-78738500D01*
X149056392Y-78679186D01*
X149090500Y-78551892D01*
X149090500Y-78420108D01*
X149056392Y-78292814D01*
X149020414Y-78230499D01*
X149003942Y-78162601D01*
X149020415Y-78106499D01*
X149022147Y-78103500D01*
X149056392Y-78044186D01*
X149090500Y-77916892D01*
X149090500Y-77785108D01*
X150629500Y-77785108D01*
X150629500Y-77916892D01*
X150662888Y-78041500D01*
X150663609Y-78044188D01*
X150663609Y-78044189D01*
X150699584Y-78106500D01*
X150716057Y-78174401D01*
X150699584Y-78230500D01*
X150663609Y-78292810D01*
X150663609Y-78292811D01*
X150663609Y-78292812D01*
X150663608Y-78292814D01*
X150629500Y-78420108D01*
X150629500Y-78551892D01*
X150636630Y-78578500D01*
X150663608Y-78679187D01*
X150665464Y-78682401D01*
X150729500Y-78793314D01*
X150822686Y-78886500D01*
X150936814Y-78952392D01*
X151064108Y-78986500D01*
X151064110Y-78986500D01*
X151195890Y-78986500D01*
X151195892Y-78986500D01*
X151323186Y-78952392D01*
X151354206Y-78934482D01*
X151422103Y-78918009D01*
X151478207Y-78934482D01*
X151483083Y-78937297D01*
X151483086Y-78937300D01*
X151597214Y-79003192D01*
X151724508Y-79037300D01*
X151724510Y-79037300D01*
X151856290Y-79037300D01*
X151856292Y-79037300D01*
X151983586Y-79003192D01*
X152097714Y-78937300D01*
X152190900Y-78844114D01*
X152256792Y-78729986D01*
X152290900Y-78602692D01*
X152290900Y-78470908D01*
X152256792Y-78343614D01*
X152220814Y-78281299D01*
X152204342Y-78213401D01*
X152220815Y-78157299D01*
X152251876Y-78103501D01*
X152256792Y-78094986D01*
X152290900Y-77967692D01*
X152290900Y-77835908D01*
X152277288Y-77785108D01*
X155074500Y-77785108D01*
X155074500Y-77916892D01*
X155107888Y-78041500D01*
X155108609Y-78044188D01*
X155108609Y-78044189D01*
X155144584Y-78106500D01*
X155161057Y-78174401D01*
X155144584Y-78230500D01*
X155108609Y-78292810D01*
X155108609Y-78292811D01*
X155108609Y-78292812D01*
X155108608Y-78292814D01*
X155074500Y-78420108D01*
X155074500Y-78551892D01*
X155107888Y-78676500D01*
X155108609Y-78679188D01*
X155108609Y-78679189D01*
X155144584Y-78741500D01*
X155161057Y-78809401D01*
X155144584Y-78865500D01*
X155108609Y-78927810D01*
X155108609Y-78927811D01*
X155108609Y-78927812D01*
X155108608Y-78927814D01*
X155092884Y-78986499D01*
X155074500Y-79055108D01*
X155074500Y-79186891D01*
X155108608Y-79314187D01*
X155141554Y-79371250D01*
X155174500Y-79428314D01*
X155267686Y-79521500D01*
X155381814Y-79587392D01*
X155509108Y-79621500D01*
X155509110Y-79621500D01*
X155640890Y-79621500D01*
X155640892Y-79621500D01*
X155768186Y-79587392D01*
X155882314Y-79521500D01*
X155975500Y-79428314D01*
X156041392Y-79314186D01*
X156075500Y-79186892D01*
X156075500Y-79055108D01*
X156041392Y-78927814D01*
X156005414Y-78865499D01*
X155988942Y-78797601D01*
X156005415Y-78741499D01*
X156007147Y-78738500D01*
X156041392Y-78679186D01*
X156075500Y-78551892D01*
X156075500Y-78420108D01*
X156041392Y-78292814D01*
X156005414Y-78230499D01*
X155988942Y-78162601D01*
X156005415Y-78106499D01*
X156007147Y-78103500D01*
X156041392Y-78044186D01*
X156075500Y-77916892D01*
X156075500Y-77785108D01*
X156041392Y-77657814D01*
X155975500Y-77543686D01*
X155882314Y-77450500D01*
X155823741Y-77416683D01*
X155768187Y-77384608D01*
X155746167Y-77378708D01*
X157309700Y-77378708D01*
X157309700Y-77510492D01*
X157318594Y-77543686D01*
X157343808Y-77637787D01*
X157355370Y-77657812D01*
X157409700Y-77751914D01*
X157502886Y-77845100D01*
X157617014Y-77910992D01*
X157744308Y-77945100D01*
X157744310Y-77945100D01*
X157876090Y-77945100D01*
X157876092Y-77945100D01*
X158003386Y-77910992D01*
X158117514Y-77845100D01*
X158210700Y-77751914D01*
X158276592Y-77637786D01*
X158310700Y-77510492D01*
X158310700Y-77378708D01*
X158276592Y-77251414D01*
X158210700Y-77137286D01*
X158117514Y-77044100D01*
X158060450Y-77011154D01*
X158003387Y-76978208D01*
X157987109Y-76973846D01*
X157876092Y-76944100D01*
X157744308Y-76944100D01*
X157617012Y-76978208D01*
X157502886Y-77044100D01*
X157502883Y-77044102D01*
X157409702Y-77137283D01*
X157409700Y-77137286D01*
X157343808Y-77251412D01*
X157324493Y-77323500D01*
X157309700Y-77378708D01*
X155746167Y-77378708D01*
X155704539Y-77367554D01*
X155640892Y-77350500D01*
X155509108Y-77350500D01*
X155381812Y-77384608D01*
X155267686Y-77450500D01*
X155267683Y-77450502D01*
X155174502Y-77543683D01*
X155174500Y-77543686D01*
X155108608Y-77657812D01*
X155094997Y-77708612D01*
X155074500Y-77785108D01*
X152277288Y-77785108D01*
X152256792Y-77708614D01*
X152190900Y-77594486D01*
X152097714Y-77501300D01*
X152014607Y-77453318D01*
X151983587Y-77435408D01*
X151913703Y-77416683D01*
X151856292Y-77401300D01*
X151724508Y-77401300D01*
X151597214Y-77435408D01*
X151597209Y-77435410D01*
X151566191Y-77453318D01*
X151498291Y-77469789D01*
X151442192Y-77453317D01*
X151437315Y-77450501D01*
X151437314Y-77450500D01*
X151377910Y-77416203D01*
X151323187Y-77384608D01*
X151259539Y-77367554D01*
X151195892Y-77350500D01*
X151064108Y-77350500D01*
X150936812Y-77384608D01*
X150822686Y-77450500D01*
X150822683Y-77450502D01*
X150729502Y-77543683D01*
X150729500Y-77543686D01*
X150663608Y-77657812D01*
X150649997Y-77708612D01*
X150629500Y-77785108D01*
X149090500Y-77785108D01*
X149056392Y-77657814D01*
X148990500Y-77543686D01*
X148897314Y-77450500D01*
X148838741Y-77416683D01*
X148783187Y-77384608D01*
X148719539Y-77367554D01*
X148655892Y-77350500D01*
X148524108Y-77350500D01*
X148396812Y-77384608D01*
X148282686Y-77450500D01*
X148282683Y-77450502D01*
X148189502Y-77543683D01*
X148189500Y-77543686D01*
X148123608Y-77657812D01*
X148109997Y-77708612D01*
X148089500Y-77785108D01*
X146042500Y-77785108D01*
X146042500Y-77658108D01*
X146008392Y-77530814D01*
X145942500Y-77416686D01*
X145849314Y-77323500D01*
X145792250Y-77290554D01*
X145735187Y-77257608D01*
X145671539Y-77240554D01*
X145607892Y-77223500D01*
X145476108Y-77223500D01*
X145348812Y-77257608D01*
X145234686Y-77323500D01*
X145234683Y-77323502D01*
X145141502Y-77416683D01*
X145141500Y-77416686D01*
X145075608Y-77530812D01*
X145058548Y-77594483D01*
X145041500Y-77658108D01*
X136069750Y-77658108D01*
X136103241Y-77592379D01*
X136181090Y-77352785D01*
X136220500Y-77103962D01*
X136220500Y-76852038D01*
X136187250Y-76642108D01*
X141231500Y-76642108D01*
X141231500Y-76773891D01*
X141265608Y-76901187D01*
X141290384Y-76944100D01*
X141331500Y-77015314D01*
X141424686Y-77108500D01*
X141538814Y-77174392D01*
X141666108Y-77208500D01*
X141666110Y-77208500D01*
X141797890Y-77208500D01*
X141797892Y-77208500D01*
X141925186Y-77174392D01*
X142039314Y-77108500D01*
X142132500Y-77015314D01*
X142198392Y-76901186D01*
X142232500Y-76773892D01*
X142232500Y-76642108D01*
X142198392Y-76514814D01*
X142132500Y-76400686D01*
X142039314Y-76307500D01*
X141982250Y-76274554D01*
X141925187Y-76241608D01*
X141861539Y-76224554D01*
X141797892Y-76207500D01*
X141666108Y-76207500D01*
X141538812Y-76241608D01*
X141424686Y-76307500D01*
X141424683Y-76307502D01*
X141331502Y-76400683D01*
X141331500Y-76400686D01*
X141265608Y-76514812D01*
X141231500Y-76642108D01*
X136187250Y-76642108D01*
X136181090Y-76603215D01*
X136168871Y-76565610D01*
X136108335Y-76379299D01*
X136103241Y-76363621D01*
X136103239Y-76363618D01*
X136103239Y-76363616D01*
X135988870Y-76139155D01*
X135976890Y-76122666D01*
X135976889Y-76122663D01*
X135929842Y-76057908D01*
X142984100Y-76057908D01*
X142984100Y-76189692D01*
X143015666Y-76307500D01*
X143018209Y-76316988D01*
X143018209Y-76316989D01*
X143054184Y-76379300D01*
X143070657Y-76447201D01*
X143054184Y-76503300D01*
X143018209Y-76565610D01*
X143018209Y-76565611D01*
X143018209Y-76565612D01*
X143018208Y-76565614D01*
X142984100Y-76692908D01*
X142984100Y-76824692D01*
X143001154Y-76888339D01*
X143018208Y-76951987D01*
X143026842Y-76966941D01*
X143084100Y-77066114D01*
X143177286Y-77159300D01*
X143291414Y-77225192D01*
X143418708Y-77259300D01*
X143418710Y-77259300D01*
X143550490Y-77259300D01*
X143550492Y-77259300D01*
X143677786Y-77225192D01*
X143740100Y-77189214D01*
X143807999Y-77172742D01*
X143864099Y-77189214D01*
X143926414Y-77225192D01*
X144053708Y-77259300D01*
X144053710Y-77259300D01*
X144185490Y-77259300D01*
X144185492Y-77259300D01*
X144312786Y-77225192D01*
X144426914Y-77159300D01*
X144520100Y-77066114D01*
X144585992Y-76951986D01*
X144612773Y-76852038D01*
X163991500Y-76852038D01*
X163991500Y-76852505D01*
X163991500Y-77103962D01*
X164000264Y-77159297D01*
X164030910Y-77352785D01*
X164108760Y-77592383D01*
X164187413Y-77746747D01*
X164209396Y-77789891D01*
X164223132Y-77816848D01*
X164371201Y-78020649D01*
X164371205Y-78020654D01*
X164549345Y-78198794D01*
X164549350Y-78198798D01*
X164727117Y-78327952D01*
X164753155Y-78346870D01*
X164896184Y-78419747D01*
X164977616Y-78461239D01*
X164977618Y-78461239D01*
X164977621Y-78461241D01*
X165217215Y-78539090D01*
X165466038Y-78578500D01*
X165466039Y-78578500D01*
X165717961Y-78578500D01*
X165717962Y-78578500D01*
X165966785Y-78539090D01*
X166206379Y-78461241D01*
X166430845Y-78346870D01*
X166634656Y-78198793D01*
X166812793Y-78020656D01*
X166960870Y-77816845D01*
X167075241Y-77592379D01*
X167153090Y-77352785D01*
X167192500Y-77103962D01*
X167192500Y-76852038D01*
X167153090Y-76603215D01*
X167075241Y-76363621D01*
X167075239Y-76363618D01*
X167075239Y-76363616D01*
X167012221Y-76239937D01*
X166960870Y-76139155D01*
X166901841Y-76057908D01*
X166812798Y-75935350D01*
X166812794Y-75935345D01*
X166634654Y-75757205D01*
X166634649Y-75757201D01*
X166430848Y-75609132D01*
X166430847Y-75609131D01*
X166430845Y-75609130D01*
X166360747Y-75573413D01*
X166206383Y-75494760D01*
X165966785Y-75416910D01*
X165717962Y-75377500D01*
X165466038Y-75377500D01*
X165341626Y-75397205D01*
X165217214Y-75416910D01*
X164977616Y-75494760D01*
X164753151Y-75609132D01*
X164549350Y-75757201D01*
X164549345Y-75757205D01*
X164371205Y-75935345D01*
X164371201Y-75935350D01*
X164223132Y-76139151D01*
X164108760Y-76363616D01*
X164030910Y-76603214D01*
X164003877Y-76773891D01*
X163991500Y-76852038D01*
X144612773Y-76852038D01*
X144620100Y-76824692D01*
X144620100Y-76692908D01*
X144585992Y-76565614D01*
X144550014Y-76503299D01*
X144533542Y-76435401D01*
X144550015Y-76379299D01*
X144557753Y-76365898D01*
X144585992Y-76316986D01*
X144620100Y-76189692D01*
X144620100Y-76057908D01*
X144585992Y-75930614D01*
X144520100Y-75816486D01*
X144426914Y-75723300D01*
X144369850Y-75690354D01*
X144312787Y-75657408D01*
X144211247Y-75630201D01*
X144185492Y-75623300D01*
X144053708Y-75623300D01*
X143926414Y-75657408D01*
X143926413Y-75657408D01*
X143926411Y-75657409D01*
X143926410Y-75657409D01*
X143864100Y-75693384D01*
X143796199Y-75709857D01*
X143740100Y-75693384D01*
X143677789Y-75657409D01*
X143677786Y-75657408D01*
X143550492Y-75623300D01*
X143418708Y-75623300D01*
X143291412Y-75657408D01*
X143177286Y-75723300D01*
X143177283Y-75723302D01*
X143084102Y-75816483D01*
X143084100Y-75816486D01*
X143018208Y-75930612D01*
X143015905Y-75939208D01*
X142984100Y-76057908D01*
X135929842Y-76057908D01*
X135840798Y-75935350D01*
X135840794Y-75935345D01*
X135662654Y-75757205D01*
X135662649Y-75757201D01*
X135458848Y-75609132D01*
X135458847Y-75609131D01*
X135458845Y-75609130D01*
X135388747Y-75573413D01*
X135234383Y-75494760D01*
X135116667Y-75456512D01*
X135116666Y-75456511D01*
X134994787Y-75416910D01*
X134828903Y-75390636D01*
X134745962Y-75377500D01*
X134494038Y-75377500D01*
X134369626Y-75397205D01*
X134245214Y-75416910D01*
X134005616Y-75494760D01*
X133781151Y-75609132D01*
X133577350Y-75757201D01*
X133577345Y-75757205D01*
X133399205Y-75935345D01*
X133399201Y-75935350D01*
X133251132Y-76139151D01*
X133136760Y-76363616D01*
X133058910Y-76603214D01*
X133031877Y-76773891D01*
X133019500Y-76852038D01*
X129106500Y-76852038D01*
X129106500Y-76509690D01*
X129106649Y-76503608D01*
X129109999Y-76435401D01*
X129119600Y-76239900D01*
X129120225Y-76232178D01*
X129126887Y-76173042D01*
X129127433Y-76168855D01*
X129162299Y-75933787D01*
X129164054Y-75924449D01*
X129170727Y-75895209D01*
X129171256Y-75893001D01*
X129234171Y-75641817D01*
X129237695Y-75630201D01*
X129332761Y-75364499D01*
X129337412Y-75353271D01*
X129340516Y-75346708D01*
X159925900Y-75346708D01*
X159925900Y-75478492D01*
X159930259Y-75494759D01*
X159960008Y-75605787D01*
X159974098Y-75630191D01*
X160025900Y-75719914D01*
X160119086Y-75813100D01*
X160233214Y-75878992D01*
X160360508Y-75913100D01*
X160360510Y-75913100D01*
X160492290Y-75913100D01*
X160492292Y-75913100D01*
X160619586Y-75878992D01*
X160733714Y-75813100D01*
X160826900Y-75719914D01*
X160892792Y-75605786D01*
X160926900Y-75478492D01*
X160926900Y-75346708D01*
X160892792Y-75219414D01*
X160826900Y-75105286D01*
X160733714Y-75012100D01*
X160676650Y-74979154D01*
X160619587Y-74946208D01*
X160555939Y-74929154D01*
X160492292Y-74912100D01*
X160360508Y-74912100D01*
X160233212Y-74946208D01*
X160119086Y-75012100D01*
X160119083Y-75012102D01*
X160025902Y-75105283D01*
X160025900Y-75105286D01*
X159960008Y-75219412D01*
X159925900Y-75346708D01*
X129340516Y-75346708D01*
X129458061Y-75098172D01*
X129463783Y-75087468D01*
X129596933Y-74865312D01*
X129598067Y-74863464D01*
X129614061Y-74838010D01*
X129619408Y-74830189D01*
X129760932Y-74639361D01*
X129763535Y-74635976D01*
X129800666Y-74589414D01*
X129805683Y-74583516D01*
X129982597Y-74388318D01*
X129986755Y-74383951D01*
X131534026Y-72836680D01*
X158530353Y-72836680D01*
X158530353Y-72968463D01*
X158564461Y-73095759D01*
X158597407Y-73152822D01*
X158630353Y-73209886D01*
X158723539Y-73303072D01*
X158837667Y-73368964D01*
X158964961Y-73403072D01*
X158964963Y-73403072D01*
X159096743Y-73403072D01*
X159096745Y-73403072D01*
X159224039Y-73368964D01*
X159338167Y-73303072D01*
X159431353Y-73209886D01*
X159497245Y-73095758D01*
X159531353Y-72968464D01*
X159531353Y-72836680D01*
X159497245Y-72709386D01*
X159431353Y-72595258D01*
X159338167Y-72502072D01*
X159281103Y-72469126D01*
X159224040Y-72436180D01*
X159160392Y-72419126D01*
X159096745Y-72402072D01*
X158964961Y-72402072D01*
X158837665Y-72436180D01*
X158723539Y-72502072D01*
X158723536Y-72502074D01*
X158630355Y-72595255D01*
X158630353Y-72595258D01*
X158564461Y-72709384D01*
X158530353Y-72836680D01*
X131534026Y-72836680D01*
X132025517Y-72345189D01*
X132029905Y-72341012D01*
X132143456Y-72238097D01*
X132225555Y-72163688D01*
X132231465Y-72158662D01*
X132277975Y-72121573D01*
X132281276Y-72119032D01*
X132472226Y-71977417D01*
X132480065Y-71972060D01*
X132505309Y-71956198D01*
X132507410Y-71954909D01*
X132729478Y-71821809D01*
X132740182Y-71816088D01*
X132995294Y-71695433D01*
X133006498Y-71690792D01*
X133272205Y-71595724D01*
X133283842Y-71592195D01*
X133534962Y-71529296D01*
X133537318Y-71528732D01*
X133566438Y-71522085D01*
X133575777Y-71520330D01*
X133810832Y-71485465D01*
X133815074Y-71484912D01*
X133874175Y-71478254D01*
X133881907Y-71477628D01*
X134146208Y-71464648D01*
X134152269Y-71464500D01*
X166060310Y-71464500D01*
X166066392Y-71464649D01*
G37*
%TD.AperFunction*%
%TD*%
M02*
