%TF.GenerationSoftware,KiCad,Pcbnew,9.0.0*%
%TF.CreationDate,2025-04-19T21:29:44+08:00*%
%TF.ProjectId,Motor42,4d6f746f-7234-4322-9e6b-696361645f70,rev?*%
%TF.SameCoordinates,Original*%
%TF.FileFunction,Profile,NP*%
%FSLAX46Y46*%
G04 Gerber Fmt 4.6, Leading zero omitted, Abs format (unit mm)*
G04 Created by KiCad (PCBNEW 9.0.0) date 2025-04-19 21:29:44*
%MOMM*%
%LPD*%
G01*
G04 APERTURE LIST*
%TA.AperFunction,Profile*%
%ADD10C,0.050000*%
%TD*%
G04 APERTURE END LIST*
D10*
X129984680Y-110542680D02*
G75*
G02*
X129106029Y-108421359I2121320J2121280D01*
G01*
X171106000Y-108421359D02*
G75*
G02*
X170227299Y-110542659I-2999800J-41D01*
G01*
X166063359Y-71464000D02*
X134148641Y-71464000D01*
X129106000Y-76506641D02*
X129106000Y-108421359D01*
X166063359Y-71464000D02*
G75*
G02*
X168184700Y-72342660I41J-3000000D01*
G01*
X167192000Y-76978000D02*
G75*
G02*
X163992000Y-76978000I-1600000J0D01*
G01*
X163992000Y-76978000D02*
G75*
G02*
X167192000Y-76978000I1600000J0D01*
G01*
X167192000Y-107950000D02*
G75*
G02*
X163992000Y-107950000I-1600000J0D01*
G01*
X163992000Y-107950000D02*
G75*
G02*
X167192000Y-107950000I1600000J0D01*
G01*
X168184680Y-112585320D02*
X170227320Y-110542680D01*
X170227320Y-74385320D02*
G75*
G02*
X171105971Y-76506641I-2121320J-2121280D01*
G01*
X134148641Y-113464000D02*
X166063359Y-113464000D01*
X132027320Y-72342680D02*
X129984680Y-74385320D01*
X129984680Y-110542680D02*
X132027320Y-112585320D01*
X136220000Y-107950000D02*
G75*
G02*
X133020000Y-107950000I-1600000J0D01*
G01*
X133020000Y-107950000D02*
G75*
G02*
X136220000Y-107950000I1600000J0D01*
G01*
X132027320Y-72342680D02*
G75*
G02*
X134148641Y-71464029I2121280J-2121320D01*
G01*
X170227320Y-74385320D02*
X168184680Y-72342680D01*
X168184680Y-112585320D02*
G75*
G02*
X166063359Y-113463971I-2121280J2121320D01*
G01*
X129106000Y-76506641D02*
G75*
G02*
X129984660Y-74385300I3000000J41D01*
G01*
X171106000Y-108421359D02*
X171106000Y-76506641D01*
X134148641Y-113464000D02*
G75*
G02*
X132027300Y-112585340I-41J3000000D01*
G01*
X136220000Y-76978000D02*
G75*
G02*
X133020000Y-76978000I-1600000J0D01*
G01*
X133020000Y-76978000D02*
G75*
G02*
X136220000Y-76978000I1600000J0D01*
G01*
M02*
