%TF.GenerationSoftware,KiCad,Pcbnew,9.0.0*%
%TF.CreationDate,2025-04-19T21:29:44+08:00*%
%TF.ProjectId,Motor42,4d6f746f-7234-4322-9e6b-696361645f70,rev?*%
%TF.SameCoordinates,Original*%
%TF.FileFunction,Soldermask,Top*%
%TF.FilePolarity,Negative*%
%FSLAX46Y46*%
G04 Gerber Fmt 4.6, Leading zero omitted, Abs format (unit mm)*
G04 Created by KiCad (PCBNEW 9.0.0) date 2025-04-19 21:29:44*
%MOMM*%
%LPD*%
G01*
G04 APERTURE LIST*
G04 Aperture macros list*
%AMRoundRect*
0 Rectangle with rounded corners*
0 $1 Rounding radius*
0 $2 $3 $4 $5 $6 $7 $8 $9 X,Y pos of 4 corners*
0 Add a 4 corners polygon primitive as box body*
4,1,4,$2,$3,$4,$5,$6,$7,$8,$9,$2,$3,0*
0 Add four circle primitives for the rounded corners*
1,1,$1+$1,$2,$3*
1,1,$1+$1,$4,$5*
1,1,$1+$1,$6,$7*
1,1,$1+$1,$8,$9*
0 Add four rect primitives between the rounded corners*
20,1,$1+$1,$2,$3,$4,$5,0*
20,1,$1+$1,$4,$5,$6,$7,0*
20,1,$1+$1,$6,$7,$8,$9,0*
20,1,$1+$1,$8,$9,$2,$3,0*%
%AMFreePoly0*
4,1,23,0.500000,-0.750000,0.000000,-0.750000,0.000000,-0.745722,-0.065263,-0.745722,-0.191342,-0.711940,-0.304381,-0.646677,-0.396677,-0.554381,-0.461940,-0.441342,-0.495722,-0.315263,-0.495722,-0.250000,-0.500000,-0.250000,-0.500000,0.250000,-0.495722,0.250000,-0.495722,0.315263,-0.461940,0.441342,-0.396677,0.554381,-0.304381,0.646677,-0.191342,0.711940,-0.065263,0.745722,0.000000,0.745722,
0.000000,0.750000,0.500000,0.750000,0.500000,-0.750000,0.500000,-0.750000,$1*%
%AMFreePoly1*
4,1,23,0.000000,0.745722,0.065263,0.745722,0.191342,0.711940,0.304381,0.646677,0.396677,0.554381,0.461940,0.441342,0.495722,0.315263,0.495722,0.250000,0.500000,0.250000,0.500000,-0.250000,0.495722,-0.250000,0.495722,-0.315263,0.461940,-0.441342,0.396677,-0.554381,0.304381,-0.646677,0.191342,-0.711940,0.065263,-0.745722,0.000000,-0.745722,0.000000,-0.750000,-0.500000,-0.750000,
-0.500000,0.750000,0.000000,0.750000,0.000000,0.745722,0.000000,0.745722,$1*%
G04 Aperture macros list end*
%ADD10RoundRect,0.225000X0.225000X0.250000X-0.225000X0.250000X-0.225000X-0.250000X0.225000X-0.250000X0*%
%ADD11RoundRect,0.200000X-0.200000X-0.275000X0.200000X-0.275000X0.200000X0.275000X-0.200000X0.275000X0*%
%ADD12RoundRect,0.337500X-0.337500X-0.562500X0.337500X-0.562500X0.337500X0.562500X-0.337500X0.562500X0*%
%ADD13R,3.500000X1.000000*%
%ADD14R,3.500000X1.600000*%
%ADD15C,1.000000*%
%ADD16RoundRect,0.042000X0.258000X-0.943000X0.258000X0.943000X-0.258000X0.943000X-0.258000X-0.943000X0*%
%ADD17FreePoly0,270.000000*%
%ADD18FreePoly1,270.000000*%
%ADD19RoundRect,0.225000X-0.225000X-0.250000X0.225000X-0.250000X0.225000X0.250000X-0.225000X0.250000X0*%
%ADD20RoundRect,0.100000X-0.750000X0.150000X-0.750000X-0.150000X0.750000X-0.150000X0.750000X0.150000X0*%
%ADD21RoundRect,0.200000X-1.050000X0.400000X-1.050000X-0.400000X1.050000X-0.400000X1.050000X0.400000X0*%
%ADD22RoundRect,0.200000X0.200000X0.275000X-0.200000X0.275000X-0.200000X-0.275000X0.200000X-0.275000X0*%
%ADD23RoundRect,0.225000X0.250000X-0.225000X0.250000X0.225000X-0.250000X0.225000X-0.250000X-0.225000X0*%
%ADD24RoundRect,0.218750X0.256250X-0.218750X0.256250X0.218750X-0.256250X0.218750X-0.256250X-0.218750X0*%
%ADD25R,0.600000X1.300000*%
%ADD26RoundRect,0.100000X0.750000X-0.150000X0.750000X0.150000X-0.750000X0.150000X-0.750000X-0.150000X0*%
%ADD27RoundRect,0.200000X1.050000X-0.400000X1.050000X0.400000X-1.050000X0.400000X-1.050000X-0.400000X0*%
%ADD28R,1.000000X3.500000*%
%ADD29R,1.600000X3.500000*%
%ADD30RoundRect,0.200000X-0.275000X0.200000X-0.275000X-0.200000X0.275000X-0.200000X0.275000X0.200000X0*%
%ADD31RoundRect,0.225000X-0.250000X0.225000X-0.250000X-0.225000X0.250000X-0.225000X0.250000X0.225000X0*%
G04 APERTURE END LIST*
D10*
%TO.C,C31*%
X142888000Y-98442000D03*
X141338000Y-98442000D03*
%TD*%
D11*
%TO.C,R13*%
X158179000Y-101711000D03*
X159829000Y-101711000D03*
%TD*%
D12*
%TO.C,S1*%
X143950800Y-110947200D03*
X148250800Y-110947200D03*
%TD*%
D13*
%TO.C,J5*%
X136271000Y-90425000D03*
X136271000Y-92425000D03*
X136271000Y-94425000D03*
X136271000Y-96425000D03*
X136271000Y-98425000D03*
X136271000Y-100425000D03*
D14*
X130571000Y-88025000D03*
X130571000Y-102825000D03*
%TD*%
D15*
%TO.C,TP2*%
X150876000Y-95885000D03*
%TD*%
D16*
%TO.C,U4*%
X155829000Y-98278000D03*
X157099000Y-98278000D03*
X158369000Y-98278000D03*
X159639000Y-98278000D03*
X159639000Y-93338000D03*
X158369000Y-93338000D03*
X157099000Y-93338000D03*
X155829000Y-93338000D03*
%TD*%
D17*
%TO.C,JP1*%
X140081000Y-92187000D03*
D18*
X140081000Y-93487000D03*
%TD*%
D19*
%TO.C,C32*%
X144309800Y-98450400D03*
X145859800Y-98450400D03*
%TD*%
D15*
%TO.C,TP1*%
X149352000Y-95885000D03*
%TD*%
D19*
%TO.C,C12*%
X155231800Y-103260400D03*
X156781800Y-103260400D03*
%TD*%
D11*
%TO.C,R21*%
X155131000Y-91363000D03*
X156781000Y-91363000D03*
%TD*%
D20*
%TO.C,J3*%
X166653000Y-83244000D03*
X166653000Y-84244000D03*
D21*
X170053000Y-82144000D03*
X170053000Y-85344000D03*
%TD*%
D19*
%TO.C,C13*%
X144399000Y-101203000D03*
X145949000Y-101203000D03*
%TD*%
D22*
%TO.C,R9*%
X152463000Y-97917000D03*
X150813000Y-97917000D03*
%TD*%
D23*
%TO.C,C34*%
X154305000Y-94983600D03*
X154305000Y-93433600D03*
%TD*%
D22*
%TO.C,R14*%
X143052000Y-101203000D03*
X141402000Y-101203000D03*
%TD*%
D24*
%TO.C,D8*%
X160844400Y-74244300D03*
X160844400Y-72669300D03*
%TD*%
D11*
%TO.C,R11*%
X155220400Y-101736400D03*
X156870400Y-101736400D03*
%TD*%
D12*
%TO.C,S2*%
X151977200Y-110947200D03*
X156277200Y-110947200D03*
%TD*%
D25*
%TO.C,U3*%
X141986000Y-96757000D03*
X143256000Y-96757000D03*
X144526000Y-96757000D03*
X145796000Y-96757000D03*
X145796000Y-91457000D03*
X144526000Y-91457000D03*
X143256000Y-91457000D03*
X141986000Y-91457000D03*
%TD*%
D26*
%TO.C,J7*%
X133599000Y-84193000D03*
X133599000Y-83193000D03*
D27*
X130199000Y-85293000D03*
X130199000Y-82093000D03*
%TD*%
D10*
%TO.C,C14*%
X159803000Y-103235000D03*
X158253000Y-103235000D03*
%TD*%
D13*
%TO.C,J6*%
X164006595Y-100430905D03*
X164006595Y-98430905D03*
X164006595Y-96430905D03*
X164006595Y-94430905D03*
X164006595Y-92430905D03*
X164006595Y-90430905D03*
D14*
X169706595Y-102830905D03*
X169706595Y-88030905D03*
%TD*%
D28*
%TO.C,J4*%
X155117105Y-78690405D03*
X153117105Y-78690405D03*
X151117105Y-78690405D03*
X149117105Y-78690405D03*
X147117105Y-78690405D03*
X145117105Y-78690405D03*
D29*
X157517105Y-72990405D03*
X142717105Y-72990405D03*
%TD*%
D30*
%TO.C,R22*%
X140081000Y-95174000D03*
X140081000Y-96824000D03*
%TD*%
D15*
%TO.C,TP3*%
X152400000Y-95885000D03*
%TD*%
D22*
%TO.C,R20*%
X159781500Y-91363000D03*
X158131500Y-91363000D03*
%TD*%
D19*
%TO.C,C15*%
X141452000Y-102727000D03*
X143002000Y-102727000D03*
%TD*%
D22*
%TO.C,R12*%
X145986000Y-102727000D03*
X144336000Y-102727000D03*
%TD*%
D31*
%TO.C,C33*%
X154305000Y-96443000D03*
X154305000Y-97993000D03*
%TD*%
M02*
