%TF.GenerationSoftware,KiCad,Pcbnew,9.0.0*%
%TF.CreationDate,2025-04-19T21:29:44+08:00*%
%TF.ProjectId,Motor42,4d6f746f-7234-4322-9e6b-696361645f70,rev?*%
%TF.SameCoordinates,Original*%
%TF.FileFunction,Legend,Top*%
%TF.FilePolarity,Positive*%
%FSLAX46Y46*%
G04 Gerber Fmt 4.6, Leading zero omitted, Abs format (unit mm)*
G04 Created by KiCad (PCBNEW 9.0.0) date 2025-04-19 21:29:44*
%MOMM*%
%LPD*%
G01*
G04 APERTURE LIST*
%ADD10C,0.125000*%
%ADD11C,0.317500*%
%ADD12C,0.200000*%
%ADD13C,0.100000*%
%ADD14C,0.160000*%
%ADD15C,0.120000*%
%ADD16C,0.400000*%
%ADD17C,0.127000*%
%ADD18C,0.203200*%
G04 APERTURE END LIST*
D10*
G36*
X141945216Y-89069000D02*
G01*
X141834696Y-89069000D01*
X141790732Y-88951763D01*
X141589354Y-88951763D01*
X141547833Y-89069000D01*
X141440000Y-89069000D01*
X141518451Y-88865789D01*
X141620617Y-88865789D01*
X141758004Y-88865789D01*
X141688639Y-88686027D01*
X141620617Y-88865789D01*
X141518451Y-88865789D01*
X141636127Y-88560974D01*
X141743593Y-88560974D01*
X141945216Y-89069000D01*
G37*
G36*
X141995530Y-89069000D02*
G01*
X141995530Y-88560974D01*
X142092128Y-88560974D01*
X142092128Y-89069000D01*
X141995530Y-89069000D01*
G37*
G36*
X142346742Y-88695830D02*
G01*
X142373265Y-88703174D01*
X142397519Y-88715929D01*
X142419507Y-88734096D01*
X142433824Y-88750385D01*
X142433824Y-88701658D01*
X142524193Y-88701658D01*
X142524193Y-89030898D01*
X142523685Y-89057749D01*
X142521859Y-89084588D01*
X142518217Y-89109872D01*
X142513569Y-89127984D01*
X142503505Y-89151802D01*
X142489467Y-89172359D01*
X142483649Y-89178420D01*
X142462830Y-89193849D01*
X142440185Y-89204400D01*
X142432358Y-89207119D01*
X142408257Y-89213029D01*
X142382840Y-89216273D01*
X142357110Y-89217459D01*
X142351025Y-89217499D01*
X142323374Y-89216766D01*
X142298353Y-89214565D01*
X142271799Y-89209989D01*
X142245605Y-89201979D01*
X142221980Y-89189306D01*
X142219501Y-89187457D01*
X142200787Y-89169284D01*
X142187177Y-89146100D01*
X142181128Y-89119767D01*
X142180788Y-89111254D01*
X142181032Y-89100263D01*
X142291308Y-89115894D01*
X142302800Y-89137561D01*
X142304009Y-89138364D01*
X142327412Y-89145921D01*
X142347362Y-89147157D01*
X142373019Y-89145577D01*
X142397652Y-89139159D01*
X142404026Y-89135922D01*
X142420553Y-89117690D01*
X142423199Y-89111742D01*
X142427184Y-89087517D01*
X142427718Y-89067900D01*
X142427718Y-89015144D01*
X142410666Y-89033446D01*
X142388765Y-89050013D01*
X142364701Y-89061426D01*
X142338475Y-89067685D01*
X142318419Y-89069000D01*
X142291928Y-89066801D01*
X142267592Y-89060207D01*
X142245411Y-89049216D01*
X142225385Y-89033829D01*
X142207515Y-89014045D01*
X142202037Y-89006473D01*
X142188904Y-88983684D01*
X142178996Y-88958592D01*
X142172314Y-88931197D01*
X142169155Y-88905884D01*
X142168332Y-88883497D01*
X142168469Y-88879956D01*
X142267250Y-88879956D01*
X142268325Y-88905306D01*
X142272187Y-88930413D01*
X142279890Y-88953732D01*
X142289720Y-88970081D01*
X142308124Y-88987495D01*
X142331357Y-88997290D01*
X142345286Y-88998658D01*
X142370227Y-88994536D01*
X142392112Y-88982171D01*
X142405003Y-88969348D01*
X142417883Y-88948275D01*
X142425396Y-88924599D01*
X142428831Y-88899806D01*
X142429427Y-88882520D01*
X142428305Y-88857718D01*
X142424275Y-88833007D01*
X142416238Y-88809843D01*
X142405980Y-88793371D01*
X142386752Y-88775586D01*
X142364054Y-88766009D01*
X142346995Y-88764184D01*
X142322684Y-88768203D01*
X142300183Y-88781626D01*
X142289720Y-88792761D01*
X142276927Y-88815957D01*
X142270410Y-88840216D01*
X142267601Y-88865770D01*
X142267250Y-88879956D01*
X142168469Y-88879956D01*
X142169408Y-88855745D01*
X142172637Y-88830117D01*
X142179353Y-88802164D01*
X142189169Y-88777269D01*
X142202085Y-88755430D01*
X142212418Y-88742569D01*
X142232781Y-88723583D01*
X142255190Y-88709260D01*
X142279644Y-88699600D01*
X142306144Y-88694604D01*
X142322205Y-88693842D01*
X142346742Y-88695830D01*
G37*
G36*
X142808113Y-88695160D02*
G01*
X142836357Y-88700221D01*
X142862498Y-88709076D01*
X142886535Y-88721727D01*
X142908468Y-88738174D01*
X142918646Y-88747820D01*
X142936616Y-88769066D01*
X142950869Y-88792322D01*
X142961403Y-88817587D01*
X142968219Y-88844861D01*
X142971060Y-88869124D01*
X142971524Y-88884352D01*
X142970218Y-88909611D01*
X142965204Y-88938096D01*
X142956428Y-88964589D01*
X142943892Y-88989089D01*
X142927594Y-89011598D01*
X142918035Y-89022105D01*
X142897052Y-89040698D01*
X142874129Y-89055444D01*
X142849265Y-89066343D01*
X142822460Y-89073396D01*
X142793715Y-89076602D01*
X142783702Y-89076815D01*
X142758896Y-89075396D01*
X142734670Y-89071137D01*
X142711024Y-89064038D01*
X142687958Y-89054101D01*
X142666602Y-89041362D01*
X142645825Y-89023874D01*
X142628486Y-89003044D01*
X142618838Y-88987300D01*
X142608473Y-88964120D01*
X142601069Y-88938543D01*
X142597020Y-88914198D01*
X142595239Y-88888017D01*
X142595207Y-88885329D01*
X142694064Y-88885329D01*
X142695675Y-88912982D01*
X142700506Y-88937200D01*
X142709792Y-88960340D01*
X142719832Y-88975332D01*
X142738961Y-88993062D01*
X142763056Y-89004010D01*
X142783335Y-89006473D01*
X142807835Y-89002794D01*
X142831271Y-88990386D01*
X142846594Y-88975332D01*
X142860118Y-88953038D01*
X142868007Y-88928262D01*
X142871613Y-88902493D01*
X142872240Y-88884596D01*
X142870637Y-88857271D01*
X142865828Y-88833305D01*
X142856587Y-88810357D01*
X142846594Y-88795448D01*
X142827604Y-88777648D01*
X142803595Y-88766657D01*
X142783335Y-88764184D01*
X142758806Y-88767879D01*
X142735273Y-88780335D01*
X142719832Y-88795448D01*
X142706244Y-88817606D01*
X142698317Y-88842157D01*
X142694693Y-88867646D01*
X142694064Y-88885329D01*
X142595207Y-88885329D01*
X142595146Y-88880200D01*
X142597020Y-88853248D01*
X142602642Y-88826799D01*
X142610786Y-88803711D01*
X142618838Y-88786655D01*
X142631920Y-88765398D01*
X142649593Y-88744677D01*
X142670397Y-88727338D01*
X142686004Y-88717656D01*
X142708368Y-88707238D01*
X142731983Y-88699796D01*
X142756850Y-88695331D01*
X142782969Y-88693842D01*
X142808113Y-88695160D01*
G37*
G36*
X143137243Y-89069000D02*
G01*
X143040767Y-89069000D01*
X143040767Y-88701658D01*
X143130404Y-88701658D01*
X143130404Y-88753560D01*
X143144300Y-88733054D01*
X143161010Y-88713779D01*
X143171681Y-88705322D01*
X143195344Y-88695737D01*
X143213569Y-88693842D01*
X143237955Y-88696625D01*
X143261654Y-88704971D01*
X143277072Y-88713626D01*
X143247152Y-88803508D01*
X143225033Y-88792112D01*
X143201845Y-88787632D01*
X143177868Y-88792365D01*
X143167407Y-88798623D01*
X143152190Y-88819278D01*
X143145303Y-88838312D01*
X143140714Y-88865390D01*
X143138786Y-88890360D01*
X143137747Y-88916554D01*
X143137314Y-88941760D01*
X143137243Y-88958357D01*
X143137243Y-89069000D01*
G37*
G36*
X143316884Y-88646948D02*
G01*
X143316884Y-88560974D01*
X143413482Y-88560974D01*
X143413482Y-88646948D01*
X143316884Y-88646948D01*
G37*
G36*
X143316884Y-89069000D02*
G01*
X143316884Y-88701658D01*
X143413482Y-88701658D01*
X143413482Y-89069000D01*
X143316884Y-89069000D01*
G37*
G36*
X143678607Y-88701658D02*
G01*
X143678607Y-88772000D01*
X143612662Y-88772000D01*
X143612662Y-88931491D01*
X143612841Y-88957845D01*
X143613780Y-88982572D01*
X143614494Y-88988033D01*
X143623164Y-89001344D01*
X143639406Y-89006473D01*
X143663534Y-89002087D01*
X143678241Y-88997192D01*
X143686545Y-89064115D01*
X143662334Y-89071346D01*
X143636044Y-89075575D01*
X143610341Y-89076815D01*
X143585490Y-89074556D01*
X143563203Y-89067778D01*
X143541392Y-89054431D01*
X143532428Y-89044453D01*
X143522182Y-89021335D01*
X143518872Y-89005741D01*
X143516583Y-88979576D01*
X143515927Y-88954262D01*
X143515819Y-88935765D01*
X143515819Y-88772000D01*
X143471489Y-88772000D01*
X143471489Y-88701658D01*
X143515819Y-88701658D01*
X143515819Y-88631316D01*
X143612662Y-88576606D01*
X143612662Y-88701658D01*
X143678607Y-88701658D01*
G37*
G36*
X143840540Y-88560974D02*
G01*
X143840540Y-88745866D01*
X143858678Y-88728186D01*
X143881467Y-88712183D01*
X143906009Y-88701158D01*
X143932304Y-88695113D01*
X143952159Y-88693842D01*
X143978159Y-88695898D01*
X144001982Y-88702066D01*
X144012243Y-88706299D01*
X144034418Y-88719479D01*
X144051683Y-88736851D01*
X144052543Y-88738050D01*
X144064533Y-88759758D01*
X144071106Y-88780915D01*
X144074528Y-88806410D01*
X144075873Y-88833428D01*
X144076113Y-88853822D01*
X144076113Y-89069000D01*
X143979637Y-89069000D01*
X143979637Y-88872628D01*
X143979293Y-88846105D01*
X143977898Y-88820443D01*
X143974141Y-88798501D01*
X143960411Y-88777836D01*
X143954724Y-88773466D01*
X143931115Y-88764919D01*
X143919919Y-88764184D01*
X143894477Y-88767971D01*
X143876933Y-88776152D01*
X143858845Y-88793304D01*
X143849211Y-88811934D01*
X143843284Y-88837272D01*
X143840955Y-88863347D01*
X143840540Y-88882764D01*
X143840540Y-89069000D01*
X143744064Y-89069000D01*
X143744064Y-88560974D01*
X143840540Y-88560974D01*
G37*
G36*
X144164528Y-88701658D02*
G01*
X144253555Y-88701658D01*
X144253555Y-88751484D01*
X144272101Y-88731895D01*
X144291926Y-88716359D01*
X144316672Y-88703356D01*
X144343160Y-88695869D01*
X144367250Y-88693842D01*
X144392231Y-88695783D01*
X144416349Y-88702265D01*
X144428066Y-88707642D01*
X144448837Y-88722322D01*
X144464942Y-88740808D01*
X144470321Y-88749163D01*
X144488896Y-88730273D01*
X144508537Y-88715366D01*
X144522222Y-88707642D01*
X144545450Y-88698707D01*
X144569887Y-88694328D01*
X144581573Y-88693842D01*
X144607738Y-88695791D01*
X144632957Y-88702359D01*
X144649595Y-88710329D01*
X144669880Y-88726164D01*
X144685489Y-88747079D01*
X144691116Y-88758445D01*
X144697600Y-88782293D01*
X144700338Y-88807165D01*
X144701130Y-88834404D01*
X144701130Y-89069000D01*
X144604532Y-89069000D01*
X144604532Y-88856630D01*
X144603906Y-88831420D01*
X144601363Y-88806798D01*
X144594518Y-88785189D01*
X144576273Y-88768800D01*
X144553363Y-88764184D01*
X144528929Y-88769098D01*
X144515139Y-88776763D01*
X144498210Y-88794662D01*
X144489371Y-88813766D01*
X144484311Y-88838167D01*
X144482174Y-88863273D01*
X144481556Y-88890580D01*
X144481556Y-89069000D01*
X144385080Y-89069000D01*
X144385080Y-88865301D01*
X144384759Y-88840594D01*
X144383272Y-88814474D01*
X144379951Y-88795325D01*
X144367209Y-88774479D01*
X144363953Y-88771878D01*
X144340254Y-88764372D01*
X144334644Y-88764184D01*
X144309698Y-88768533D01*
X144294466Y-88776519D01*
X144276823Y-88794852D01*
X144268820Y-88811812D01*
X144263561Y-88837828D01*
X144261607Y-88863538D01*
X144261127Y-88888382D01*
X144261127Y-89069000D01*
X144164528Y-89069000D01*
X144164528Y-88701658D01*
G37*
G36*
X143473386Y-85259432D02*
G01*
X143500309Y-85261042D01*
X143525058Y-85264191D01*
X143535393Y-85266302D01*
X143561172Y-85274158D01*
X143584471Y-85285211D01*
X143605289Y-85299460D01*
X143609154Y-85302694D01*
X143627854Y-85320852D01*
X143644020Y-85341376D01*
X143657652Y-85364266D01*
X143668750Y-85389522D01*
X143676458Y-85413328D01*
X143682274Y-85438583D01*
X143686196Y-85465287D01*
X143688224Y-85493440D01*
X143688533Y-85510178D01*
X143687891Y-85534872D01*
X143685582Y-85561548D01*
X143681594Y-85586575D01*
X143675100Y-85612760D01*
X143667004Y-85636685D01*
X143656581Y-85660413D01*
X143643379Y-85683042D01*
X143640784Y-85686766D01*
X143624555Y-85706996D01*
X143605695Y-85724958D01*
X143594988Y-85732928D01*
X143573034Y-85745191D01*
X143549726Y-85754150D01*
X143534782Y-85758329D01*
X143509361Y-85763265D01*
X143484098Y-85765975D01*
X143459606Y-85766966D01*
X143453938Y-85767000D01*
X143272221Y-85767000D01*
X143272221Y-85708381D01*
X143338900Y-85708381D01*
X143446367Y-85708381D01*
X143472693Y-85707637D01*
X143497957Y-85705066D01*
X143522733Y-85699556D01*
X143524524Y-85698978D01*
X143547118Y-85689277D01*
X143567558Y-85674585D01*
X143569709Y-85672478D01*
X143586001Y-85652099D01*
X143598340Y-85629314D01*
X143606590Y-85607753D01*
X143613025Y-85583516D01*
X143617353Y-85556555D01*
X143619433Y-85530303D01*
X143619901Y-85509201D01*
X143618987Y-85480381D01*
X143616243Y-85454189D01*
X143610731Y-85426953D01*
X143602729Y-85403292D01*
X143593889Y-85385859D01*
X143578438Y-85363861D01*
X143561208Y-85346364D01*
X143539980Y-85332203D01*
X143530875Y-85328095D01*
X143506214Y-85321695D01*
X143481677Y-85318834D01*
X143455520Y-85317685D01*
X143444657Y-85317593D01*
X143338900Y-85317593D01*
X143338900Y-85708381D01*
X143272221Y-85708381D01*
X143272221Y-85258974D01*
X143445756Y-85258974D01*
X143473386Y-85259432D01*
G37*
G36*
X143945708Y-85393633D02*
G01*
X143970306Y-85399004D01*
X143996616Y-85409795D01*
X144020354Y-85425461D01*
X144038655Y-85442767D01*
X144054426Y-85463319D01*
X144066934Y-85486782D01*
X144076179Y-85513156D01*
X144081391Y-85537358D01*
X144084337Y-85563581D01*
X144085062Y-85586016D01*
X144084817Y-85602868D01*
X143812731Y-85602868D01*
X143815524Y-85627252D01*
X143821894Y-85651900D01*
X143833110Y-85675523D01*
X143846681Y-85692872D01*
X143867305Y-85709294D01*
X143890864Y-85719634D01*
X143917356Y-85723891D01*
X143923006Y-85724013D01*
X143948958Y-85721090D01*
X143973255Y-85711406D01*
X143981014Y-85706305D01*
X143998909Y-85688431D01*
X144012493Y-85665742D01*
X144019116Y-85649763D01*
X144083108Y-85657579D01*
X144075250Y-85680750D01*
X144063249Y-85704312D01*
X144048028Y-85724759D01*
X144029586Y-85742093D01*
X144027054Y-85744041D01*
X144005187Y-85757505D01*
X143980495Y-85767122D01*
X143956574Y-85772381D01*
X143930490Y-85774695D01*
X143922640Y-85774815D01*
X143893808Y-85773076D01*
X143867302Y-85767860D01*
X143843123Y-85759166D01*
X143821272Y-85746994D01*
X143801747Y-85731345D01*
X143795756Y-85725356D01*
X143779819Y-85705363D01*
X143767180Y-85682572D01*
X143757837Y-85656981D01*
X143751792Y-85628590D01*
X143749273Y-85602793D01*
X143748861Y-85586382D01*
X143750018Y-85558503D01*
X143750882Y-85552066D01*
X143816150Y-85552066D01*
X144019849Y-85552066D01*
X144016325Y-85526913D01*
X144008791Y-85501366D01*
X143996524Y-85480014D01*
X143978518Y-85461950D01*
X143955272Y-85448812D01*
X143931435Y-85443229D01*
X143919953Y-85442645D01*
X143894639Y-85445555D01*
X143869852Y-85455478D01*
X143850098Y-85470609D01*
X143848268Y-85472443D01*
X143832695Y-85493022D01*
X143822155Y-85517513D01*
X143816972Y-85542900D01*
X143816150Y-85552066D01*
X143750882Y-85552066D01*
X143753489Y-85532646D01*
X143759273Y-85508810D01*
X143769268Y-85482876D01*
X143782594Y-85459852D01*
X143796244Y-85442889D01*
X143815005Y-85425541D01*
X143835749Y-85411783D01*
X143858476Y-85401613D01*
X143883187Y-85395033D01*
X143909882Y-85392042D01*
X143919221Y-85391842D01*
X143945708Y-85393633D01*
G37*
G36*
X144134032Y-85659288D02*
G01*
X144195215Y-85649763D01*
X144201638Y-85674338D01*
X144214410Y-85695651D01*
X144223792Y-85704840D01*
X144246025Y-85717254D01*
X144272023Y-85723095D01*
X144289615Y-85724013D01*
X144314106Y-85722307D01*
X144337828Y-85715759D01*
X144352874Y-85706549D01*
X144368353Y-85687437D01*
X144373512Y-85665272D01*
X144365623Y-85641382D01*
X144355194Y-85631933D01*
X144331050Y-85621835D01*
X144306897Y-85614703D01*
X144292057Y-85610806D01*
X144268018Y-85604512D01*
X144243683Y-85597582D01*
X144218268Y-85589323D01*
X144197780Y-85581009D01*
X144175955Y-85567123D01*
X144158828Y-85547698D01*
X144157968Y-85546326D01*
X144147801Y-85522940D01*
X144144413Y-85497233D01*
X144147549Y-85472282D01*
X144155526Y-85451926D01*
X144169642Y-85431772D01*
X144185934Y-85417366D01*
X144208049Y-85405268D01*
X144225257Y-85399292D01*
X144249391Y-85393945D01*
X144275081Y-85391872D01*
X144278624Y-85391842D01*
X144304453Y-85393035D01*
X144330469Y-85397102D01*
X144353973Y-85404055D01*
X144377565Y-85415408D01*
X144396706Y-85430835D01*
X144401967Y-85437150D01*
X144414360Y-85459840D01*
X144421628Y-85484540D01*
X144423216Y-85493081D01*
X144362766Y-85501263D01*
X144354797Y-85476686D01*
X144338952Y-85458154D01*
X144316836Y-85447022D01*
X144291895Y-85442887D01*
X144283143Y-85442645D01*
X144256727Y-85444319D01*
X144232951Y-85450613D01*
X144222326Y-85456811D01*
X144206689Y-85476427D01*
X144204130Y-85490028D01*
X144211702Y-85511766D01*
X144231497Y-85526672D01*
X144235393Y-85528374D01*
X144259115Y-85535621D01*
X144284459Y-85542728D01*
X144289981Y-85544250D01*
X144316773Y-85551640D01*
X144342741Y-85559341D01*
X144366025Y-85567056D01*
X144381450Y-85573071D01*
X144403368Y-85585831D01*
X144421304Y-85604351D01*
X144422239Y-85605677D01*
X144432845Y-85627993D01*
X144436886Y-85652938D01*
X144437016Y-85658800D01*
X144434033Y-85683497D01*
X144425084Y-85706985D01*
X144418942Y-85717418D01*
X144403211Y-85736200D01*
X144382946Y-85751513D01*
X144366918Y-85759794D01*
X144342510Y-85768346D01*
X144318467Y-85773040D01*
X144292659Y-85774801D01*
X144289981Y-85774815D01*
X144264518Y-85773793D01*
X144237816Y-85770018D01*
X144211264Y-85762298D01*
X144188941Y-85750945D01*
X144181660Y-85745750D01*
X144162833Y-85727111D01*
X144148258Y-85704028D01*
X144138869Y-85679779D01*
X144134032Y-85659288D01*
G37*
G36*
X144508945Y-85329316D02*
G01*
X144508945Y-85258974D01*
X144570739Y-85258974D01*
X144570739Y-85329316D01*
X144508945Y-85329316D01*
G37*
G36*
X144508945Y-85767000D02*
G01*
X144508945Y-85399658D01*
X144570739Y-85399658D01*
X144570739Y-85767000D01*
X144508945Y-85767000D01*
G37*
G36*
X144825305Y-85394320D02*
G01*
X144850308Y-85401753D01*
X144873137Y-85414142D01*
X144893792Y-85431486D01*
X144904618Y-85443622D01*
X144904618Y-85399658D01*
X144961649Y-85399658D01*
X144961649Y-85716808D01*
X144961226Y-85742376D01*
X144959600Y-85769830D01*
X144956162Y-85797411D01*
X144950201Y-85823064D01*
X144944308Y-85838196D01*
X144931490Y-85859093D01*
X144914713Y-85877056D01*
X144893976Y-85892085D01*
X144889353Y-85894739D01*
X144866824Y-85904774D01*
X144841551Y-85911525D01*
X144816784Y-85914769D01*
X144796785Y-85915499D01*
X144769453Y-85914097D01*
X144744516Y-85909889D01*
X144718951Y-85901646D01*
X144696515Y-85889739D01*
X144691394Y-85886190D01*
X144672079Y-85867435D01*
X144659332Y-85844004D01*
X144653516Y-85819251D01*
X144652560Y-85798263D01*
X144712644Y-85807177D01*
X144719788Y-85831144D01*
X144733648Y-85847600D01*
X144756963Y-85859287D01*
X144782082Y-85864096D01*
X144796419Y-85864697D01*
X144821366Y-85863015D01*
X144846233Y-85856558D01*
X144862731Y-85847478D01*
X144880265Y-85829769D01*
X144892050Y-85806779D01*
X144894360Y-85799240D01*
X144897546Y-85774683D01*
X144898619Y-85747353D01*
X144898757Y-85719616D01*
X144880114Y-85738079D01*
X144859554Y-85752007D01*
X144833710Y-85762372D01*
X144809043Y-85766583D01*
X144797884Y-85767000D01*
X144770868Y-85765080D01*
X144746238Y-85759323D01*
X144720521Y-85747755D01*
X144698053Y-85730963D01*
X144681381Y-85712411D01*
X144667394Y-85691176D01*
X144656302Y-85668413D01*
X144648103Y-85644121D01*
X144642798Y-85618301D01*
X144640386Y-85590953D01*
X144640226Y-85581497D01*
X144640432Y-85576979D01*
X144703729Y-85576979D01*
X144704729Y-85602803D01*
X144708425Y-85629448D01*
X144715983Y-85655305D01*
X144728737Y-85678537D01*
X144732183Y-85682858D01*
X144751439Y-85700439D01*
X144773485Y-85711509D01*
X144798322Y-85716067D01*
X144803624Y-85716197D01*
X144828914Y-85712965D01*
X144851509Y-85703269D01*
X144871409Y-85687110D01*
X144875065Y-85683102D01*
X144889056Y-85661442D01*
X144897648Y-85637193D01*
X144902199Y-85612119D01*
X144903980Y-85583445D01*
X144904008Y-85579055D01*
X144902582Y-85551051D01*
X144898304Y-85526238D01*
X144889924Y-85501787D01*
X144876043Y-85479261D01*
X144874210Y-85477083D01*
X144854470Y-85458922D01*
X144832345Y-85447488D01*
X144807835Y-85442780D01*
X144802647Y-85442645D01*
X144778065Y-85445948D01*
X144753835Y-85457213D01*
X144734363Y-85474391D01*
X144732549Y-85476473D01*
X144718618Y-85498099D01*
X144710061Y-85521686D01*
X144705530Y-85545693D01*
X144703757Y-85572843D01*
X144703729Y-85576979D01*
X144640432Y-85576979D01*
X144641401Y-85555752D01*
X144644927Y-85531030D01*
X144651704Y-85504441D01*
X144659032Y-85484655D01*
X144671022Y-85461254D01*
X144685698Y-85441060D01*
X144705154Y-85422384D01*
X144713865Y-85416023D01*
X144737521Y-85403271D01*
X144760892Y-85395833D01*
X144786233Y-85392220D01*
X144798129Y-85391842D01*
X144825305Y-85394320D01*
G37*
G36*
X145053240Y-85767000D02*
G01*
X145053240Y-85399658D01*
X145108806Y-85399658D01*
X145108806Y-85451193D01*
X145125130Y-85431023D01*
X145143971Y-85415026D01*
X145169131Y-85401638D01*
X145193423Y-85394683D01*
X145220230Y-85391900D01*
X145224943Y-85391842D01*
X145250847Y-85393818D01*
X145274977Y-85399743D01*
X145285515Y-85403810D01*
X145307083Y-85415625D01*
X145325150Y-85432676D01*
X145326914Y-85435073D01*
X145339233Y-85457643D01*
X145346210Y-85480991D01*
X145348878Y-85506628D01*
X145349599Y-85533564D01*
X145349629Y-85541441D01*
X145349629Y-85767000D01*
X145287836Y-85767000D01*
X145287836Y-85543029D01*
X145286822Y-85517166D01*
X145282706Y-85492468D01*
X145280630Y-85486120D01*
X145267235Y-85465465D01*
X145254985Y-85455956D01*
X145232329Y-85446773D01*
X145211876Y-85444599D01*
X145186027Y-85447586D01*
X145162718Y-85456547D01*
X145143732Y-85469878D01*
X145128598Y-85490126D01*
X145119770Y-85515956D01*
X145116043Y-85541028D01*
X145115034Y-85565988D01*
X145115034Y-85767000D01*
X145053240Y-85767000D01*
G37*
G36*
X145618771Y-85393633D02*
G01*
X145643369Y-85399004D01*
X145669679Y-85409795D01*
X145693418Y-85425461D01*
X145711719Y-85442767D01*
X145727490Y-85463319D01*
X145739998Y-85486782D01*
X145749243Y-85513156D01*
X145754454Y-85537358D01*
X145757400Y-85563581D01*
X145758125Y-85586016D01*
X145757881Y-85602868D01*
X145485794Y-85602868D01*
X145488588Y-85627252D01*
X145494957Y-85651900D01*
X145506173Y-85675523D01*
X145519744Y-85692872D01*
X145540369Y-85709294D01*
X145563927Y-85719634D01*
X145590419Y-85723891D01*
X145596070Y-85724013D01*
X145622022Y-85721090D01*
X145646318Y-85711406D01*
X145654078Y-85706305D01*
X145671972Y-85688431D01*
X145685556Y-85665742D01*
X145692180Y-85649763D01*
X145756171Y-85657579D01*
X145748313Y-85680750D01*
X145736313Y-85704312D01*
X145721091Y-85724759D01*
X145702649Y-85742093D01*
X145700117Y-85744041D01*
X145678250Y-85757505D01*
X145653559Y-85767122D01*
X145629637Y-85772381D01*
X145603553Y-85774695D01*
X145595704Y-85774815D01*
X145566871Y-85773076D01*
X145540365Y-85767860D01*
X145516187Y-85759166D01*
X145494335Y-85746994D01*
X145474811Y-85731345D01*
X145468819Y-85725356D01*
X145452883Y-85705363D01*
X145440243Y-85682572D01*
X145430901Y-85656981D01*
X145424856Y-85628590D01*
X145422337Y-85602793D01*
X145421925Y-85586382D01*
X145423082Y-85558503D01*
X145423946Y-85552066D01*
X145489214Y-85552066D01*
X145692912Y-85552066D01*
X145689389Y-85526913D01*
X145681855Y-85501366D01*
X145669587Y-85480014D01*
X145651582Y-85461950D01*
X145628336Y-85448812D01*
X145604498Y-85443229D01*
X145593017Y-85442645D01*
X145567703Y-85445555D01*
X145542916Y-85455478D01*
X145523161Y-85470609D01*
X145521332Y-85472443D01*
X145505759Y-85493022D01*
X145495219Y-85517513D01*
X145490036Y-85542900D01*
X145489214Y-85552066D01*
X145423946Y-85552066D01*
X145426552Y-85532646D01*
X145432336Y-85508810D01*
X145442331Y-85482876D01*
X145455658Y-85459852D01*
X145469308Y-85442889D01*
X145488068Y-85425541D01*
X145508812Y-85411783D01*
X145531540Y-85401613D01*
X145556251Y-85395033D01*
X145582945Y-85392042D01*
X145592284Y-85391842D01*
X145618771Y-85393633D01*
G37*
G36*
X146125833Y-85767000D02*
G01*
X146068558Y-85767000D01*
X146068558Y-85720960D01*
X146051776Y-85741944D01*
X146031886Y-85757775D01*
X146008887Y-85768451D01*
X145982779Y-85773974D01*
X145966464Y-85774815D01*
X145939896Y-85772454D01*
X145914687Y-85765370D01*
X145890837Y-85753563D01*
X145886230Y-85750635D01*
X145866986Y-85735527D01*
X145850330Y-85717405D01*
X145836263Y-85696269D01*
X145829566Y-85683224D01*
X145819885Y-85657824D01*
X145813939Y-85633543D01*
X145810497Y-85607659D01*
X145809538Y-85583695D01*
X145809548Y-85583451D01*
X145873041Y-85583451D01*
X145874080Y-85608709D01*
X145877919Y-85634996D01*
X145885769Y-85660846D01*
X145899016Y-85684580D01*
X145902595Y-85689086D01*
X145922103Y-85707504D01*
X145943687Y-85719101D01*
X145969825Y-85723979D01*
X145972326Y-85724013D01*
X145998757Y-85720073D01*
X146022302Y-85708255D01*
X146041203Y-85690674D01*
X146054898Y-85669079D01*
X146063309Y-85645229D01*
X146067764Y-85620767D01*
X146069507Y-85592950D01*
X146069535Y-85588702D01*
X146068517Y-85561813D01*
X146064758Y-85534013D01*
X146058229Y-85510058D01*
X146047375Y-85487389D01*
X146040592Y-85477938D01*
X146021279Y-85459326D01*
X145999366Y-85447608D01*
X145974854Y-85442783D01*
X145969639Y-85442645D01*
X145945165Y-85445960D01*
X145921301Y-85457266D01*
X145902387Y-85474506D01*
X145900641Y-85476595D01*
X145887299Y-85498724D01*
X145879106Y-85523600D01*
X145874766Y-85549387D01*
X145873149Y-85574476D01*
X145873041Y-85583451D01*
X145809548Y-85583451D01*
X145810675Y-85556912D01*
X145814087Y-85531397D01*
X145819774Y-85507148D01*
X145827734Y-85484166D01*
X145839409Y-85460676D01*
X145853962Y-85440490D01*
X145873509Y-85421936D01*
X145882323Y-85415656D01*
X145905914Y-85403098D01*
X145931200Y-85395191D01*
X145958179Y-85391936D01*
X145963778Y-85391842D01*
X145989379Y-85394241D01*
X146014290Y-85402188D01*
X146022518Y-85406375D01*
X146043218Y-85420690D01*
X146060225Y-85438418D01*
X146064406Y-85444110D01*
X146064406Y-85258974D01*
X146125833Y-85258974D01*
X146125833Y-85767000D01*
G37*
G36*
X146477054Y-85440935D02*
G01*
X146495239Y-85421806D01*
X146515492Y-85407376D01*
X146541172Y-85396637D01*
X146565858Y-85392274D01*
X146577071Y-85391842D01*
X146601761Y-85393766D01*
X146627384Y-85400191D01*
X146640697Y-85405520D01*
X146663352Y-85418368D01*
X146682501Y-85434884D01*
X146690156Y-85443744D01*
X146704542Y-85465480D01*
X146715352Y-85488550D01*
X146720564Y-85503339D01*
X146726822Y-85527845D01*
X146730482Y-85553505D01*
X146731555Y-85577833D01*
X146730422Y-85606214D01*
X146727023Y-85632507D01*
X146721358Y-85656713D01*
X146711570Y-85683005D01*
X146698518Y-85706292D01*
X146685149Y-85723402D01*
X146667135Y-85740875D01*
X146644459Y-85756690D01*
X146619995Y-85767585D01*
X146593743Y-85773560D01*
X146573896Y-85774815D01*
X146547013Y-85772238D01*
X146522782Y-85764507D01*
X146501205Y-85751622D01*
X146482280Y-85733582D01*
X146472658Y-85720960D01*
X146472658Y-85767000D01*
X146415260Y-85767000D01*
X146415260Y-85580520D01*
X146471925Y-85580520D01*
X146472778Y-85607672D01*
X146475842Y-85634409D01*
X146481954Y-85659014D01*
X146489755Y-85676019D01*
X146505638Y-85697016D01*
X146526591Y-85713467D01*
X146550808Y-85722325D01*
X146568767Y-85724013D01*
X146593034Y-85720554D01*
X146615154Y-85710179D01*
X146635128Y-85692886D01*
X146638865Y-85688598D01*
X146653151Y-85665923D01*
X146661925Y-85641146D01*
X146666571Y-85615897D01*
X146668389Y-85587317D01*
X146668418Y-85582963D01*
X146667422Y-85557316D01*
X146663742Y-85530748D01*
X146656217Y-85504806D01*
X146643517Y-85481261D01*
X146640086Y-85476839D01*
X146621222Y-85458807D01*
X146597799Y-85446686D01*
X146571576Y-85442645D01*
X146547309Y-85446104D01*
X146525189Y-85456479D01*
X146505215Y-85473772D01*
X146501478Y-85478060D01*
X146487192Y-85500483D01*
X146478418Y-85524616D01*
X146473772Y-85548975D01*
X146471954Y-85576361D01*
X146471925Y-85580520D01*
X146415260Y-85580520D01*
X146415260Y-85258974D01*
X146477054Y-85258974D01*
X146477054Y-85440935D01*
G37*
G36*
X146802141Y-85908172D02*
G01*
X146795302Y-85851385D01*
X146819701Y-85856232D01*
X146830718Y-85856881D01*
X146855060Y-85853533D01*
X146863568Y-85849798D01*
X146881907Y-85833102D01*
X146883963Y-85830014D01*
X146893999Y-85806992D01*
X146902769Y-85782509D01*
X146908265Y-85767000D01*
X146769901Y-85399658D01*
X146836457Y-85399658D01*
X146912417Y-85612272D01*
X146920487Y-85635338D01*
X146928075Y-85659060D01*
X146935179Y-85683440D01*
X146938917Y-85697268D01*
X146945222Y-85673321D01*
X146952184Y-85649702D01*
X146959802Y-85626412D01*
X146964318Y-85613615D01*
X147042232Y-85399658D01*
X147104025Y-85399658D01*
X146965295Y-85772861D01*
X146955997Y-85797503D01*
X146946544Y-85821242D01*
X146936488Y-85844283D01*
X146930613Y-85856026D01*
X146917561Y-85876789D01*
X146900598Y-85895151D01*
X146892755Y-85901089D01*
X146869430Y-85911897D01*
X146843792Y-85915485D01*
X146841953Y-85915499D01*
X146816763Y-85912344D01*
X146802141Y-85908172D01*
G37*
G36*
X146424558Y-88765575D02*
G01*
X146448937Y-88775538D01*
X146467685Y-88793249D01*
X146477622Y-88810026D01*
X146485408Y-88834410D01*
X146489312Y-88860983D01*
X146490399Y-88888016D01*
X146489827Y-88905768D01*
X146486530Y-88931182D01*
X146479317Y-88955376D01*
X146466952Y-88976798D01*
X146457857Y-88986883D01*
X146435766Y-89001576D01*
X146410410Y-89006473D01*
X146407802Y-89006435D01*
X146383736Y-89001798D01*
X146361478Y-88987772D01*
X146345075Y-88966906D01*
X146338794Y-88953319D01*
X146332497Y-88928294D01*
X146329726Y-88903517D01*
X146328955Y-88878368D01*
X146329317Y-88864584D01*
X146332218Y-88839671D01*
X146338948Y-88815877D01*
X146352158Y-88792883D01*
X146362841Y-88781701D01*
X146385503Y-88768220D01*
X146409677Y-88764184D01*
X146424558Y-88765575D01*
G37*
G36*
X146829864Y-88764378D02*
G01*
X146854828Y-88771140D01*
X146874593Y-88786166D01*
X146885572Y-88801808D01*
X146893678Y-88825805D01*
X146896209Y-88850158D01*
X146751983Y-88850158D01*
X146752828Y-88833583D01*
X146758953Y-88808839D01*
X146772256Y-88787265D01*
X146777585Y-88781856D01*
X146798913Y-88768602D01*
X146824401Y-88764184D01*
X146829864Y-88764378D01*
G37*
G36*
X147054656Y-89139315D02*
G01*
X144983936Y-89139315D01*
X144983936Y-89069000D01*
X145046436Y-89069000D01*
X145143034Y-89069000D01*
X145143034Y-88701658D01*
X145240242Y-88701658D01*
X145240242Y-89069000D01*
X145336718Y-89069000D01*
X145336718Y-88900716D01*
X145336747Y-88893084D01*
X145337434Y-88865618D01*
X145339301Y-88840576D01*
X145344046Y-88815353D01*
X145353766Y-88795640D01*
X145371401Y-88778228D01*
X145391216Y-88768148D01*
X145416464Y-88764184D01*
X145427010Y-88764957D01*
X145449925Y-88773954D01*
X145457138Y-88780078D01*
X145469953Y-88801431D01*
X145470336Y-88802580D01*
X145474423Y-88827370D01*
X145475792Y-88851898D01*
X145476181Y-88879345D01*
X145476181Y-89069000D01*
X145572657Y-89069000D01*
X145572657Y-88967394D01*
X145634328Y-88967394D01*
X145642915Y-88991353D01*
X145655241Y-89012671D01*
X145671308Y-89031348D01*
X145691115Y-89047384D01*
X145708513Y-89057386D01*
X145731578Y-89066440D01*
X145757623Y-89072676D01*
X145782320Y-89075781D01*
X145809206Y-89076815D01*
X145838568Y-89075544D01*
X145865105Y-89071732D01*
X145875300Y-89069000D01*
X146057601Y-89069000D01*
X146154199Y-89069000D01*
X146154199Y-88883986D01*
X146230403Y-88883986D01*
X146231103Y-88906133D01*
X146233948Y-88932053D01*
X146238981Y-88956010D01*
X146247910Y-88982169D01*
X146259990Y-89005504D01*
X146275221Y-89026013D01*
X146286708Y-89037920D01*
X146308170Y-89054936D01*
X146331361Y-89067091D01*
X146356282Y-89074384D01*
X146382933Y-89076815D01*
X146396426Y-89076096D01*
X146421363Y-89070948D01*
X146444237Y-89061794D01*
X146460705Y-89052001D01*
X146480677Y-89034977D01*
X146496994Y-89015388D01*
X146496994Y-89069000D01*
X146586631Y-89069000D01*
X146586631Y-88888138D01*
X146651355Y-88888138D01*
X146652622Y-88915795D01*
X146656422Y-88941615D01*
X146662754Y-88965598D01*
X146673344Y-88991255D01*
X146687381Y-89014411D01*
X146702865Y-89032389D01*
X146724640Y-89049940D01*
X146749902Y-89063103D01*
X146773617Y-89070721D01*
X146799753Y-89075292D01*
X146828309Y-89076815D01*
X146853632Y-89075576D01*
X146880210Y-89071127D01*
X146904270Y-89063441D01*
X146928327Y-89050926D01*
X146942592Y-89040338D01*
X146961156Y-89021334D01*
X146976321Y-88998581D01*
X146986945Y-88975210D01*
X146890713Y-88959579D01*
X146883695Y-88976174D01*
X146867266Y-88995360D01*
X146853575Y-89002556D01*
X146829286Y-89006473D01*
X146817171Y-89005606D01*
X146793571Y-88997777D01*
X146773599Y-88981805D01*
X146760760Y-88962507D01*
X146752971Y-88938535D01*
X146750274Y-88912684D01*
X146992074Y-88912684D01*
X146992156Y-88905794D01*
X146991521Y-88879354D01*
X146988566Y-88848821D01*
X146983207Y-88821084D01*
X146975445Y-88796144D01*
X146962958Y-88769907D01*
X146947011Y-88747698D01*
X146937894Y-88738073D01*
X146917850Y-88721664D01*
X146895393Y-88709042D01*
X146870523Y-88700206D01*
X146843240Y-88695157D01*
X146818662Y-88693842D01*
X146809693Y-88694044D01*
X146783964Y-88697071D01*
X146760004Y-88703730D01*
X146737814Y-88714021D01*
X146717392Y-88727944D01*
X146698739Y-88745500D01*
X146687633Y-88759002D01*
X146673751Y-88781573D01*
X146663201Y-88806927D01*
X146655983Y-88835063D01*
X146653934Y-88850158D01*
X146652512Y-88860634D01*
X146651355Y-88888138D01*
X146586631Y-88888138D01*
X146586631Y-88560974D01*
X146490155Y-88560974D01*
X146490155Y-88744645D01*
X146478723Y-88732738D01*
X146457478Y-88715721D01*
X146434655Y-88703566D01*
X146410254Y-88696273D01*
X146384276Y-88693842D01*
X146367994Y-88694600D01*
X146341217Y-88699571D01*
X146316626Y-88709183D01*
X146294220Y-88723434D01*
X146274000Y-88742325D01*
X146263782Y-88755144D01*
X146251009Y-88776991D01*
X146241302Y-88801981D01*
X146234660Y-88830114D01*
X146231467Y-88855958D01*
X146230616Y-88878368D01*
X146230403Y-88883986D01*
X146154199Y-88883986D01*
X146154199Y-88701658D01*
X146057601Y-88701658D01*
X146057601Y-89069000D01*
X145875300Y-89069000D01*
X145888817Y-89065378D01*
X145912911Y-89054752D01*
X145933159Y-89040667D01*
X145947395Y-89026577D01*
X145961793Y-89006266D01*
X145971734Y-88981337D01*
X145975047Y-88954205D01*
X145972101Y-88927281D01*
X145962056Y-88902293D01*
X145944883Y-88882154D01*
X145934171Y-88874374D01*
X145912319Y-88862746D01*
X145888440Y-88853398D01*
X145864437Y-88845999D01*
X145837172Y-88839167D01*
X145823286Y-88835939D01*
X145795259Y-88828951D01*
X145770728Y-88821895D01*
X145747046Y-88811934D01*
X145737399Y-88794471D01*
X145748390Y-88774809D01*
X145752849Y-88772319D01*
X145777441Y-88765679D01*
X145802978Y-88764184D01*
X145826707Y-88766499D01*
X145849384Y-88776274D01*
X145860947Y-88787851D01*
X145871610Y-88811079D01*
X145962713Y-88795448D01*
X145957881Y-88780327D01*
X145946374Y-88756144D01*
X145931254Y-88735865D01*
X145912521Y-88719488D01*
X145902822Y-88713477D01*
X145879817Y-88703860D01*
X145855744Y-88698075D01*
X145827988Y-88694744D01*
X145801268Y-88693842D01*
X145782250Y-88694350D01*
X145756133Y-88697015D01*
X145729322Y-88703010D01*
X145706449Y-88712115D01*
X145685131Y-88726327D01*
X145674365Y-88736813D01*
X145659585Y-88757566D01*
X145650717Y-88780733D01*
X145647762Y-88806316D01*
X145649281Y-88825330D01*
X145657261Y-88850792D01*
X145672079Y-88872582D01*
X145690993Y-88888870D01*
X145708761Y-88898431D01*
X145734710Y-88908412D01*
X145758254Y-88915799D01*
X145785972Y-88923400D01*
X145811152Y-88929636D01*
X145839004Y-88936009D01*
X145847806Y-88938242D01*
X145871366Y-88948710D01*
X145878205Y-88966906D01*
X145878006Y-88970862D01*
X145865504Y-88992674D01*
X145859139Y-88996649D01*
X145834640Y-89004533D01*
X145809206Y-89006473D01*
X145805006Y-89006419D01*
X145778920Y-89002993D01*
X145756205Y-88992551D01*
X145740543Y-88975393D01*
X145731170Y-88951763D01*
X145634328Y-88967394D01*
X145572657Y-88967394D01*
X145572657Y-88840999D01*
X145572526Y-88828201D01*
X145571140Y-88801428D01*
X145567284Y-88775786D01*
X145561099Y-88756739D01*
X145548477Y-88734997D01*
X145530421Y-88717716D01*
X145508421Y-88705444D01*
X145500041Y-88702102D01*
X145475116Y-88695757D01*
X145450047Y-88693842D01*
X145441091Y-88694082D01*
X145415380Y-88697682D01*
X145391403Y-88705600D01*
X145369161Y-88717837D01*
X145348653Y-88734394D01*
X145329879Y-88755270D01*
X145329879Y-88701658D01*
X145240242Y-88701658D01*
X145143034Y-88701658D01*
X145046436Y-88701658D01*
X145046436Y-89069000D01*
X144983936Y-89069000D01*
X144983936Y-88646948D01*
X145046436Y-88646948D01*
X145143034Y-88646948D01*
X146057601Y-88646948D01*
X146154199Y-88646948D01*
X146154199Y-88560974D01*
X146057601Y-88560974D01*
X146057601Y-88646948D01*
X145143034Y-88646948D01*
X145143034Y-88560974D01*
X145046436Y-88560974D01*
X145046436Y-88646948D01*
X144983936Y-88646948D01*
X144983936Y-88498474D01*
X147054656Y-88498474D01*
X147054656Y-89139315D01*
G37*
D11*
G36*
X156369397Y-85997888D02*
G01*
X156436209Y-86002100D01*
X156500017Y-86010500D01*
X156546643Y-86021221D01*
X156607277Y-86044187D01*
X156662858Y-86075397D01*
X156713384Y-86114851D01*
X156739270Y-86140333D01*
X156781418Y-86191358D01*
X156817481Y-86248468D01*
X156847459Y-86311662D01*
X156861484Y-86349400D01*
X156879804Y-86414753D01*
X156891541Y-86477884D01*
X156899270Y-86546567D01*
X156902705Y-86609856D01*
X156903359Y-86654315D01*
X156901474Y-86721840D01*
X156895819Y-86785180D01*
X156884739Y-86852442D01*
X156868736Y-86914237D01*
X156863965Y-86928832D01*
X156841092Y-86987875D01*
X156810117Y-87049065D01*
X156773985Y-87103546D01*
X156732696Y-87151320D01*
X156727172Y-87156820D01*
X156675361Y-87198798D01*
X156618655Y-87230980D01*
X156559798Y-87255075D01*
X156545712Y-87259803D01*
X156480073Y-87275344D01*
X156416281Y-87283261D01*
X156351956Y-87286673D01*
X156317103Y-87287100D01*
X155831038Y-87287100D01*
X155831038Y-87068727D01*
X156089425Y-87068727D01*
X156282052Y-87068727D01*
X156349367Y-87067261D01*
X156414473Y-87061154D01*
X156438387Y-87056319D01*
X156498920Y-87033383D01*
X156542300Y-87002967D01*
X156579988Y-86952949D01*
X156604899Y-86894380D01*
X156609921Y-86878581D01*
X156624932Y-86811466D01*
X156632579Y-86745540D01*
X156635875Y-86678616D01*
X156636287Y-86642218D01*
X156634639Y-86571941D01*
X156628846Y-86503214D01*
X156617517Y-86439686D01*
X156609921Y-86412989D01*
X156585269Y-86353801D01*
X156548174Y-86300012D01*
X156536717Y-86288293D01*
X156483442Y-86250605D01*
X156421805Y-86228513D01*
X156417294Y-86227496D01*
X156350178Y-86219014D01*
X156286026Y-86216070D01*
X156215202Y-86215100D01*
X156205435Y-86215088D01*
X156089425Y-86215088D01*
X156089425Y-87068727D01*
X155831038Y-87068727D01*
X155831038Y-85996716D01*
X156303145Y-85996716D01*
X156369397Y-85997888D01*
G37*
G36*
X157347859Y-87287100D02*
G01*
X157102810Y-87287100D01*
X157102810Y-86354053D01*
X157330489Y-86354053D01*
X157330489Y-86485883D01*
X157365785Y-86433799D01*
X157408228Y-86384839D01*
X157435332Y-86363358D01*
X157495437Y-86339013D01*
X157541727Y-86334201D01*
X157603668Y-86341267D01*
X157663864Y-86362467D01*
X157703025Y-86384451D01*
X157627029Y-86612750D01*
X157570845Y-86583806D01*
X157511949Y-86572425D01*
X157451046Y-86584448D01*
X157424476Y-86600342D01*
X157385823Y-86652808D01*
X157368332Y-86701154D01*
X157356676Y-86769932D01*
X157351778Y-86833356D01*
X157349139Y-86899887D01*
X157348039Y-86963911D01*
X157347859Y-87006069D01*
X157347859Y-87287100D01*
G37*
G36*
X157804146Y-86215088D02*
G01*
X157804146Y-85996716D01*
X158049505Y-85996716D01*
X158049505Y-86215088D01*
X157804146Y-86215088D01*
G37*
G36*
X157804146Y-87287100D02*
G01*
X157804146Y-86354053D01*
X158049505Y-86354053D01*
X158049505Y-87287100D01*
X157804146Y-87287100D01*
G37*
G36*
X158552941Y-87287100D02*
G01*
X158179474Y-86354053D01*
X158436931Y-86354053D01*
X158611257Y-86830192D01*
X158661817Y-86989319D01*
X158681204Y-86929704D01*
X158687253Y-86909290D01*
X158706446Y-86850025D01*
X158713309Y-86830192D01*
X158889496Y-86354053D01*
X159141679Y-86354053D01*
X158773485Y-87287100D01*
X158552941Y-87287100D01*
G37*
G36*
X159702892Y-86337540D02*
G01*
X159772190Y-86350365D01*
X159835359Y-86372807D01*
X159892400Y-86404868D01*
X159943312Y-86446547D01*
X159966470Y-86470994D01*
X160006975Y-86527406D01*
X160038690Y-86594046D01*
X160058406Y-86657394D01*
X160072018Y-86727846D01*
X160079525Y-86805400D01*
X160081137Y-86872558D01*
X160080929Y-86890058D01*
X159466756Y-86890058D01*
X159473608Y-86955719D01*
X159493391Y-87016610D01*
X159526002Y-87065625D01*
X159576731Y-87106194D01*
X159636674Y-87126080D01*
X159667448Y-87128283D01*
X159729141Y-87118332D01*
X159763917Y-87100056D01*
X159805647Y-87051322D01*
X159823473Y-87009171D01*
X160067901Y-87048875D01*
X160040915Y-87108237D01*
X160002398Y-87166028D01*
X159955245Y-87214300D01*
X159919011Y-87241192D01*
X159857907Y-87272980D01*
X159796795Y-87292502D01*
X159729286Y-87303805D01*
X159664967Y-87306952D01*
X159592433Y-87303082D01*
X159526048Y-87291472D01*
X159465813Y-87272124D01*
X159401648Y-87238689D01*
X159346337Y-87194109D01*
X159307009Y-87148445D01*
X159271354Y-87089629D01*
X159244457Y-87024460D01*
X159228372Y-86963544D01*
X159218721Y-86897961D01*
X159215504Y-86827710D01*
X159218442Y-86757851D01*
X159222053Y-86731242D01*
X159471099Y-86731242D01*
X159837431Y-86731242D01*
X159831004Y-86669386D01*
X159810415Y-86608434D01*
X159782528Y-86568703D01*
X159732325Y-86530535D01*
X159668916Y-86513360D01*
X159655041Y-86512869D01*
X159590300Y-86524091D01*
X159536127Y-86557754D01*
X159522590Y-86571495D01*
X159488803Y-86626291D01*
X159473245Y-86689141D01*
X159471099Y-86731242D01*
X159222053Y-86731242D01*
X159227257Y-86692900D01*
X159245592Y-86621435D01*
X159272389Y-86557037D01*
X159307649Y-86499706D01*
X159335857Y-86465410D01*
X159383236Y-86420820D01*
X159435107Y-86385454D01*
X159491472Y-86359315D01*
X159552330Y-86342401D01*
X159617680Y-86334713D01*
X159640462Y-86334201D01*
X159702892Y-86337540D01*
G37*
G36*
X160510540Y-87287100D02*
G01*
X160265491Y-87287100D01*
X160265491Y-86354053D01*
X160493170Y-86354053D01*
X160493170Y-86485883D01*
X160528466Y-86433799D01*
X160570909Y-86384839D01*
X160598013Y-86363358D01*
X160658118Y-86339013D01*
X160704408Y-86334201D01*
X160766349Y-86341267D01*
X160826545Y-86362467D01*
X160865706Y-86384451D01*
X160789710Y-86612750D01*
X160733526Y-86583806D01*
X160674630Y-86572425D01*
X160613727Y-86584448D01*
X160587157Y-86600342D01*
X160548504Y-86652808D01*
X160531013Y-86701154D01*
X160519357Y-86769932D01*
X160514459Y-86833356D01*
X160511820Y-86899887D01*
X160510720Y-86963911D01*
X160510540Y-87006069D01*
X160510540Y-87287100D01*
G37*
D12*
G36*
X164611101Y-83805045D02*
G01*
X164185630Y-83921793D01*
X164185630Y-83687075D01*
X164611101Y-83805045D01*
G37*
G36*
X164890740Y-85019645D02*
G01*
X163746257Y-85019645D01*
X163746257Y-84412477D01*
X163873000Y-84412477D01*
X164149727Y-84412477D01*
X164519266Y-84412477D01*
X164404716Y-84462058D01*
X163873000Y-84702393D01*
X163873000Y-84908534D01*
X164763997Y-84908534D01*
X164763997Y-84754661D01*
X164517801Y-84754661D01*
X164124570Y-84754661D01*
X164228861Y-84711430D01*
X164763997Y-84466210D01*
X164763997Y-84258604D01*
X163873000Y-84258604D01*
X163873000Y-84412477D01*
X163746257Y-84412477D01*
X163746257Y-83595728D01*
X163873000Y-83595728D01*
X164044946Y-83646531D01*
X164044946Y-83687075D01*
X164044946Y-83921793D01*
X164044946Y-83959650D01*
X163873000Y-84009232D01*
X163873000Y-84196077D01*
X164763997Y-83930097D01*
X164763997Y-83693914D01*
X163873000Y-83427934D01*
X163873000Y-83595728D01*
X163746257Y-83595728D01*
X163746257Y-83113837D01*
X163857368Y-83113837D01*
X163857551Y-83128908D01*
X163861077Y-83180513D01*
X163869092Y-83230341D01*
X163872977Y-83247915D01*
X163887029Y-83298138D01*
X163904263Y-83346112D01*
X164060578Y-83346112D01*
X164059449Y-83343259D01*
X164042748Y-83297019D01*
X164041165Y-83292065D01*
X164027849Y-83243286D01*
X164026680Y-83238209D01*
X164017591Y-83189797D01*
X164013683Y-83140704D01*
X164013864Y-83128993D01*
X164019474Y-83078317D01*
X164034200Y-83031283D01*
X164057513Y-82991831D01*
X164093795Y-82955812D01*
X164096254Y-82953980D01*
X164140142Y-82928754D01*
X164189050Y-82912093D01*
X164214446Y-82906668D01*
X164265395Y-82900129D01*
X164316789Y-82898171D01*
X164337580Y-82898505D01*
X164389071Y-82902499D01*
X164440376Y-82911849D01*
X164443872Y-82912733D01*
X164492705Y-82929556D01*
X164537340Y-82954835D01*
X164573549Y-82988113D01*
X164600599Y-83029329D01*
X164605923Y-83040977D01*
X164619565Y-83089820D01*
X164623314Y-83138750D01*
X164620627Y-83184362D01*
X164612567Y-83234738D01*
X164608851Y-83251431D01*
X164594639Y-83299570D01*
X164576419Y-83346112D01*
X164748366Y-83346112D01*
X164750633Y-83338938D01*
X164763509Y-83290425D01*
X164764263Y-83287099D01*
X164773279Y-83237668D01*
X164773727Y-83234398D01*
X164778163Y-83184424D01*
X164778586Y-83175856D01*
X164779629Y-83126294D01*
X164779129Y-83102713D01*
X164774348Y-83051805D01*
X164764506Y-83003872D01*
X164747633Y-82954103D01*
X164743551Y-82944635D01*
X164719732Y-82899961D01*
X164690237Y-82859723D01*
X164655065Y-82823921D01*
X164643419Y-82814109D01*
X164601097Y-82784532D01*
X164553384Y-82759774D01*
X164505833Y-82741611D01*
X164460175Y-82729002D01*
X164411372Y-82719996D01*
X164359424Y-82714592D01*
X164304332Y-82712791D01*
X164263878Y-82713718D01*
X164212877Y-82717840D01*
X164159515Y-82726418D01*
X164110404Y-82739169D01*
X164105209Y-82740857D01*
X164056179Y-82760358D01*
X164012445Y-82784629D01*
X163970452Y-82816838D01*
X163938038Y-82851161D01*
X163908608Y-82894150D01*
X163885700Y-82942623D01*
X163879060Y-82961594D01*
X163866332Y-83012060D01*
X163859609Y-83061190D01*
X163857368Y-83113837D01*
X163746257Y-83113837D01*
X163746257Y-82601680D01*
X164890740Y-82601680D01*
X164890740Y-85019645D01*
G37*
D10*
G36*
X140539174Y-88320683D02*
G01*
X140539174Y-87671974D01*
X140710144Y-87671974D01*
X140710144Y-87757948D01*
X140630888Y-87757948D01*
X140630888Y-88234710D01*
X140710144Y-88234710D01*
X140710144Y-88320683D01*
X140539174Y-88320683D01*
G37*
G36*
X140773892Y-88180000D02*
G01*
X140773892Y-87671974D01*
X141119007Y-87671974D01*
X141119007Y-87757948D01*
X140875497Y-87757948D01*
X140875497Y-87875184D01*
X141085668Y-87875184D01*
X141085668Y-87961158D01*
X140875497Y-87961158D01*
X140875497Y-88180000D01*
X140773892Y-88180000D01*
G37*
G36*
X141199851Y-87757948D02*
G01*
X141199851Y-87671974D01*
X141296449Y-87671974D01*
X141296449Y-87757948D01*
X141199851Y-87757948D01*
G37*
G36*
X141199851Y-88180000D02*
G01*
X141199851Y-87812658D01*
X141296449Y-87812658D01*
X141296449Y-88180000D01*
X141199851Y-88180000D01*
G37*
G36*
X141558066Y-87806157D02*
G01*
X141585348Y-87811206D01*
X141610218Y-87820042D01*
X141632675Y-87832664D01*
X141652719Y-87849073D01*
X141661837Y-87858698D01*
X141677784Y-87880907D01*
X141690270Y-87907144D01*
X141698032Y-87932084D01*
X141703391Y-87959821D01*
X141706347Y-87990354D01*
X141706981Y-88016794D01*
X141706899Y-88023684D01*
X141465099Y-88023684D01*
X141467797Y-88049535D01*
X141475585Y-88073507D01*
X141488424Y-88092805D01*
X141508396Y-88108777D01*
X141531996Y-88116606D01*
X141544112Y-88117473D01*
X141568400Y-88113556D01*
X141582091Y-88106360D01*
X141598521Y-88087174D01*
X141605539Y-88070579D01*
X141701770Y-88086210D01*
X141691146Y-88109581D01*
X141675982Y-88132334D01*
X141657417Y-88151338D01*
X141643152Y-88161926D01*
X141619095Y-88174441D01*
X141595036Y-88182127D01*
X141568457Y-88186576D01*
X141543135Y-88187815D01*
X141514578Y-88186292D01*
X141488442Y-88181721D01*
X141464728Y-88174103D01*
X141439466Y-88160940D01*
X141417690Y-88143389D01*
X141402207Y-88125411D01*
X141388169Y-88102255D01*
X141377579Y-88076598D01*
X141371247Y-88052615D01*
X141367447Y-88026795D01*
X141366181Y-87999138D01*
X141367337Y-87971634D01*
X141368759Y-87961158D01*
X141466809Y-87961158D01*
X141611034Y-87961158D01*
X141608503Y-87936805D01*
X141600398Y-87912808D01*
X141589419Y-87897166D01*
X141569654Y-87882140D01*
X141544690Y-87875378D01*
X141539227Y-87875184D01*
X141513738Y-87879602D01*
X141492410Y-87892856D01*
X141487081Y-87898265D01*
X141473779Y-87919839D01*
X141467654Y-87944583D01*
X141466809Y-87961158D01*
X141368759Y-87961158D01*
X141370808Y-87946063D01*
X141378026Y-87917927D01*
X141388577Y-87892573D01*
X141402458Y-87870002D01*
X141413564Y-87856500D01*
X141432217Y-87838944D01*
X141452639Y-87825021D01*
X141474830Y-87814730D01*
X141498789Y-87808071D01*
X141524518Y-87805044D01*
X141533487Y-87804842D01*
X141558066Y-87806157D01*
G37*
G36*
X141783592Y-88180000D02*
G01*
X141783592Y-87671974D01*
X141880190Y-87671974D01*
X141880190Y-88180000D01*
X141783592Y-88180000D01*
G37*
G36*
X142312622Y-88180000D02*
G01*
X142222985Y-88180000D01*
X142222985Y-88126388D01*
X142206668Y-88145977D01*
X142186695Y-88163001D01*
X142170228Y-88172794D01*
X142147353Y-88181948D01*
X142122417Y-88187096D01*
X142108923Y-88187815D01*
X142082273Y-88185384D01*
X142057352Y-88178091D01*
X142034161Y-88165936D01*
X142012699Y-88148920D01*
X142001212Y-88137013D01*
X141985981Y-88116504D01*
X141973901Y-88093169D01*
X141964972Y-88067010D01*
X141959939Y-88043053D01*
X141957094Y-88017133D01*
X141956394Y-87994986D01*
X141956607Y-87989368D01*
X142054946Y-87989368D01*
X142055717Y-88014517D01*
X142058488Y-88039294D01*
X142064784Y-88064319D01*
X142071066Y-88077906D01*
X142087468Y-88098772D01*
X142109727Y-88112798D01*
X142133793Y-88117435D01*
X142136401Y-88117473D01*
X142161757Y-88112576D01*
X142183848Y-88097883D01*
X142192943Y-88087798D01*
X142205308Y-88066376D01*
X142212520Y-88042182D01*
X142215818Y-88016768D01*
X142216390Y-87999016D01*
X142215303Y-87971983D01*
X142211399Y-87945410D01*
X142203613Y-87921026D01*
X142193675Y-87904249D01*
X142174928Y-87886538D01*
X142150548Y-87876575D01*
X142135668Y-87875184D01*
X142111493Y-87879220D01*
X142088832Y-87892701D01*
X142078149Y-87903883D01*
X142064938Y-87926877D01*
X142058208Y-87950671D01*
X142055308Y-87975584D01*
X142054946Y-87989368D01*
X141956607Y-87989368D01*
X141957458Y-87966958D01*
X141960651Y-87941114D01*
X141967293Y-87912981D01*
X141977000Y-87887991D01*
X141989773Y-87866144D01*
X141999991Y-87853325D01*
X142020211Y-87834434D01*
X142042616Y-87820183D01*
X142067208Y-87810571D01*
X142093984Y-87805600D01*
X142110267Y-87804842D01*
X142136245Y-87807273D01*
X142160646Y-87814566D01*
X142183469Y-87826721D01*
X142204714Y-87843738D01*
X142216146Y-87855645D01*
X142216146Y-87671974D01*
X142312622Y-87671974D01*
X142312622Y-88180000D01*
G37*
G36*
X142394443Y-88047131D02*
G01*
X142394443Y-87961158D01*
X142584098Y-87961158D01*
X142584098Y-88047131D01*
X142394443Y-88047131D01*
G37*
G36*
X142889193Y-87665244D02*
G01*
X142914947Y-87668502D01*
X142939309Y-87673930D01*
X142967802Y-87683770D01*
X142994118Y-87697002D01*
X143018258Y-87713627D01*
X143040221Y-87733646D01*
X143059465Y-87756649D01*
X143075448Y-87782306D01*
X143085886Y-87804742D01*
X143094236Y-87828876D01*
X143100498Y-87854709D01*
X143104673Y-87882239D01*
X143106761Y-87911468D01*
X143107022Y-87926720D01*
X143105985Y-87956538D01*
X143102877Y-87984689D01*
X143097696Y-88011172D01*
X143090444Y-88035988D01*
X143081118Y-88059136D01*
X143066548Y-88085725D01*
X143048740Y-88109709D01*
X143040710Y-88118572D01*
X143018899Y-88138520D01*
X142994912Y-88155087D01*
X142968748Y-88168273D01*
X142940408Y-88178078D01*
X142916169Y-88183488D01*
X142890537Y-88186733D01*
X142863511Y-88187815D01*
X142836143Y-88186739D01*
X142810213Y-88183510D01*
X142785722Y-88178130D01*
X142757131Y-88168376D01*
X142730789Y-88155260D01*
X142706694Y-88138781D01*
X142684848Y-88118939D01*
X142665744Y-88096110D01*
X142649879Y-88070746D01*
X142637251Y-88042848D01*
X142629480Y-88018706D01*
X142623781Y-87992941D01*
X142620155Y-87965554D01*
X142618601Y-87936546D01*
X142618536Y-87929040D01*
X142618634Y-87925621D01*
X142723316Y-87925621D01*
X142724279Y-87951694D01*
X142727977Y-87980281D01*
X142734449Y-88005924D01*
X142743694Y-88028622D01*
X142757985Y-88051379D01*
X142762761Y-88057145D01*
X142781089Y-88074561D01*
X142804525Y-88089227D01*
X142830617Y-88098306D01*
X142855626Y-88101667D01*
X142863145Y-88101842D01*
X142888706Y-88099721D01*
X142915357Y-88092101D01*
X142939276Y-88078941D01*
X142957963Y-88062880D01*
X142962918Y-88057512D01*
X142978098Y-88035943D01*
X142989549Y-88010131D01*
X142996397Y-87984630D01*
X143000505Y-87956012D01*
X143001837Y-87929783D01*
X143001875Y-87924277D01*
X143000948Y-87897929D01*
X142997387Y-87869193D01*
X142991156Y-87843599D01*
X142980511Y-87817711D01*
X142966232Y-87796101D01*
X142963895Y-87793363D01*
X142946093Y-87776518D01*
X142922842Y-87762333D01*
X142896492Y-87753552D01*
X142870895Y-87750301D01*
X142863145Y-87750132D01*
X142836798Y-87752224D01*
X142812789Y-87758500D01*
X142788212Y-87770796D01*
X142766688Y-87788557D01*
X142761784Y-87793852D01*
X142746795Y-87815100D01*
X142735488Y-87840591D01*
X142728726Y-87865817D01*
X142724668Y-87894160D01*
X142723354Y-87920161D01*
X142723316Y-87925621D01*
X142618634Y-87925621D01*
X142619343Y-87900923D01*
X142621764Y-87874549D01*
X142625800Y-87849918D01*
X142632549Y-87823385D01*
X142641495Y-87799225D01*
X142653473Y-87775817D01*
X142667884Y-87753983D01*
X142684729Y-87733723D01*
X142688389Y-87729860D01*
X142707550Y-87712176D01*
X142727783Y-87697593D01*
X142751280Y-87685133D01*
X142753480Y-87684187D01*
X142777943Y-87675424D01*
X142804191Y-87669166D01*
X142828623Y-87665743D01*
X142854423Y-87664237D01*
X142862046Y-87664159D01*
X142889193Y-87665244D01*
G37*
G36*
X143275061Y-88180000D02*
G01*
X143178585Y-88180000D01*
X143178585Y-87812658D01*
X143268222Y-87812658D01*
X143268222Y-87864560D01*
X143282118Y-87844054D01*
X143298828Y-87824779D01*
X143309499Y-87816322D01*
X143333162Y-87806737D01*
X143351387Y-87804842D01*
X143375773Y-87807625D01*
X143399472Y-87815971D01*
X143414890Y-87824626D01*
X143384970Y-87914508D01*
X143362850Y-87903112D01*
X143339663Y-87898632D01*
X143315685Y-87903365D01*
X143305225Y-87909623D01*
X143290007Y-87930278D01*
X143283121Y-87949312D01*
X143278532Y-87976390D01*
X143276603Y-88001360D01*
X143275564Y-88027554D01*
X143275131Y-88052760D01*
X143275061Y-88069357D01*
X143275061Y-88180000D01*
G37*
G36*
X143454701Y-87757948D02*
G01*
X143454701Y-87671974D01*
X143551299Y-87671974D01*
X143551299Y-87757948D01*
X143454701Y-87757948D01*
G37*
G36*
X143454701Y-88180000D02*
G01*
X143454701Y-87812658D01*
X143551299Y-87812658D01*
X143551299Y-88180000D01*
X143454701Y-88180000D01*
G37*
G36*
X143812916Y-87806157D02*
G01*
X143840198Y-87811206D01*
X143865068Y-87820042D01*
X143887525Y-87832664D01*
X143907569Y-87849073D01*
X143916687Y-87858698D01*
X143932633Y-87880907D01*
X143945120Y-87907144D01*
X143952882Y-87932084D01*
X143958241Y-87959821D01*
X143961197Y-87990354D01*
X143961831Y-88016794D01*
X143961749Y-88023684D01*
X143719949Y-88023684D01*
X143722647Y-88049535D01*
X143730435Y-88073507D01*
X143743274Y-88092805D01*
X143763246Y-88108777D01*
X143786846Y-88116606D01*
X143798962Y-88117473D01*
X143823250Y-88113556D01*
X143836941Y-88106360D01*
X143853370Y-88087174D01*
X143860389Y-88070579D01*
X143956620Y-88086210D01*
X143945996Y-88109581D01*
X143930832Y-88132334D01*
X143912267Y-88151338D01*
X143898002Y-88161926D01*
X143873945Y-88174441D01*
X143849886Y-88182127D01*
X143823307Y-88186576D01*
X143797985Y-88187815D01*
X143769428Y-88186292D01*
X143743292Y-88181721D01*
X143719578Y-88174103D01*
X143694316Y-88160940D01*
X143672540Y-88143389D01*
X143657056Y-88125411D01*
X143643019Y-88102255D01*
X143632429Y-88076598D01*
X143626097Y-88052615D01*
X143622297Y-88026795D01*
X143621031Y-87999138D01*
X143622187Y-87971634D01*
X143623609Y-87961158D01*
X143721659Y-87961158D01*
X143865884Y-87961158D01*
X143863353Y-87936805D01*
X143855248Y-87912808D01*
X143844269Y-87897166D01*
X143824504Y-87882140D01*
X143799540Y-87875378D01*
X143794077Y-87875184D01*
X143768588Y-87879602D01*
X143747260Y-87892856D01*
X143741931Y-87898265D01*
X143728629Y-87919839D01*
X143722504Y-87944583D01*
X143721659Y-87961158D01*
X143623609Y-87961158D01*
X143625658Y-87946063D01*
X143632876Y-87917927D01*
X143643427Y-87892573D01*
X143657308Y-87870002D01*
X143668414Y-87856500D01*
X143687067Y-87838944D01*
X143707489Y-87825021D01*
X143729680Y-87814730D01*
X143753639Y-87808071D01*
X143779368Y-87805044D01*
X143788337Y-87804842D01*
X143812916Y-87806157D01*
G37*
G36*
X144370246Y-88180000D02*
G01*
X144273770Y-88180000D01*
X144273770Y-87990345D01*
X144273380Y-87962898D01*
X144272012Y-87938370D01*
X144267925Y-87913580D01*
X144267541Y-87912431D01*
X144254726Y-87891078D01*
X144247514Y-87884954D01*
X144224599Y-87875957D01*
X144214052Y-87875184D01*
X144188805Y-87879148D01*
X144168989Y-87889228D01*
X144151355Y-87906640D01*
X144141634Y-87926353D01*
X144136890Y-87951576D01*
X144135023Y-87976618D01*
X144134336Y-88004084D01*
X144134307Y-88011716D01*
X144134307Y-88180000D01*
X144037831Y-88180000D01*
X144037831Y-87812658D01*
X144127468Y-87812658D01*
X144127468Y-87866270D01*
X144146242Y-87845394D01*
X144166749Y-87828837D01*
X144188992Y-87816600D01*
X144212968Y-87808682D01*
X144238680Y-87805082D01*
X144247636Y-87804842D01*
X144272705Y-87806757D01*
X144297629Y-87813102D01*
X144306010Y-87816444D01*
X144328009Y-87828716D01*
X144346066Y-87845997D01*
X144358688Y-87867739D01*
X144364872Y-87886786D01*
X144368729Y-87912428D01*
X144370114Y-87939201D01*
X144370246Y-87951999D01*
X144370246Y-88180000D01*
G37*
G36*
X144633173Y-87812658D02*
G01*
X144633173Y-87883000D01*
X144567227Y-87883000D01*
X144567227Y-88042491D01*
X144567406Y-88068845D01*
X144568345Y-88093572D01*
X144569059Y-88099033D01*
X144577730Y-88112344D01*
X144593972Y-88117473D01*
X144618100Y-88113087D01*
X144632807Y-88108192D01*
X144641111Y-88175115D01*
X144616899Y-88182346D01*
X144590610Y-88186575D01*
X144564907Y-88187815D01*
X144540055Y-88185556D01*
X144517768Y-88178778D01*
X144495958Y-88165431D01*
X144486994Y-88155453D01*
X144476748Y-88132335D01*
X144473438Y-88116741D01*
X144471148Y-88090576D01*
X144470492Y-88065262D01*
X144470385Y-88046765D01*
X144470385Y-87883000D01*
X144426055Y-87883000D01*
X144426055Y-87812658D01*
X144470385Y-87812658D01*
X144470385Y-87742316D01*
X144567227Y-87687606D01*
X144567227Y-87812658D01*
X144633173Y-87812658D01*
G37*
G36*
X144862671Y-87806157D02*
G01*
X144889954Y-87811206D01*
X144914824Y-87820042D01*
X144937281Y-87832664D01*
X144957325Y-87849073D01*
X144966442Y-87858698D01*
X144982389Y-87880907D01*
X144994876Y-87907144D01*
X145002638Y-87932084D01*
X145007997Y-87959821D01*
X145010952Y-87990354D01*
X145011587Y-88016794D01*
X145011505Y-88023684D01*
X144769705Y-88023684D01*
X144772402Y-88049535D01*
X144780191Y-88073507D01*
X144793030Y-88092805D01*
X144813002Y-88108777D01*
X144836602Y-88116606D01*
X144848717Y-88117473D01*
X144873006Y-88113556D01*
X144886697Y-88106360D01*
X144903126Y-88087174D01*
X144910144Y-88070579D01*
X145006376Y-88086210D01*
X144995752Y-88109581D01*
X144980587Y-88132334D01*
X144962023Y-88151338D01*
X144947758Y-88161926D01*
X144923701Y-88174441D01*
X144899641Y-88182127D01*
X144873063Y-88186576D01*
X144847740Y-88187815D01*
X144819184Y-88186292D01*
X144793048Y-88181721D01*
X144769333Y-88174103D01*
X144744071Y-88160940D01*
X144722296Y-88143389D01*
X144706812Y-88125411D01*
X144692775Y-88102255D01*
X144682185Y-88076598D01*
X144675853Y-88052615D01*
X144672053Y-88026795D01*
X144670786Y-87999138D01*
X144671943Y-87971634D01*
X144673365Y-87961158D01*
X144771414Y-87961158D01*
X144915640Y-87961158D01*
X144913109Y-87936805D01*
X144905003Y-87912808D01*
X144894024Y-87897166D01*
X144874259Y-87882140D01*
X144849295Y-87875378D01*
X144843832Y-87875184D01*
X144818344Y-87879602D01*
X144797016Y-87892856D01*
X144791687Y-87898265D01*
X144778384Y-87919839D01*
X144772259Y-87944583D01*
X144771414Y-87961158D01*
X144673365Y-87961158D01*
X144675414Y-87946063D01*
X144682632Y-87917927D01*
X144693182Y-87892573D01*
X144707064Y-87870002D01*
X144718170Y-87856500D01*
X144736823Y-87838944D01*
X144757245Y-87825021D01*
X144779435Y-87814730D01*
X144803395Y-87808071D01*
X144829124Y-87805044D01*
X144838093Y-87804842D01*
X144862671Y-87806157D01*
G37*
G36*
X145422810Y-88180000D02*
G01*
X145333173Y-88180000D01*
X145333173Y-88126388D01*
X145316856Y-88145977D01*
X145296884Y-88163001D01*
X145280417Y-88172794D01*
X145257542Y-88181948D01*
X145232606Y-88187096D01*
X145219112Y-88187815D01*
X145192461Y-88185384D01*
X145167540Y-88178091D01*
X145144349Y-88165936D01*
X145122888Y-88148920D01*
X145111401Y-88137013D01*
X145096169Y-88116504D01*
X145084089Y-88093169D01*
X145075160Y-88067010D01*
X145070127Y-88043053D01*
X145067282Y-88017133D01*
X145066582Y-87994986D01*
X145066795Y-87989368D01*
X145165134Y-87989368D01*
X145165905Y-88014517D01*
X145168676Y-88039294D01*
X145174973Y-88064319D01*
X145181254Y-88077906D01*
X145197657Y-88098772D01*
X145219915Y-88112798D01*
X145243982Y-88117435D01*
X145246589Y-88117473D01*
X145271945Y-88112576D01*
X145294036Y-88097883D01*
X145303131Y-88087798D01*
X145315496Y-88066376D01*
X145322709Y-88042182D01*
X145326006Y-88016768D01*
X145326578Y-87999016D01*
X145325492Y-87971983D01*
X145321587Y-87945410D01*
X145313801Y-87921026D01*
X145303864Y-87904249D01*
X145285116Y-87886538D01*
X145260737Y-87876575D01*
X145245856Y-87875184D01*
X145221682Y-87879220D01*
X145199020Y-87892701D01*
X145188337Y-87903883D01*
X145175127Y-87926877D01*
X145168397Y-87950671D01*
X145165496Y-87975584D01*
X145165134Y-87989368D01*
X145066795Y-87989368D01*
X145067646Y-87966958D01*
X145070839Y-87941114D01*
X145077481Y-87912981D01*
X145087189Y-87887991D01*
X145099961Y-87866144D01*
X145110179Y-87853325D01*
X145130399Y-87834434D01*
X145152805Y-87820183D01*
X145177396Y-87810571D01*
X145204173Y-87805600D01*
X145220455Y-87804842D01*
X145246434Y-87807273D01*
X145270834Y-87814566D01*
X145293657Y-87826721D01*
X145314902Y-87843738D01*
X145326334Y-87855645D01*
X145326334Y-87671974D01*
X145422810Y-87671974D01*
X145422810Y-88180000D01*
G37*
G36*
X146032929Y-87984605D02*
G01*
X146131481Y-88015868D01*
X146123649Y-88040849D01*
X146114350Y-88063737D01*
X146101256Y-88088439D01*
X146086049Y-88110127D01*
X146068729Y-88128802D01*
X146056010Y-88139577D01*
X146035271Y-88153315D01*
X146012533Y-88164210D01*
X145987793Y-88172262D01*
X145961053Y-88177473D01*
X145932312Y-88179842D01*
X145922287Y-88180000D01*
X145897779Y-88178939D01*
X145868710Y-88174629D01*
X145841383Y-88167003D01*
X145815797Y-88156062D01*
X145791953Y-88141806D01*
X145769849Y-88124234D01*
X145757423Y-88112100D01*
X145738847Y-88089665D01*
X145723420Y-88064797D01*
X145711141Y-88037496D01*
X145703584Y-88013904D01*
X145698043Y-87988754D01*
X145694517Y-87962048D01*
X145693006Y-87933785D01*
X145692943Y-87926475D01*
X145693956Y-87896205D01*
X145696996Y-87867674D01*
X145702062Y-87840884D01*
X145709154Y-87815833D01*
X145718273Y-87792523D01*
X145732522Y-87765833D01*
X145749937Y-87741862D01*
X145757789Y-87733035D01*
X145779088Y-87713193D01*
X145802378Y-87696714D01*
X145827660Y-87683597D01*
X145854933Y-87673844D01*
X145884198Y-87667454D01*
X145909044Y-87664764D01*
X145928515Y-87664159D01*
X145956555Y-87665572D01*
X145982895Y-87669811D01*
X146007536Y-87676878D01*
X146030477Y-87686770D01*
X146051719Y-87699489D01*
X146071261Y-87715035D01*
X146078602Y-87722044D01*
X146094692Y-87741065D01*
X146108644Y-87763810D01*
X146119099Y-87786767D01*
X146127918Y-87812576D01*
X146130137Y-87820474D01*
X146029509Y-87836106D01*
X146021086Y-87810712D01*
X146008074Y-87789272D01*
X145992262Y-87773213D01*
X145971341Y-87760072D01*
X145947533Y-87752386D01*
X145923386Y-87750132D01*
X145896733Y-87752620D01*
X145872705Y-87760085D01*
X145851304Y-87772526D01*
X145832528Y-87789944D01*
X145817300Y-87812941D01*
X145807546Y-87838135D01*
X145801836Y-87863497D01*
X145798573Y-87892336D01*
X145797723Y-87919026D01*
X145798561Y-87947273D01*
X145801074Y-87972860D01*
X145806302Y-88000054D01*
X145813943Y-88023418D01*
X145825906Y-88045836D01*
X145832039Y-88053848D01*
X145850487Y-88071426D01*
X145871515Y-88083982D01*
X145895122Y-88091515D01*
X145921310Y-88094026D01*
X145947842Y-88090909D01*
X145971690Y-88081558D01*
X145991041Y-88067648D01*
X146007673Y-88048204D01*
X146019889Y-88025647D01*
X146028557Y-88001573D01*
X146032929Y-87984605D01*
G37*
G36*
X146405875Y-87806160D02*
G01*
X146434119Y-87811221D01*
X146460260Y-87820076D01*
X146484297Y-87832727D01*
X146506230Y-87849174D01*
X146516407Y-87858820D01*
X146534378Y-87880066D01*
X146548630Y-87903322D01*
X146559165Y-87928587D01*
X146565981Y-87955861D01*
X146568821Y-87980124D01*
X146569286Y-87995352D01*
X146567980Y-88020611D01*
X146562966Y-88049096D01*
X146554190Y-88075589D01*
X146541653Y-88100089D01*
X146525356Y-88122598D01*
X146515797Y-88133105D01*
X146494814Y-88151698D01*
X146471890Y-88166444D01*
X146447026Y-88177343D01*
X146420222Y-88184396D01*
X146391476Y-88187602D01*
X146381463Y-88187815D01*
X146356657Y-88186396D01*
X146332432Y-88182137D01*
X146308786Y-88175038D01*
X146285720Y-88165101D01*
X146264364Y-88152362D01*
X146243587Y-88134874D01*
X146226248Y-88114044D01*
X146216599Y-88098300D01*
X146206234Y-88075120D01*
X146198831Y-88049543D01*
X146194782Y-88025198D01*
X146193000Y-87999017D01*
X146192968Y-87996329D01*
X146291826Y-87996329D01*
X146293437Y-88023982D01*
X146298268Y-88048200D01*
X146307553Y-88071340D01*
X146317594Y-88086332D01*
X146336723Y-88104062D01*
X146360817Y-88115010D01*
X146381097Y-88117473D01*
X146405597Y-88113794D01*
X146429033Y-88101386D01*
X146444356Y-88086332D01*
X146457880Y-88064038D01*
X146465769Y-88039262D01*
X146469375Y-88013493D01*
X146470001Y-87995596D01*
X146468398Y-87968271D01*
X146463590Y-87944305D01*
X146454349Y-87921357D01*
X146444356Y-87906448D01*
X146425365Y-87888648D01*
X146401357Y-87877657D01*
X146381097Y-87875184D01*
X146356568Y-87878879D01*
X146333035Y-87891335D01*
X146317594Y-87906448D01*
X146304005Y-87928606D01*
X146296079Y-87953157D01*
X146292455Y-87978646D01*
X146291826Y-87996329D01*
X146192968Y-87996329D01*
X146192908Y-87991200D01*
X146194782Y-87964248D01*
X146200404Y-87937799D01*
X146208548Y-87914711D01*
X146216599Y-87897655D01*
X146229682Y-87876398D01*
X146247355Y-87855677D01*
X146268158Y-87838338D01*
X146283766Y-87828656D01*
X146306130Y-87818238D01*
X146329745Y-87810796D01*
X146354612Y-87806331D01*
X146380731Y-87804842D01*
X146405875Y-87806160D01*
G37*
G36*
X146974363Y-88180000D02*
G01*
X146877887Y-88180000D01*
X146877887Y-87990345D01*
X146877498Y-87962898D01*
X146876129Y-87938370D01*
X146872042Y-87913580D01*
X146871659Y-87912431D01*
X146858844Y-87891078D01*
X146851631Y-87884954D01*
X146828716Y-87875957D01*
X146818170Y-87875184D01*
X146792922Y-87879148D01*
X146773107Y-87889228D01*
X146755472Y-87906640D01*
X146745752Y-87926353D01*
X146741007Y-87951576D01*
X146739140Y-87976618D01*
X146738453Y-88004084D01*
X146738424Y-88011716D01*
X146738424Y-88180000D01*
X146641948Y-88180000D01*
X146641948Y-87812658D01*
X146731585Y-87812658D01*
X146731585Y-87866270D01*
X146750359Y-87845394D01*
X146770867Y-87828837D01*
X146793109Y-87816600D01*
X146817086Y-87808682D01*
X146842797Y-87805082D01*
X146851753Y-87804842D01*
X146876822Y-87806757D01*
X146901747Y-87813102D01*
X146910127Y-87816444D01*
X146932127Y-87828716D01*
X146950183Y-87845997D01*
X146962805Y-87867739D01*
X146968989Y-87886786D01*
X146972846Y-87912428D01*
X146974232Y-87939201D01*
X146974363Y-87951999D01*
X146974363Y-88180000D01*
G37*
G36*
X147237290Y-87812658D02*
G01*
X147237290Y-87883000D01*
X147171345Y-87883000D01*
X147171345Y-88042491D01*
X147171524Y-88068845D01*
X147172463Y-88093572D01*
X147173176Y-88099033D01*
X147181847Y-88112344D01*
X147198089Y-88117473D01*
X147222217Y-88113087D01*
X147236924Y-88108192D01*
X147245228Y-88175115D01*
X147221017Y-88182346D01*
X147194727Y-88186575D01*
X147169024Y-88187815D01*
X147144173Y-88185556D01*
X147121886Y-88178778D01*
X147100075Y-88165431D01*
X147091111Y-88155453D01*
X147080865Y-88132335D01*
X147077555Y-88116741D01*
X147075266Y-88090576D01*
X147074610Y-88065262D01*
X147074502Y-88046765D01*
X147074502Y-87883000D01*
X147030172Y-87883000D01*
X147030172Y-87812658D01*
X147074502Y-87812658D01*
X147074502Y-87742316D01*
X147171345Y-87687606D01*
X147171345Y-87812658D01*
X147237290Y-87812658D01*
G37*
G36*
X147395437Y-88180000D02*
G01*
X147298962Y-88180000D01*
X147298962Y-87812658D01*
X147388599Y-87812658D01*
X147388599Y-87864560D01*
X147402495Y-87844054D01*
X147419205Y-87824779D01*
X147429876Y-87816322D01*
X147453539Y-87806737D01*
X147471763Y-87804842D01*
X147496150Y-87807625D01*
X147519849Y-87815971D01*
X147535267Y-87824626D01*
X147505347Y-87914508D01*
X147483227Y-87903112D01*
X147460040Y-87898632D01*
X147436062Y-87903365D01*
X147425601Y-87909623D01*
X147410384Y-87930278D01*
X147403498Y-87949312D01*
X147398909Y-87976390D01*
X147396980Y-88001360D01*
X147395941Y-88027554D01*
X147395508Y-88052760D01*
X147395437Y-88069357D01*
X147395437Y-88180000D01*
G37*
G36*
X147765819Y-87806160D02*
G01*
X147794063Y-87811221D01*
X147820204Y-87820076D01*
X147844241Y-87832727D01*
X147866174Y-87849174D01*
X147876352Y-87858820D01*
X147894322Y-87880066D01*
X147908575Y-87903322D01*
X147919109Y-87928587D01*
X147925925Y-87955861D01*
X147928765Y-87980124D01*
X147929230Y-87995352D01*
X147927924Y-88020611D01*
X147922910Y-88049096D01*
X147914134Y-88075589D01*
X147901598Y-88100089D01*
X147885300Y-88122598D01*
X147875741Y-88133105D01*
X147854758Y-88151698D01*
X147831835Y-88166444D01*
X147806970Y-88177343D01*
X147780166Y-88184396D01*
X147751420Y-88187602D01*
X147741407Y-88187815D01*
X147716602Y-88186396D01*
X147692376Y-88182137D01*
X147668730Y-88175038D01*
X147645664Y-88165101D01*
X147624308Y-88152362D01*
X147603531Y-88134874D01*
X147586192Y-88114044D01*
X147576544Y-88098300D01*
X147566179Y-88075120D01*
X147558775Y-88049543D01*
X147554726Y-88025198D01*
X147552945Y-87999017D01*
X147552913Y-87996329D01*
X147651770Y-87996329D01*
X147653381Y-88023982D01*
X147658212Y-88048200D01*
X147667498Y-88071340D01*
X147677538Y-88086332D01*
X147696667Y-88104062D01*
X147720762Y-88115010D01*
X147741041Y-88117473D01*
X147765541Y-88113794D01*
X147788977Y-88101386D01*
X147804300Y-88086332D01*
X147817824Y-88064038D01*
X147825713Y-88039262D01*
X147829319Y-88013493D01*
X147829946Y-87995596D01*
X147828343Y-87968271D01*
X147823534Y-87944305D01*
X147814293Y-87921357D01*
X147804300Y-87906448D01*
X147785310Y-87888648D01*
X147761301Y-87877657D01*
X147741041Y-87875184D01*
X147716512Y-87878879D01*
X147692979Y-87891335D01*
X147677538Y-87906448D01*
X147663950Y-87928606D01*
X147656023Y-87953157D01*
X147652399Y-87978646D01*
X147651770Y-87996329D01*
X147552913Y-87996329D01*
X147552852Y-87991200D01*
X147554726Y-87964248D01*
X147560348Y-87937799D01*
X147568492Y-87914711D01*
X147576544Y-87897655D01*
X147589626Y-87876398D01*
X147607299Y-87855677D01*
X147628103Y-87838338D01*
X147643710Y-87828656D01*
X147666074Y-87818238D01*
X147689689Y-87810796D01*
X147714556Y-87806331D01*
X147740675Y-87804842D01*
X147765819Y-87806160D01*
G37*
G36*
X148002503Y-88180000D02*
G01*
X148002503Y-87671974D01*
X148099101Y-87671974D01*
X148099101Y-88180000D01*
X148002503Y-88180000D01*
G37*
G36*
X148330643Y-87671974D02*
G01*
X148330643Y-88320683D01*
X148159551Y-88320683D01*
X148159551Y-88234710D01*
X148238930Y-88234710D01*
X148238930Y-87757948D01*
X148159551Y-87757948D01*
X148159551Y-87671974D01*
X148330643Y-87671974D01*
G37*
D11*
G36*
X140587622Y-86016568D02*
G01*
X141705852Y-86016568D01*
X141705852Y-86295427D01*
X140989006Y-86989319D01*
X141732218Y-86989319D01*
X141732218Y-87287100D01*
X140518761Y-87287100D01*
X140518761Y-86999865D01*
X141227851Y-86314349D01*
X140587622Y-86314349D01*
X140587622Y-86016568D01*
G37*
G36*
X141879247Y-86016568D02*
G01*
X142234413Y-86016568D01*
X142234413Y-86476577D01*
X142279493Y-86432963D01*
X142328871Y-86394854D01*
X142378030Y-86367081D01*
X142440549Y-86345792D01*
X142505892Y-86335774D01*
X142547393Y-86334201D01*
X142615964Y-86339745D01*
X142676819Y-86356379D01*
X142736058Y-86388347D01*
X142775381Y-86422915D01*
X142815716Y-86480174D01*
X142840488Y-86543719D01*
X142853607Y-86609086D01*
X142858496Y-86672368D01*
X142858822Y-86694950D01*
X142858822Y-87287100D01*
X142502105Y-87287100D01*
X142502105Y-86773117D01*
X142496781Y-86710091D01*
X142471830Y-86651051D01*
X142469846Y-86648732D01*
X142416284Y-86616455D01*
X142379271Y-86612130D01*
X142317547Y-86626049D01*
X142274427Y-86661449D01*
X142247073Y-86719566D01*
X142236327Y-86786222D01*
X142234413Y-86838257D01*
X142234413Y-87287100D01*
X141879247Y-87287100D01*
X141879247Y-86016568D01*
G37*
G36*
X143424606Y-86434392D02*
G01*
X143473808Y-86395291D01*
X143528591Y-86365927D01*
X143545269Y-86359326D01*
X143607228Y-86342150D01*
X143669758Y-86334814D01*
X143695090Y-86334201D01*
X143766260Y-86340049D01*
X143831849Y-86357593D01*
X143891857Y-86386834D01*
X143946284Y-86427771D01*
X143974880Y-86456415D01*
X144012513Y-86505997D01*
X144042360Y-86563081D01*
X144064421Y-86627668D01*
X144078696Y-86699758D01*
X144084644Y-86765564D01*
X144085617Y-86807548D01*
X144083198Y-86872459D01*
X144074508Y-86942426D01*
X144059497Y-87007895D01*
X144038167Y-87068866D01*
X144035056Y-87076171D01*
X144003524Y-87136790D01*
X143965809Y-87188134D01*
X143916652Y-87234304D01*
X143894851Y-87249567D01*
X143837109Y-87279828D01*
X143775550Y-87298882D01*
X143710174Y-87306727D01*
X143696641Y-87306952D01*
X143634321Y-87302590D01*
X143570599Y-87287883D01*
X143525727Y-87270039D01*
X143472470Y-87235179D01*
X143423703Y-87189989D01*
X143398240Y-87162094D01*
X143398240Y-87287100D01*
X143066028Y-87287100D01*
X143066028Y-86814683D01*
X143421814Y-86814683D01*
X143424625Y-86877069D01*
X143436045Y-86942075D01*
X143461345Y-87001050D01*
X143466791Y-87008860D01*
X143514206Y-87051831D01*
X143576350Y-87068668D01*
X143580630Y-87068727D01*
X143642415Y-87052094D01*
X143687335Y-87009791D01*
X143715452Y-86948395D01*
X143727327Y-86883122D01*
X143730719Y-86819606D01*
X143730762Y-86810960D01*
X143727400Y-86746869D01*
X143714162Y-86682596D01*
X143688266Y-86630120D01*
X143641582Y-86586849D01*
X143585904Y-86572425D01*
X143523718Y-86585648D01*
X143473254Y-86625315D01*
X143467412Y-86632602D01*
X143437889Y-86691533D01*
X143424664Y-86757472D01*
X143421814Y-86814683D01*
X143066028Y-86814683D01*
X143066028Y-86016568D01*
X143424606Y-86016568D01*
X143424606Y-86434392D01*
G37*
G36*
X144262114Y-86016568D02*
G01*
X144617280Y-86016568D01*
X144617280Y-86254792D01*
X144262114Y-86254792D01*
X144262114Y-86016568D01*
G37*
G36*
X144262114Y-86354053D02*
G01*
X144617280Y-86354053D01*
X144617280Y-87287100D01*
X144262114Y-87287100D01*
X144262114Y-86354053D01*
G37*
G36*
X145355997Y-85999017D02*
G01*
X145419985Y-86005920D01*
X145487883Y-86019789D01*
X145548508Y-86039923D01*
X145594684Y-86062165D01*
X145649762Y-86099543D01*
X145698985Y-86146537D01*
X145737252Y-86195544D01*
X145771037Y-86251914D01*
X145779866Y-86269371D01*
X145806940Y-86335904D01*
X145824853Y-86399902D01*
X145837881Y-86470334D01*
X145845006Y-86533943D01*
X145848738Y-86602019D01*
X145849349Y-86645009D01*
X145848067Y-86707721D01*
X145842372Y-86786315D01*
X145832122Y-86859170D01*
X145817315Y-86926287D01*
X145797952Y-86987666D01*
X145767342Y-87056319D01*
X145729614Y-87116006D01*
X145703560Y-87147515D01*
X145655341Y-87193446D01*
X145601610Y-87231593D01*
X145542365Y-87261954D01*
X145477607Y-87284531D01*
X145407336Y-87299322D01*
X145331552Y-87306329D01*
X145299695Y-87306952D01*
X145236014Y-87305215D01*
X145170797Y-87298977D01*
X145107068Y-87286537D01*
X145058988Y-87270660D01*
X145001906Y-87241537D01*
X144951788Y-87204497D01*
X144912269Y-87163955D01*
X144875366Y-87111617D01*
X144844841Y-87050996D01*
X144822625Y-86988698D01*
X145175929Y-86949615D01*
X145196188Y-87008299D01*
X145223078Y-87042051D01*
X145281064Y-87067060D01*
X145304037Y-87068727D01*
X145367351Y-87054495D01*
X145418175Y-87011800D01*
X145437418Y-86982494D01*
X145459427Y-86921990D01*
X145472809Y-86856899D01*
X145482705Y-86785377D01*
X145489840Y-86713251D01*
X145445683Y-86757615D01*
X145396509Y-86795811D01*
X145358941Y-86817474D01*
X145296278Y-86839951D01*
X145230861Y-86849551D01*
X145203846Y-86850354D01*
X145141291Y-86846167D01*
X145073079Y-86830696D01*
X145010003Y-86803826D01*
X144952062Y-86765556D01*
X144913820Y-86731242D01*
X144867771Y-86676117D01*
X144833032Y-86614966D01*
X144809603Y-86547789D01*
X144798524Y-86485412D01*
X144795638Y-86430049D01*
X144796331Y-86420123D01*
X145133123Y-86420123D01*
X145139928Y-86483954D01*
X145165068Y-86542766D01*
X145181513Y-86562810D01*
X145235951Y-86599800D01*
X145297973Y-86612081D01*
X145302486Y-86612130D01*
X145367049Y-86601633D01*
X145420570Y-86570145D01*
X145426872Y-86564360D01*
X145462718Y-86510512D01*
X145476032Y-86449179D01*
X145476812Y-86427567D01*
X145469440Y-86365365D01*
X145442206Y-86306688D01*
X145424390Y-86286121D01*
X145370492Y-86249385D01*
X145306507Y-86235140D01*
X145297213Y-86234940D01*
X145232461Y-86246495D01*
X145179652Y-86281158D01*
X145146255Y-86334711D01*
X145133850Y-86397663D01*
X145133123Y-86420123D01*
X144796331Y-86420123D01*
X144800399Y-86361849D01*
X144814679Y-86297182D01*
X144838479Y-86236048D01*
X144855815Y-86203611D01*
X144893247Y-86150008D01*
X144937843Y-86104353D01*
X144989604Y-86066649D01*
X145021456Y-86049138D01*
X145085198Y-86023797D01*
X145148986Y-86008234D01*
X145219481Y-85999224D01*
X145286667Y-85996716D01*
X145355997Y-85999017D01*
G37*
G36*
X146555648Y-85998199D02*
G01*
X146627306Y-86004224D01*
X146692421Y-86014884D01*
X146761923Y-86033793D01*
X146822002Y-86059376D01*
X146872660Y-86091633D01*
X146920402Y-86135369D01*
X146960605Y-86191097D01*
X146985493Y-86252950D01*
X146995065Y-86320930D01*
X146995185Y-86329858D01*
X146987096Y-86396114D01*
X146962830Y-86458786D01*
X146946175Y-86486503D01*
X146902659Y-86536421D01*
X146850060Y-86578581D01*
X146831095Y-86591347D01*
X146885350Y-86622189D01*
X146935792Y-86662502D01*
X146979313Y-86714192D01*
X146985879Y-86724418D01*
X147015018Y-86783269D01*
X147032062Y-86846373D01*
X147037060Y-86907429D01*
X147031855Y-86972462D01*
X147016241Y-87034489D01*
X146993013Y-87088269D01*
X146960349Y-87141552D01*
X146919280Y-87189397D01*
X146884757Y-87218238D01*
X146827417Y-87251344D01*
X146765309Y-87274906D01*
X146725010Y-87285549D01*
X146657862Y-87297734D01*
X146594273Y-87304422D01*
X146528261Y-87306931D01*
X146521527Y-87306952D01*
X146448601Y-87305250D01*
X146382436Y-87300147D01*
X146313790Y-87289892D01*
X146246605Y-87272502D01*
X146210718Y-87258562D01*
X146154421Y-87227736D01*
X146101422Y-87185025D01*
X146058480Y-87133408D01*
X146047559Y-87116186D01*
X146018115Y-87055099D01*
X145999577Y-86989711D01*
X145992216Y-86927184D01*
X145991725Y-86905568D01*
X145992823Y-86890989D01*
X146345960Y-86890989D01*
X146355816Y-86953983D01*
X146388249Y-87009485D01*
X146397451Y-87019097D01*
X146448996Y-87054720D01*
X146511189Y-87068678D01*
X146515323Y-87068727D01*
X146579209Y-87054457D01*
X146629472Y-87018166D01*
X146665764Y-86964836D01*
X146679836Y-86899646D01*
X146680033Y-86890058D01*
X146670237Y-86826853D01*
X146637999Y-86771255D01*
X146628852Y-86761640D01*
X146577548Y-86725572D01*
X146514861Y-86711439D01*
X146510670Y-86711390D01*
X146448788Y-86723565D01*
X146395280Y-86760089D01*
X146359880Y-86812952D01*
X146346394Y-86875818D01*
X146345960Y-86890989D01*
X145992823Y-86890989D01*
X145996814Y-86838005D01*
X146012081Y-86777227D01*
X146040631Y-86718209D01*
X146043837Y-86713251D01*
X146086584Y-86663299D01*
X146137087Y-86625204D01*
X146198676Y-86594076D01*
X146205445Y-86591347D01*
X146149044Y-86557570D01*
X146099451Y-86514526D01*
X146083541Y-86494878D01*
X146051596Y-86437300D01*
X146034395Y-86373440D01*
X146032972Y-86353432D01*
X146365192Y-86353432D01*
X146382959Y-86415048D01*
X146406447Y-86440285D01*
X146465429Y-86467739D01*
X146516874Y-86473165D01*
X146578651Y-86462860D01*
X146617065Y-86440595D01*
X146652612Y-86386722D01*
X146656459Y-86356224D01*
X146638825Y-86294202D01*
X146615514Y-86268751D01*
X146558800Y-86240520D01*
X146510670Y-86234940D01*
X146448859Y-86244308D01*
X146405516Y-86268131D01*
X146369957Y-86319701D01*
X146365192Y-86353432D01*
X146032972Y-86353432D01*
X146031119Y-86327377D01*
X146038347Y-86261968D01*
X146060033Y-86201991D01*
X146096176Y-86147448D01*
X146146776Y-86098336D01*
X146182181Y-86072712D01*
X146237265Y-86043100D01*
X146299652Y-86020761D01*
X146369342Y-86005696D01*
X146434889Y-85998571D01*
X146493610Y-85996716D01*
X146555648Y-85998199D01*
G37*
D12*
G36*
X135915369Y-83932295D02*
G01*
X135489898Y-83814325D01*
X135915369Y-83697577D01*
X135915369Y-83932295D01*
G37*
G36*
X136354742Y-85017690D02*
G01*
X135210259Y-85017690D01*
X135210259Y-84493076D01*
X135321370Y-84493076D01*
X135321870Y-84516657D01*
X135326651Y-84567565D01*
X135336493Y-84615498D01*
X135353366Y-84665267D01*
X135357448Y-84674735D01*
X135381267Y-84719409D01*
X135410762Y-84759647D01*
X135445934Y-84795449D01*
X135457580Y-84805261D01*
X135499902Y-84834838D01*
X135547615Y-84859596D01*
X135595166Y-84877759D01*
X135640824Y-84890368D01*
X135689627Y-84899374D01*
X135741575Y-84904778D01*
X135796667Y-84906579D01*
X135837121Y-84905652D01*
X135888122Y-84901530D01*
X135941484Y-84892952D01*
X135990595Y-84880201D01*
X135995790Y-84878513D01*
X136044820Y-84859012D01*
X136088554Y-84834741D01*
X136130547Y-84802532D01*
X136162961Y-84768209D01*
X136192391Y-84725220D01*
X136215299Y-84676747D01*
X136221939Y-84657776D01*
X136234667Y-84607310D01*
X136241390Y-84558180D01*
X136243631Y-84505533D01*
X136243448Y-84490462D01*
X136239922Y-84438857D01*
X136231907Y-84389029D01*
X136228022Y-84371455D01*
X136213970Y-84321232D01*
X136196736Y-84273258D01*
X136040421Y-84273258D01*
X136041550Y-84276111D01*
X136058251Y-84322351D01*
X136059834Y-84327305D01*
X136073150Y-84376084D01*
X136074319Y-84381161D01*
X136083408Y-84429573D01*
X136087316Y-84478666D01*
X136087135Y-84490377D01*
X136081525Y-84541053D01*
X136066799Y-84588087D01*
X136043486Y-84627539D01*
X136007204Y-84663558D01*
X136004745Y-84665390D01*
X135960857Y-84690616D01*
X135911949Y-84707277D01*
X135886553Y-84712702D01*
X135835604Y-84719241D01*
X135784210Y-84721199D01*
X135763419Y-84720865D01*
X135711928Y-84716871D01*
X135660623Y-84707521D01*
X135657127Y-84706637D01*
X135608294Y-84689814D01*
X135563659Y-84664535D01*
X135527450Y-84631257D01*
X135500400Y-84590041D01*
X135495076Y-84578393D01*
X135481434Y-84529550D01*
X135477685Y-84480620D01*
X135480372Y-84435008D01*
X135488432Y-84384632D01*
X135492148Y-84367939D01*
X135506360Y-84319800D01*
X135524580Y-84273258D01*
X135352633Y-84273258D01*
X135350366Y-84280432D01*
X135337490Y-84328945D01*
X135336736Y-84332271D01*
X135327720Y-84381702D01*
X135327272Y-84384972D01*
X135322836Y-84434946D01*
X135322413Y-84443514D01*
X135321370Y-84493076D01*
X135210259Y-84493076D01*
X135210259Y-83689273D01*
X135337002Y-83689273D01*
X135337002Y-83814325D01*
X135337002Y-83925456D01*
X136228000Y-84191436D01*
X136228000Y-84023642D01*
X136056053Y-83972839D01*
X136056053Y-83659720D01*
X136228000Y-83610138D01*
X136228000Y-83423293D01*
X135337002Y-83689273D01*
X135210259Y-83689273D01*
X135210259Y-82864709D01*
X135337002Y-82864709D01*
X135583198Y-82864709D01*
X135976429Y-82864709D01*
X135872138Y-82907940D01*
X135337002Y-83153160D01*
X135337002Y-83360766D01*
X136228000Y-83360766D01*
X136228000Y-83206893D01*
X135951272Y-83206893D01*
X135581733Y-83206893D01*
X135696283Y-83157312D01*
X136228000Y-82916977D01*
X136228000Y-82710836D01*
X135337002Y-82710836D01*
X135337002Y-82864709D01*
X135210259Y-82864709D01*
X135210259Y-82599725D01*
X136354742Y-82599725D01*
X136354742Y-85017690D01*
G37*
D13*
G36*
X165200631Y-82513870D02*
G01*
X165192014Y-82489883D01*
X165184988Y-82464772D01*
X165183046Y-82455985D01*
X165179038Y-82431071D01*
X165177275Y-82405268D01*
X165177184Y-82397733D01*
X165178304Y-82371409D01*
X165181666Y-82346844D01*
X165188030Y-82321611D01*
X165191350Y-82312126D01*
X165202804Y-82287889D01*
X165217519Y-82266395D01*
X165233726Y-82249233D01*
X165254722Y-82233129D01*
X165276589Y-82220993D01*
X165301104Y-82211243D01*
X165303702Y-82210399D01*
X165328257Y-82204023D01*
X165354938Y-82199734D01*
X165380439Y-82197673D01*
X165400666Y-82197210D01*
X165428212Y-82198110D01*
X165454186Y-82200812D01*
X165478587Y-82205315D01*
X165501416Y-82211620D01*
X165525192Y-82220701D01*
X165549048Y-82233080D01*
X165570209Y-82247869D01*
X165576032Y-82252775D01*
X165593618Y-82270676D01*
X165608366Y-82290795D01*
X165620275Y-82313132D01*
X165622316Y-82317866D01*
X165630753Y-82342750D01*
X165635674Y-82366717D01*
X165638064Y-82392171D01*
X165638314Y-82403961D01*
X165637793Y-82428742D01*
X165637581Y-82433026D01*
X165635363Y-82458013D01*
X165635139Y-82459648D01*
X165630631Y-82484364D01*
X165630254Y-82486027D01*
X165623816Y-82510283D01*
X165622683Y-82513870D01*
X165536709Y-82513870D01*
X165545819Y-82490599D01*
X165552925Y-82466530D01*
X165554783Y-82458183D01*
X165558813Y-82432995D01*
X165560157Y-82410189D01*
X165558282Y-82385724D01*
X165551461Y-82361303D01*
X165548799Y-82355479D01*
X165535274Y-82334871D01*
X165517170Y-82318232D01*
X165494852Y-82305592D01*
X165470436Y-82297181D01*
X165468688Y-82296739D01*
X165443035Y-82292064D01*
X165417290Y-82290067D01*
X165406894Y-82289900D01*
X165381197Y-82290879D01*
X165355723Y-82294148D01*
X165343025Y-82296861D01*
X165318571Y-82305191D01*
X165296627Y-82317804D01*
X165295397Y-82318720D01*
X165277256Y-82336730D01*
X165265600Y-82356456D01*
X165258237Y-82379973D01*
X165255432Y-82405311D01*
X165255341Y-82411166D01*
X165257295Y-82435713D01*
X165261840Y-82459919D01*
X165262424Y-82462457D01*
X165269082Y-82486847D01*
X165269874Y-82489324D01*
X165278224Y-82512444D01*
X165278789Y-82513870D01*
X165200631Y-82513870D01*
G37*
G36*
X165630498Y-82687771D02*
G01*
X165630498Y-82805863D01*
X165185000Y-82938853D01*
X165185000Y-82845430D01*
X165270973Y-82820639D01*
X165270973Y-82801711D01*
X165341315Y-82801711D01*
X165554050Y-82743337D01*
X165341315Y-82684352D01*
X165341315Y-82801711D01*
X165270973Y-82801711D01*
X165270973Y-82664080D01*
X165185000Y-82638678D01*
X165185000Y-82554781D01*
X165630498Y-82687771D01*
G37*
G36*
X165185000Y-83192011D02*
G01*
X165450858Y-83071843D01*
X165508133Y-83047053D01*
X165323363Y-83047053D01*
X165185000Y-83047053D01*
X165185000Y-82970116D01*
X165630498Y-82970116D01*
X165630498Y-83073919D01*
X165362930Y-83196529D01*
X165310785Y-83218145D01*
X165507400Y-83218145D01*
X165630498Y-83218145D01*
X165630498Y-83295081D01*
X165185000Y-83295081D01*
X165185000Y-83192011D01*
G37*
G36*
X165185000Y-83389969D02*
G01*
X165630498Y-83389969D01*
X165630498Y-83475821D01*
X165255341Y-83475821D01*
X165255341Y-83665475D01*
X165185000Y-83665475D01*
X165185000Y-83389969D01*
G37*
G36*
X135027368Y-83348129D02*
G01*
X135035985Y-83372116D01*
X135043011Y-83397227D01*
X135044953Y-83406014D01*
X135048961Y-83430928D01*
X135050724Y-83456731D01*
X135050815Y-83464266D01*
X135049695Y-83490590D01*
X135046333Y-83515155D01*
X135039969Y-83540388D01*
X135036649Y-83549873D01*
X135025195Y-83574110D01*
X135010480Y-83595604D01*
X134994273Y-83612766D01*
X134973277Y-83628870D01*
X134951410Y-83641006D01*
X134926895Y-83650756D01*
X134924297Y-83651600D01*
X134899742Y-83657976D01*
X134873061Y-83662265D01*
X134847560Y-83664326D01*
X134827333Y-83664789D01*
X134799787Y-83663889D01*
X134773813Y-83661187D01*
X134749412Y-83656684D01*
X134726583Y-83650379D01*
X134702807Y-83641298D01*
X134678951Y-83628919D01*
X134657790Y-83614130D01*
X134651967Y-83609224D01*
X134634381Y-83591323D01*
X134619633Y-83571204D01*
X134607724Y-83548867D01*
X134605683Y-83544133D01*
X134597246Y-83519249D01*
X134592325Y-83495282D01*
X134589935Y-83469828D01*
X134589685Y-83458038D01*
X134590206Y-83433257D01*
X134590418Y-83428973D01*
X134592636Y-83403986D01*
X134592860Y-83402351D01*
X134597368Y-83377635D01*
X134597745Y-83375972D01*
X134604183Y-83351716D01*
X134605316Y-83348129D01*
X134691290Y-83348129D01*
X134682180Y-83371400D01*
X134675074Y-83395469D01*
X134673216Y-83403816D01*
X134669186Y-83429004D01*
X134667842Y-83451810D01*
X134669717Y-83476275D01*
X134676538Y-83500696D01*
X134679200Y-83506520D01*
X134692725Y-83527128D01*
X134710829Y-83543767D01*
X134733147Y-83556407D01*
X134757563Y-83564818D01*
X134759311Y-83565260D01*
X134784964Y-83569935D01*
X134810709Y-83571932D01*
X134821105Y-83572099D01*
X134846802Y-83571120D01*
X134872276Y-83567851D01*
X134884974Y-83565138D01*
X134909428Y-83556808D01*
X134931372Y-83544195D01*
X134932602Y-83543279D01*
X134950743Y-83525269D01*
X134962399Y-83505543D01*
X134969762Y-83482026D01*
X134972567Y-83456688D01*
X134972658Y-83450833D01*
X134970704Y-83426286D01*
X134966159Y-83402080D01*
X134965575Y-83399542D01*
X134958917Y-83375152D01*
X134958125Y-83372675D01*
X134949775Y-83349555D01*
X134949210Y-83348129D01*
X135027368Y-83348129D01*
G37*
G36*
X135043000Y-83016569D02*
G01*
X134957026Y-83041360D01*
X134957026Y-83197919D01*
X135043000Y-83223321D01*
X135043000Y-83307218D01*
X134597501Y-83174228D01*
X134597501Y-83118662D01*
X134673949Y-83118662D01*
X134886684Y-83177647D01*
X134886684Y-83060288D01*
X134673949Y-83118662D01*
X134597501Y-83118662D01*
X134597501Y-83056136D01*
X135043000Y-82923146D01*
X135043000Y-83016569D01*
G37*
G36*
X135043000Y-82669988D02*
G01*
X134777141Y-82790156D01*
X134719866Y-82814946D01*
X134904636Y-82814946D01*
X135043000Y-82814946D01*
X135043000Y-82891883D01*
X134597501Y-82891883D01*
X134597501Y-82788080D01*
X134865069Y-82665470D01*
X134917214Y-82643854D01*
X134720599Y-82643854D01*
X134597501Y-82643854D01*
X134597501Y-82566918D01*
X135043000Y-82566918D01*
X135043000Y-82669988D01*
G37*
G36*
X135043000Y-82472030D02*
G01*
X134597501Y-82472030D01*
X134597501Y-82386178D01*
X134972658Y-82386178D01*
X134972658Y-82196524D01*
X135043000Y-82196524D01*
X135043000Y-82472030D01*
G37*
G36*
X165200631Y-84164870D02*
G01*
X165192014Y-84140883D01*
X165184988Y-84115772D01*
X165183046Y-84106985D01*
X165179038Y-84082071D01*
X165177275Y-84056268D01*
X165177184Y-84048733D01*
X165178304Y-84022409D01*
X165181666Y-83997844D01*
X165188030Y-83972611D01*
X165191350Y-83963126D01*
X165202804Y-83938889D01*
X165217519Y-83917395D01*
X165233726Y-83900233D01*
X165254722Y-83884129D01*
X165276589Y-83871993D01*
X165301104Y-83862243D01*
X165303702Y-83861399D01*
X165328257Y-83855023D01*
X165354938Y-83850734D01*
X165380439Y-83848673D01*
X165400666Y-83848210D01*
X165428212Y-83849110D01*
X165454186Y-83851812D01*
X165478587Y-83856315D01*
X165501416Y-83862620D01*
X165525192Y-83871701D01*
X165549048Y-83884080D01*
X165570209Y-83898869D01*
X165576032Y-83903775D01*
X165593618Y-83921676D01*
X165608366Y-83941795D01*
X165620275Y-83964132D01*
X165622316Y-83968866D01*
X165630753Y-83993750D01*
X165635674Y-84017717D01*
X165638064Y-84043171D01*
X165638314Y-84054961D01*
X165637793Y-84079742D01*
X165637581Y-84084026D01*
X165635363Y-84109013D01*
X165635139Y-84110648D01*
X165630631Y-84135364D01*
X165630254Y-84137027D01*
X165623816Y-84161283D01*
X165622683Y-84164870D01*
X165536709Y-84164870D01*
X165545819Y-84141599D01*
X165552925Y-84117530D01*
X165554783Y-84109183D01*
X165558813Y-84083995D01*
X165560157Y-84061189D01*
X165558282Y-84036724D01*
X165551461Y-84012303D01*
X165548799Y-84006479D01*
X165535274Y-83985871D01*
X165517170Y-83969232D01*
X165494852Y-83956592D01*
X165470436Y-83948181D01*
X165468688Y-83947739D01*
X165443035Y-83943064D01*
X165417290Y-83941067D01*
X165406894Y-83940900D01*
X165381197Y-83941879D01*
X165355723Y-83945148D01*
X165343025Y-83947861D01*
X165318571Y-83956191D01*
X165296627Y-83968804D01*
X165295397Y-83969720D01*
X165277256Y-83987730D01*
X165265600Y-84007456D01*
X165258237Y-84030973D01*
X165255432Y-84056311D01*
X165255341Y-84062166D01*
X165257295Y-84086713D01*
X165261840Y-84110919D01*
X165262424Y-84113457D01*
X165269082Y-84137847D01*
X165269874Y-84140324D01*
X165278224Y-84163444D01*
X165278789Y-84164870D01*
X165200631Y-84164870D01*
G37*
G36*
X165630498Y-84338771D02*
G01*
X165630498Y-84456863D01*
X165185000Y-84589853D01*
X165185000Y-84496430D01*
X165270973Y-84471639D01*
X165270973Y-84452711D01*
X165341315Y-84452711D01*
X165554050Y-84394337D01*
X165341315Y-84335352D01*
X165341315Y-84452711D01*
X165270973Y-84452711D01*
X165270973Y-84315080D01*
X165185000Y-84289678D01*
X165185000Y-84205781D01*
X165630498Y-84338771D01*
G37*
G36*
X165185000Y-84843011D02*
G01*
X165450858Y-84722843D01*
X165508133Y-84698053D01*
X165323363Y-84698053D01*
X165185000Y-84698053D01*
X165185000Y-84621116D01*
X165630498Y-84621116D01*
X165630498Y-84724919D01*
X165362930Y-84847529D01*
X165310785Y-84869145D01*
X165507400Y-84869145D01*
X165630498Y-84869145D01*
X165630498Y-84946081D01*
X165185000Y-84946081D01*
X165185000Y-84843011D01*
G37*
G36*
X165185000Y-85242958D02*
G01*
X165380394Y-85242958D01*
X165380394Y-85090429D01*
X165185000Y-85090429D01*
X165185000Y-85005921D01*
X165630498Y-85005921D01*
X165630498Y-85090429D01*
X165450736Y-85090429D01*
X165450736Y-85242958D01*
X165630498Y-85242958D01*
X165630498Y-85327466D01*
X165185000Y-85327466D01*
X165185000Y-85242958D01*
G37*
D11*
G36*
X149064543Y-86056272D02*
G01*
X149002883Y-86071052D01*
X148962385Y-86118773D01*
X148954116Y-86143435D01*
X148806467Y-86756987D01*
X148793768Y-86822369D01*
X148782345Y-86886932D01*
X148774517Y-86929762D01*
X148751563Y-86929762D01*
X148741165Y-86865472D01*
X148729099Y-86800690D01*
X148719304Y-86756987D01*
X148570103Y-86143435D01*
X148540486Y-86084409D01*
X148484306Y-86057689D01*
X148463398Y-86056272D01*
X148201909Y-86056272D01*
X148138151Y-86073559D01*
X148104498Y-86129104D01*
X148100788Y-86157703D01*
X148056121Y-87287100D01*
X148312337Y-87287100D01*
X148347698Y-86268131D01*
X148378096Y-86268131D01*
X148564830Y-87029643D01*
X148592134Y-87086188D01*
X148648303Y-87114420D01*
X148674947Y-87116496D01*
X148852685Y-87116496D01*
X148914893Y-87102375D01*
X148955464Y-87054906D01*
X148963112Y-87029643D01*
X149147984Y-86268131D01*
X149178072Y-86268131D01*
X149219017Y-87287100D01*
X149475233Y-87287100D01*
X149427154Y-86157703D01*
X149411581Y-86096711D01*
X149359342Y-86059997D01*
X149325722Y-86056272D01*
X149064543Y-86056272D01*
G37*
G36*
X150183559Y-86378548D02*
G01*
X150259878Y-86389047D01*
X150326213Y-86407085D01*
X150382972Y-86433101D01*
X150444455Y-86480959D01*
X150490599Y-86544825D01*
X150515719Y-86603859D01*
X150533159Y-86672924D01*
X150543325Y-86752461D01*
X150546624Y-86842910D01*
X150543325Y-86932837D01*
X150533159Y-87011861D01*
X150515719Y-87080432D01*
X150490599Y-87138998D01*
X150444455Y-87202302D01*
X150382972Y-87249684D01*
X150326213Y-87275412D01*
X150259878Y-87293234D01*
X150183559Y-87303597D01*
X150096851Y-87306952D01*
X150009666Y-87303597D01*
X149932960Y-87293234D01*
X149866318Y-87275412D01*
X149809322Y-87249684D01*
X149747617Y-87202302D01*
X149701339Y-87138998D01*
X149676162Y-87080432D01*
X149658693Y-87011861D01*
X149648516Y-86932837D01*
X149645216Y-86842910D01*
X149920663Y-86842910D01*
X149921119Y-86880972D01*
X149925041Y-86946545D01*
X149936551Y-87010308D01*
X149967608Y-87069900D01*
X150029103Y-87103288D01*
X150096851Y-87109672D01*
X150121044Y-87109014D01*
X150189277Y-87094531D01*
X150239426Y-87048255D01*
X150260579Y-86987095D01*
X150269220Y-86915466D01*
X150271176Y-86842910D01*
X150270701Y-86804243D01*
X150266651Y-86737664D01*
X150254931Y-86672979D01*
X150223791Y-86612609D01*
X150163044Y-86578860D01*
X150096851Y-86572425D01*
X150072022Y-86573088D01*
X150002443Y-86587702D01*
X149951954Y-86634524D01*
X149930985Y-86696519D01*
X149922547Y-86769214D01*
X149920663Y-86842910D01*
X149645216Y-86842910D01*
X149648516Y-86752461D01*
X149658693Y-86672924D01*
X149676162Y-86603859D01*
X149701339Y-86544825D01*
X149747617Y-86480959D01*
X149809322Y-86433101D01*
X149866318Y-86407085D01*
X149932960Y-86389047D01*
X150009666Y-86378548D01*
X150096851Y-86375146D01*
X150183559Y-86378548D01*
G37*
G36*
X151063708Y-86589796D02*
G01*
X151307206Y-86589796D01*
X151307206Y-86413609D01*
X151063708Y-86413609D01*
X151063708Y-86168250D01*
X150802219Y-86168250D01*
X150802219Y-86413609D01*
X150647435Y-86422604D01*
X150647435Y-86589796D01*
X150802219Y-86589796D01*
X150802219Y-87054768D01*
X150808887Y-87124624D01*
X150828486Y-87184044D01*
X150868212Y-87240765D01*
X150924622Y-87280637D01*
X150983615Y-87300277D01*
X151052851Y-87306952D01*
X151116478Y-87304049D01*
X151183769Y-87296725D01*
X151250410Y-87285120D01*
X151300071Y-87271590D01*
X151271534Y-87088269D01*
X151159556Y-87088269D01*
X151098013Y-87077653D01*
X151064913Y-87022752D01*
X151063708Y-87000175D01*
X151063708Y-86589796D01*
G37*
G36*
X151954114Y-86378548D02*
G01*
X152030433Y-86389047D01*
X152096769Y-86407085D01*
X152153528Y-86433101D01*
X152215011Y-86480959D01*
X152261154Y-86544825D01*
X152286275Y-86603859D01*
X152303715Y-86672924D01*
X152313881Y-86752461D01*
X152317179Y-86842910D01*
X152313881Y-86932837D01*
X152303715Y-87011861D01*
X152286275Y-87080432D01*
X152261154Y-87138998D01*
X152215011Y-87202302D01*
X152153528Y-87249684D01*
X152096769Y-87275412D01*
X152030433Y-87293234D01*
X151954114Y-87303597D01*
X151867406Y-87306952D01*
X151780222Y-87303597D01*
X151703516Y-87293234D01*
X151636873Y-87275412D01*
X151579878Y-87249684D01*
X151518173Y-87202302D01*
X151471895Y-87138998D01*
X151446717Y-87080432D01*
X151429248Y-87011861D01*
X151419072Y-86932837D01*
X151415772Y-86842910D01*
X151691219Y-86842910D01*
X151691674Y-86880972D01*
X151695597Y-86946545D01*
X151707107Y-87010308D01*
X151738163Y-87069900D01*
X151799659Y-87103288D01*
X151867406Y-87109672D01*
X151891600Y-87109014D01*
X151959832Y-87094531D01*
X152009982Y-87048255D01*
X152031134Y-86987095D01*
X152039776Y-86915466D01*
X152041732Y-86842910D01*
X152041257Y-86804243D01*
X152037207Y-86737664D01*
X152025487Y-86672979D01*
X151994346Y-86612609D01*
X151933599Y-86578860D01*
X151867406Y-86572425D01*
X151842578Y-86573088D01*
X151772998Y-86587702D01*
X151722509Y-86634524D01*
X151701540Y-86696519D01*
X151693103Y-86769214D01*
X151691219Y-86842910D01*
X151415772Y-86842910D01*
X151419072Y-86752461D01*
X151429248Y-86672924D01*
X151446717Y-86603859D01*
X151471895Y-86544825D01*
X151518173Y-86480959D01*
X151579878Y-86433101D01*
X151636873Y-86407085D01*
X151703516Y-86389047D01*
X151780222Y-86378548D01*
X151867406Y-86375146D01*
X151954114Y-86378548D01*
G37*
G36*
X153125840Y-86388484D02*
G01*
X153079622Y-86388484D01*
X153014707Y-86394064D01*
X152948173Y-86410615D01*
X152880755Y-86437857D01*
X152824430Y-86468520D01*
X152768428Y-86506248D01*
X152724146Y-86541407D01*
X152700882Y-86413609D01*
X152496468Y-86413609D01*
X152496468Y-87287100D01*
X152759818Y-87287100D01*
X152759818Y-86692468D01*
X152821713Y-86672373D01*
X152885087Y-86653839D01*
X152948890Y-86639418D01*
X153014087Y-86632231D01*
X153028131Y-86631982D01*
X153099164Y-86631982D01*
X153125840Y-86388484D01*
G37*
G36*
X154219565Y-86817164D02*
G01*
X154066642Y-86817164D01*
X154066642Y-86293566D01*
X153860367Y-86293566D01*
X153815699Y-86488054D01*
X153815699Y-86817164D01*
X153518849Y-86817164D01*
X153479167Y-86769318D01*
X153483177Y-86758849D01*
X153775065Y-86056272D01*
X153518849Y-86056272D01*
X153200596Y-86810340D01*
X153188127Y-86874478D01*
X153205738Y-86939842D01*
X153251761Y-86987764D01*
X153310764Y-87008028D01*
X153330255Y-87009171D01*
X153815699Y-87009171D01*
X153815699Y-87287100D01*
X154066642Y-87287100D01*
X154066642Y-87009171D01*
X154070054Y-87009171D01*
X154219565Y-86984356D01*
X154219565Y-86817164D01*
G37*
G36*
X154375279Y-86283950D02*
G01*
X154446117Y-86278130D01*
X154508490Y-86273886D01*
X154575661Y-86270535D01*
X154638514Y-86268687D01*
X154701342Y-86267928D01*
X154745334Y-86267820D01*
X154809730Y-86269686D01*
X154874533Y-86283668D01*
X154911296Y-86336778D01*
X154912215Y-86349710D01*
X154902323Y-86411038D01*
X154876468Y-86470129D01*
X154842980Y-86524244D01*
X154798885Y-86583007D01*
X154756130Y-86633503D01*
X154706856Y-86687212D01*
X154693533Y-86701154D01*
X154393270Y-87025921D01*
X154361084Y-87079718D01*
X154353876Y-87136038D01*
X154353876Y-87287100D01*
X155223645Y-87287100D01*
X155223645Y-87043602D01*
X154855451Y-87043602D01*
X154787731Y-87044747D01*
X154724533Y-87049020D01*
X154673991Y-87056009D01*
X154988832Y-86727830D01*
X155031156Y-86681278D01*
X155078106Y-86624764D01*
X155115160Y-86573170D01*
X155149122Y-86513218D01*
X155174398Y-86443917D01*
X155186057Y-86372527D01*
X155187973Y-86321173D01*
X155180606Y-86242055D01*
X155159048Y-86178404D01*
X155113384Y-86118281D01*
X155048410Y-86076997D01*
X154983595Y-86055543D01*
X154908253Y-86042736D01*
X154845328Y-86037892D01*
X154777284Y-86036420D01*
X154707801Y-86037313D01*
X154637562Y-86040558D01*
X154563978Y-86047001D01*
X154498236Y-86055424D01*
X154426874Y-86067145D01*
X154364733Y-86079226D01*
X154375279Y-86283950D01*
G37*
D14*
G36*
X157668638Y-89253431D02*
G01*
X157707448Y-89268690D01*
X157733306Y-89298799D01*
X157743234Y-89325605D01*
X157747310Y-89364490D01*
X157744626Y-89406815D01*
X157737409Y-89449839D01*
X157730406Y-89479330D01*
X157716741Y-89521178D01*
X157697747Y-89560404D01*
X157672147Y-89594235D01*
X157652310Y-89612051D01*
X157617084Y-89632412D01*
X157577186Y-89639958D01*
X157540439Y-89633661D01*
X157506367Y-89609481D01*
X157486327Y-89575478D01*
X157480124Y-89553194D01*
X157477621Y-89513153D01*
X157481004Y-89474169D01*
X157487891Y-89434989D01*
X157494514Y-89407318D01*
X157507770Y-89367827D01*
X157526595Y-89330436D01*
X157552371Y-89297627D01*
X157575598Y-89277794D01*
X157612546Y-89258670D01*
X157652022Y-89252295D01*
X157668638Y-89253431D01*
G37*
G36*
X156984164Y-89439874D02*
G01*
X156803034Y-89439874D01*
X157039265Y-89174919D01*
X156984164Y-89439874D01*
G37*
G36*
X158748559Y-89841394D02*
G01*
X156050390Y-89841394D01*
X156050390Y-89277306D01*
X156139279Y-89277306D01*
X156154318Y-89272053D01*
X156191213Y-89257412D01*
X156227106Y-89240614D01*
X156261997Y-89221661D01*
X156295887Y-89200551D01*
X156328775Y-89177285D01*
X156360661Y-89151863D01*
X156238344Y-89740000D01*
X156389189Y-89740000D01*
X156422992Y-89577431D01*
X156633236Y-89577431D01*
X156955637Y-89577431D01*
X156921833Y-89740000D01*
X157067988Y-89740000D01*
X157274520Y-89740000D01*
X157414813Y-89740000D01*
X157432594Y-89654221D01*
X157442319Y-89671754D01*
X157467772Y-89703851D01*
X157499224Y-89727885D01*
X157509970Y-89733655D01*
X157549122Y-89747792D01*
X157590668Y-89752505D01*
X157627504Y-89749654D01*
X157665829Y-89740000D01*
X157964653Y-89740000D01*
X158115888Y-89740000D01*
X158132172Y-89661626D01*
X158308536Y-89661626D01*
X158316949Y-89700725D01*
X158325432Y-89714193D01*
X158357395Y-89738046D01*
X158387826Y-89748424D01*
X158428128Y-89752505D01*
X158432283Y-89752485D01*
X158472781Y-89750104D01*
X158511372Y-89743753D01*
X158551617Y-89732184D01*
X158560801Y-89625108D01*
X158536174Y-89632939D01*
X158496907Y-89639958D01*
X158473264Y-89631751D01*
X158464276Y-89610453D01*
X158465449Y-89598083D01*
X158472373Y-89558504D01*
X158480103Y-89519986D01*
X158533250Y-89264801D01*
X158636418Y-89264801D01*
X158659670Y-89152254D01*
X158556502Y-89152254D01*
X158598121Y-88952170D01*
X158428323Y-89039706D01*
X158404876Y-89152254D01*
X158335511Y-89152254D01*
X158312259Y-89264801D01*
X158381624Y-89264801D01*
X158327109Y-89526824D01*
X158321105Y-89556420D01*
X158313725Y-89596922D01*
X158308742Y-89638785D01*
X158308536Y-89661626D01*
X158132172Y-89661626D01*
X158238009Y-89152254D01*
X158086774Y-89152254D01*
X157964653Y-89740000D01*
X157665829Y-89740000D01*
X157669315Y-89739122D01*
X157709874Y-89720829D01*
X157743641Y-89698974D01*
X157776488Y-89671416D01*
X157806937Y-89638517D01*
X157833513Y-89600781D01*
X157852699Y-89565641D01*
X157869195Y-89527142D01*
X157883000Y-89485285D01*
X157894115Y-89440069D01*
X157897579Y-89422186D01*
X157903420Y-89379789D01*
X157905234Y-89340693D01*
X157902098Y-89298135D01*
X157891110Y-89254492D01*
X157872231Y-89217320D01*
X157865529Y-89207926D01*
X157834614Y-89176413D01*
X157797129Y-89154596D01*
X157758940Y-89143460D01*
X157715720Y-89139748D01*
X157680192Y-89142606D01*
X157639507Y-89153163D01*
X157599644Y-89171500D01*
X157566131Y-89193408D01*
X157533222Y-89221032D01*
X157565753Y-89064717D01*
X158105141Y-89064717D01*
X158256376Y-89064717D01*
X158284904Y-88927159D01*
X158133669Y-88927159D01*
X158105141Y-89064717D01*
X157565753Y-89064717D01*
X157594381Y-88927159D01*
X157443536Y-88927159D01*
X157321689Y-89513153D01*
X157274520Y-89740000D01*
X157067988Y-89740000D01*
X157101792Y-89577431D01*
X157199684Y-89577431D01*
X157228212Y-89439874D01*
X157130319Y-89439874D01*
X157234464Y-88939665D01*
X157107849Y-88939665D01*
X156662286Y-89439874D01*
X156661764Y-89440460D01*
X156633236Y-89577431D01*
X156422992Y-89577431D01*
X156558205Y-88927159D01*
X156435692Y-88927159D01*
X156430432Y-88936126D01*
X156406276Y-88970589D01*
X156377138Y-89002804D01*
X156347555Y-89029150D01*
X156314157Y-89053775D01*
X156284580Y-89072849D01*
X156247046Y-89094476D01*
X156207419Y-89113611D01*
X156170542Y-89127243D01*
X156139279Y-89277306D01*
X156050390Y-89277306D01*
X156050390Y-88838270D01*
X158748559Y-88838270D01*
X158748559Y-89841394D01*
G37*
G36*
X149683962Y-88470000D02*
G01*
X149852978Y-87657159D01*
X150091163Y-87657159D01*
X150118714Y-88211688D01*
X150375462Y-87657159D01*
X150614039Y-87657159D01*
X150445023Y-88470000D01*
X150297304Y-88470000D01*
X150430368Y-87830083D01*
X150140794Y-88470000D01*
X149987605Y-88470000D01*
X149964743Y-87830083D01*
X149831680Y-88470000D01*
X149683962Y-88470000D01*
G37*
G36*
X151006909Y-87870926D02*
G01*
X151047709Y-87875158D01*
X151088681Y-87884775D01*
X151110731Y-87894368D01*
X151143407Y-87918453D01*
X151165731Y-87952208D01*
X151167395Y-87956894D01*
X151171883Y-87998015D01*
X151168529Y-88038762D01*
X151162266Y-88077400D01*
X151158602Y-88095819D01*
X151119133Y-88277145D01*
X151111357Y-88317455D01*
X151105211Y-88357990D01*
X151102720Y-88391256D01*
X151105558Y-88431775D01*
X151113466Y-88470000D01*
X150964185Y-88470000D01*
X150960189Y-88429993D01*
X150959691Y-88422323D01*
X150958323Y-88403370D01*
X150925810Y-88428285D01*
X150890026Y-88450093D01*
X150862971Y-88462770D01*
X150823594Y-88475547D01*
X150783572Y-88481811D01*
X150764883Y-88482505D01*
X150723789Y-88479403D01*
X150684653Y-88468498D01*
X150649978Y-88447172D01*
X150636118Y-88432875D01*
X150614961Y-88395637D01*
X150607267Y-88356375D01*
X150609740Y-88316634D01*
X150611498Y-88307236D01*
X150615453Y-88294340D01*
X150765274Y-88294340D01*
X150769127Y-88334379D01*
X150777779Y-88347683D01*
X150812328Y-88367782D01*
X150833466Y-88369958D01*
X150872138Y-88364247D01*
X150908928Y-88348614D01*
X150916900Y-88343970D01*
X150946974Y-88318828D01*
X150963013Y-88295512D01*
X150976340Y-88256251D01*
X150983725Y-88223998D01*
X150989782Y-88194884D01*
X150950068Y-88205191D01*
X150908934Y-88214140D01*
X150893062Y-88217355D01*
X150853209Y-88226175D01*
X150815459Y-88238053D01*
X150805720Y-88242756D01*
X150776189Y-88269079D01*
X150765274Y-88294340D01*
X150615453Y-88294340D01*
X150623457Y-88268241D01*
X150642188Y-88232858D01*
X150653117Y-88217745D01*
X150680970Y-88188740D01*
X150713723Y-88165861D01*
X150730494Y-88157369D01*
X150770107Y-88142430D01*
X150810800Y-88131115D01*
X150853395Y-88121812D01*
X150858477Y-88120830D01*
X150897488Y-88113166D01*
X150937149Y-88104485D01*
X150978882Y-88093737D01*
X151013034Y-88082337D01*
X151016355Y-88066510D01*
X151019140Y-88027529D01*
X151008344Y-88001639D01*
X150970120Y-87985016D01*
X150931359Y-87982295D01*
X150892410Y-87986983D01*
X150864729Y-87998904D01*
X150835040Y-88027513D01*
X150816076Y-88057327D01*
X150684381Y-88032316D01*
X150706033Y-87993579D01*
X150730738Y-87960216D01*
X150758496Y-87932226D01*
X150789307Y-87909609D01*
X150824637Y-87892170D01*
X150865755Y-87879713D01*
X150906482Y-87872901D01*
X150951641Y-87869904D01*
X150965357Y-87869748D01*
X151006909Y-87870926D01*
G37*
G36*
X151615706Y-87874077D02*
G01*
X151653989Y-87887064D01*
X151686904Y-87908709D01*
X151714453Y-87939012D01*
X151727786Y-87960216D01*
X151744004Y-87882254D01*
X151885469Y-87882254D01*
X151776048Y-88409036D01*
X151766288Y-88451999D01*
X151755986Y-88489932D01*
X151743548Y-88527124D01*
X151727004Y-88564375D01*
X151705371Y-88599812D01*
X151679081Y-88631193D01*
X151663697Y-88645073D01*
X151628664Y-88668287D01*
X151590039Y-88685490D01*
X151573620Y-88690990D01*
X151533931Y-88700446D01*
X151493081Y-88705636D01*
X151452433Y-88707534D01*
X151442901Y-88707599D01*
X151399893Y-88706425D01*
X151354354Y-88701919D01*
X151315437Y-88694033D01*
X151278404Y-88680561D01*
X151247116Y-88659532D01*
X151221936Y-88626971D01*
X151209655Y-88589373D01*
X151210274Y-88546738D01*
X151211945Y-88537606D01*
X151216048Y-88520020D01*
X151383306Y-88545031D01*
X151395811Y-88580983D01*
X151434449Y-88593678D01*
X151460682Y-88595052D01*
X151501339Y-88592524D01*
X151539674Y-88583185D01*
X151553103Y-88577076D01*
X151582779Y-88550844D01*
X151591010Y-88538387D01*
X151605287Y-88499627D01*
X151612699Y-88468241D01*
X151630284Y-88383831D01*
X151597506Y-88413115D01*
X151563505Y-88436340D01*
X151528282Y-88453506D01*
X151485642Y-88465876D01*
X151441338Y-88470000D01*
X151400598Y-88466482D01*
X151359181Y-88453489D01*
X151324346Y-88430921D01*
X151296093Y-88398778D01*
X151279942Y-88369958D01*
X151265654Y-88327984D01*
X151259363Y-88287311D01*
X151258928Y-88248261D01*
X151415084Y-88248261D01*
X151420351Y-88289202D01*
X151429419Y-88311730D01*
X151456924Y-88342986D01*
X151494302Y-88356738D01*
X151506795Y-88357452D01*
X151547223Y-88350858D01*
X151582448Y-88333227D01*
X151609963Y-88310558D01*
X151637162Y-88276841D01*
X151656779Y-88238958D01*
X151670350Y-88199290D01*
X151676983Y-88171632D01*
X151683535Y-88131949D01*
X151685504Y-88092412D01*
X151679688Y-88051715D01*
X151670145Y-88028995D01*
X151643496Y-87998759D01*
X151604194Y-87983436D01*
X151587493Y-87982295D01*
X151548100Y-87988725D01*
X151511399Y-88008014D01*
X151488428Y-88028018D01*
X151462924Y-88061288D01*
X151444179Y-88099258D01*
X151430865Y-88139394D01*
X151424143Y-88167529D01*
X151417383Y-88208089D01*
X151415084Y-88248261D01*
X151258928Y-88248261D01*
X151258869Y-88242954D01*
X151263059Y-88202001D01*
X151268219Y-88173196D01*
X151279136Y-88128793D01*
X151292715Y-88087787D01*
X151308957Y-88050177D01*
X151327860Y-88015964D01*
X151354057Y-87979392D01*
X151384087Y-87947711D01*
X151416712Y-87921216D01*
X151450546Y-87900202D01*
X151491547Y-87882615D01*
X151534193Y-87872489D01*
X151572057Y-87869748D01*
X151615706Y-87874077D01*
G37*
G36*
X152443515Y-88470000D02*
G01*
X152292475Y-88470000D01*
X152355588Y-88166552D01*
X152363176Y-88127662D01*
X152369607Y-88087222D01*
X152372294Y-88047801D01*
X152371806Y-88041891D01*
X152356941Y-88005373D01*
X152349531Y-87997927D01*
X152313252Y-87983043D01*
X152300487Y-87982295D01*
X152259543Y-87988637D01*
X152225064Y-88004766D01*
X152193459Y-88030753D01*
X152170159Y-88064166D01*
X152155550Y-88100683D01*
X152144269Y-88139648D01*
X152134007Y-88182613D01*
X152130103Y-88200746D01*
X152074220Y-88470000D01*
X151923180Y-88470000D01*
X152045302Y-87882254D01*
X152185595Y-87882254D01*
X152167814Y-87968032D01*
X152197999Y-87939718D01*
X152235405Y-87912075D01*
X152274102Y-87891344D01*
X152314091Y-87877523D01*
X152355371Y-87870612D01*
X152376495Y-87869748D01*
X152417832Y-87873301D01*
X152456727Y-87884993D01*
X152463836Y-87888311D01*
X152497410Y-87910901D01*
X152516593Y-87935596D01*
X152529594Y-87972460D01*
X152532615Y-88000858D01*
X152530182Y-88041885D01*
X152524141Y-88080812D01*
X152519328Y-88105198D01*
X152443515Y-88470000D01*
G37*
G36*
X152995945Y-87872778D02*
G01*
X153036103Y-87881866D01*
X153076599Y-87900126D01*
X153110251Y-87926633D01*
X153133648Y-87955917D01*
X153151224Y-87991452D01*
X153162041Y-88033431D01*
X153165892Y-88073335D01*
X153165048Y-88117714D01*
X153159511Y-88166567D01*
X153151701Y-88208871D01*
X153149279Y-88219895D01*
X152770801Y-88219895D01*
X152766408Y-88261256D01*
X152771464Y-88302728D01*
X152784283Y-88330488D01*
X152812568Y-88357469D01*
X152850576Y-88369341D01*
X152863222Y-88369958D01*
X152902602Y-88363689D01*
X152926530Y-88352177D01*
X152955615Y-88325311D01*
X152974988Y-88294926D01*
X153120556Y-88319937D01*
X153099337Y-88352915D01*
X153072110Y-88386163D01*
X153041708Y-88414672D01*
X153008131Y-88438443D01*
X153003711Y-88441081D01*
X152966708Y-88459204D01*
X152926823Y-88472149D01*
X152884056Y-88479916D01*
X152844271Y-88482464D01*
X152838407Y-88482505D01*
X152794222Y-88480067D01*
X152754845Y-88472754D01*
X152713941Y-88457543D01*
X152679961Y-88435312D01*
X152652905Y-88406060D01*
X152638714Y-88382658D01*
X152624398Y-88345609D01*
X152616328Y-88304557D01*
X152614503Y-88259504D01*
X152617910Y-88217702D01*
X152624255Y-88180621D01*
X152635208Y-88136615D01*
X152640914Y-88119853D01*
X152794443Y-88119853D01*
X153020124Y-88119853D01*
X153024173Y-88080889D01*
X153018539Y-88039706D01*
X153007423Y-88017466D01*
X152977235Y-87991088D01*
X152936300Y-87982295D01*
X152894973Y-87989364D01*
X152859746Y-88008586D01*
X152847004Y-88019225D01*
X152820837Y-88050778D01*
X152803657Y-88086219D01*
X152794443Y-88119853D01*
X152640914Y-88119853D01*
X152649137Y-88095700D01*
X152666043Y-88057877D01*
X152685926Y-88023145D01*
X152713715Y-87985547D01*
X152745790Y-87952400D01*
X152780858Y-87924311D01*
X152817478Y-87902034D01*
X152855651Y-87885568D01*
X152895377Y-87874914D01*
X152936654Y-87870071D01*
X152950759Y-87869748D01*
X152995945Y-87872778D01*
G37*
G36*
X153614904Y-87882254D02*
G01*
X153591652Y-87994801D01*
X153488484Y-87994801D01*
X153435337Y-88249986D01*
X153427607Y-88288504D01*
X153420683Y-88328083D01*
X153419510Y-88340453D01*
X153428498Y-88361751D01*
X153452140Y-88369958D01*
X153491408Y-88362939D01*
X153516034Y-88355108D01*
X153506851Y-88462184D01*
X153466605Y-88473753D01*
X153428015Y-88480104D01*
X153387516Y-88482485D01*
X153383362Y-88482505D01*
X153343060Y-88478424D01*
X153312629Y-88468046D01*
X153280666Y-88444193D01*
X153272182Y-88430725D01*
X153263770Y-88391626D01*
X153263976Y-88368785D01*
X153268958Y-88326922D01*
X153276339Y-88286420D01*
X153282343Y-88256824D01*
X153336858Y-87994801D01*
X153267493Y-87994801D01*
X153290745Y-87882254D01*
X153360110Y-87882254D01*
X153383557Y-87769706D01*
X153553355Y-87682170D01*
X153511736Y-87882254D01*
X153614904Y-87882254D01*
G37*
G36*
X153744255Y-87794717D02*
G01*
X153772782Y-87657159D01*
X153924018Y-87657159D01*
X153895490Y-87794717D01*
X153744255Y-87794717D01*
G37*
G36*
X153603766Y-88470000D02*
G01*
X153725888Y-87882254D01*
X153877123Y-87882254D01*
X153755002Y-88470000D01*
X153603766Y-88470000D01*
G37*
G36*
X154501017Y-88044822D02*
G01*
X154347046Y-88069832D01*
X154342035Y-88029657D01*
X154326530Y-88004375D01*
X154290993Y-87985400D01*
X154262050Y-87982295D01*
X154221649Y-87988285D01*
X154185150Y-88006256D01*
X154162985Y-88024891D01*
X154138603Y-88057105D01*
X154120280Y-88095657D01*
X154106874Y-88137529D01*
X154099872Y-88167334D01*
X154092896Y-88206665D01*
X154088975Y-88246770D01*
X154090612Y-88289183D01*
X154101240Y-88324235D01*
X154129103Y-88355491D01*
X154166295Y-88368841D01*
X154183501Y-88369958D01*
X154223899Y-88363656D01*
X154259119Y-88344752D01*
X154286063Y-88315532D01*
X154306597Y-88279353D01*
X154315979Y-88257411D01*
X154459203Y-88282421D01*
X154441656Y-88317867D01*
X154418320Y-88354914D01*
X154391898Y-88387323D01*
X154362391Y-88415095D01*
X154339426Y-88432093D01*
X154304527Y-88451736D01*
X154266336Y-88466554D01*
X154224855Y-88476548D01*
X154180082Y-88481717D01*
X154153020Y-88482505D01*
X154108495Y-88479654D01*
X154068710Y-88471102D01*
X154028285Y-88453918D01*
X153994311Y-88428974D01*
X153970326Y-88401416D01*
X153949297Y-88362881D01*
X153937939Y-88325118D01*
X153932737Y-88282986D01*
X153933690Y-88236485D01*
X153939185Y-88194397D01*
X153942580Y-88176713D01*
X153953538Y-88132914D01*
X153967481Y-88092254D01*
X153984411Y-88054733D01*
X154004328Y-88020351D01*
X154032169Y-87983236D01*
X154064311Y-87950642D01*
X154099933Y-87923150D01*
X154138069Y-87901347D01*
X154178719Y-87885232D01*
X154221884Y-87874804D01*
X154267563Y-87870064D01*
X154283348Y-87869748D01*
X154326443Y-87871824D01*
X154369649Y-87879279D01*
X154410549Y-87894148D01*
X154440054Y-87913126D01*
X154468592Y-87944542D01*
X154486902Y-87980386D01*
X154497313Y-88018268D01*
X154501017Y-88044822D01*
G37*
G36*
X154849991Y-88470000D02*
G01*
X155019007Y-87657159D01*
X155603236Y-87657159D01*
X155574709Y-87794717D01*
X155149726Y-87794717D01*
X155113187Y-87969790D01*
X155508665Y-87969790D01*
X155480138Y-88107348D01*
X155084660Y-88107348D01*
X155037765Y-88332442D01*
X155477793Y-88332442D01*
X155449265Y-88470000D01*
X154849991Y-88470000D01*
G37*
G36*
X156114583Y-88470000D02*
G01*
X155963543Y-88470000D01*
X156026655Y-88166552D01*
X156034244Y-88127662D01*
X156040675Y-88087222D01*
X156043361Y-88047801D01*
X156042873Y-88041891D01*
X156028009Y-88005373D01*
X156020598Y-87997927D01*
X155984320Y-87983043D01*
X155971554Y-87982295D01*
X155930610Y-87988637D01*
X155896132Y-88004766D01*
X155864527Y-88030753D01*
X155841226Y-88064166D01*
X155826618Y-88100683D01*
X155815336Y-88139648D01*
X155805075Y-88182613D01*
X155801170Y-88200746D01*
X155745288Y-88470000D01*
X155594248Y-88470000D01*
X155716369Y-87882254D01*
X155856662Y-87882254D01*
X155838882Y-87968032D01*
X155869067Y-87939718D01*
X155906472Y-87912075D01*
X155945170Y-87891344D01*
X155985158Y-87877523D01*
X156026438Y-87870612D01*
X156047563Y-87869748D01*
X156088900Y-87873301D01*
X156127795Y-87884993D01*
X156134904Y-87888311D01*
X156168478Y-87910901D01*
X156187660Y-87935596D01*
X156200661Y-87972460D01*
X156203683Y-88000858D01*
X156201250Y-88041885D01*
X156195209Y-88080812D01*
X156190396Y-88105198D01*
X156114583Y-88470000D01*
G37*
G36*
X156865288Y-88044822D02*
G01*
X156711317Y-88069832D01*
X156706305Y-88029657D01*
X156690801Y-88004375D01*
X156655263Y-87985400D01*
X156626321Y-87982295D01*
X156585920Y-87988285D01*
X156549421Y-88006256D01*
X156527256Y-88024891D01*
X156502873Y-88057105D01*
X156484551Y-88095657D01*
X156471145Y-88137529D01*
X156464143Y-88167334D01*
X156457166Y-88206665D01*
X156453246Y-88246770D01*
X156454883Y-88289183D01*
X156465511Y-88324235D01*
X156493374Y-88355491D01*
X156530565Y-88368841D01*
X156547772Y-88369958D01*
X156588170Y-88363656D01*
X156623390Y-88344752D01*
X156650333Y-88315532D01*
X156670868Y-88279353D01*
X156680249Y-88257411D01*
X156823473Y-88282421D01*
X156805927Y-88317867D01*
X156782591Y-88354914D01*
X156756169Y-88387323D01*
X156726662Y-88415095D01*
X156703697Y-88432093D01*
X156668797Y-88451736D01*
X156630607Y-88466554D01*
X156589125Y-88476548D01*
X156544353Y-88481717D01*
X156517290Y-88482505D01*
X156472766Y-88479654D01*
X156432981Y-88471102D01*
X156392556Y-88453918D01*
X156358582Y-88428974D01*
X156334597Y-88401416D01*
X156313568Y-88362881D01*
X156302210Y-88325118D01*
X156297008Y-88282986D01*
X156297960Y-88236485D01*
X156303456Y-88194397D01*
X156306851Y-88176713D01*
X156317808Y-88132914D01*
X156331752Y-88092254D01*
X156348682Y-88054733D01*
X156368599Y-88020351D01*
X156396440Y-87983236D01*
X156428581Y-87950642D01*
X156464204Y-87923150D01*
X156502340Y-87901347D01*
X156542990Y-87885232D01*
X156586155Y-87874804D01*
X156631834Y-87870064D01*
X156647618Y-87869748D01*
X156690714Y-87871824D01*
X156733920Y-87879279D01*
X156774820Y-87894148D01*
X156804325Y-87913126D01*
X156832863Y-87944542D01*
X156851173Y-87980386D01*
X156861584Y-88018268D01*
X156865288Y-88044822D01*
G37*
G36*
X157332278Y-87872785D02*
G01*
X157374036Y-87881893D01*
X157411248Y-87897074D01*
X157448913Y-87922461D01*
X157476271Y-87950799D01*
X157480389Y-87956113D01*
X157501466Y-87990107D01*
X157516045Y-88027315D01*
X157524126Y-88067739D01*
X157525708Y-88111378D01*
X157520792Y-88158231D01*
X157517709Y-88174563D01*
X157507287Y-88214978D01*
X157493239Y-88253179D01*
X157475566Y-88289167D01*
X157454267Y-88322941D01*
X157429343Y-88354502D01*
X157400793Y-88383849D01*
X157388358Y-88394968D01*
X157355935Y-88420186D01*
X157322290Y-88441130D01*
X157280305Y-88460621D01*
X157236561Y-88473956D01*
X157191059Y-88481137D01*
X157159747Y-88482505D01*
X157116738Y-88479630D01*
X157076078Y-88471005D01*
X157037768Y-88456631D01*
X157017500Y-88446161D01*
X156984931Y-88422934D01*
X156956392Y-88390855D01*
X156937593Y-88356338D01*
X156931331Y-88339281D01*
X156922217Y-88297287D01*
X156919851Y-88255885D01*
X156919929Y-88254577D01*
X157075696Y-88254577D01*
X157082795Y-88296144D01*
X157093508Y-88320132D01*
X157120024Y-88350495D01*
X157157989Y-88367573D01*
X157182413Y-88369958D01*
X157221965Y-88364070D01*
X157259487Y-88346407D01*
X157291833Y-88320132D01*
X157317858Y-88288425D01*
X157336890Y-88254246D01*
X157352064Y-88214426D01*
X157362175Y-88174954D01*
X157368782Y-88131235D01*
X157368887Y-88088473D01*
X157359903Y-88048936D01*
X157351819Y-88032316D01*
X157325423Y-88001835D01*
X157287524Y-87984689D01*
X157263110Y-87982295D01*
X157223511Y-87988206D01*
X157185852Y-88005938D01*
X157153299Y-88032316D01*
X157127290Y-88063836D01*
X157106196Y-88102342D01*
X157091572Y-88142435D01*
X157083152Y-88176127D01*
X157076969Y-88215141D01*
X157075696Y-88254577D01*
X156919929Y-88254577D01*
X156922209Y-88216512D01*
X156928699Y-88174204D01*
X156929963Y-88167920D01*
X156940307Y-88129549D01*
X156955120Y-88091814D01*
X156974403Y-88054713D01*
X156998156Y-88018248D01*
X157025731Y-87984237D01*
X157056286Y-87954501D01*
X157089820Y-87929038D01*
X157126334Y-87907850D01*
X157164815Y-87891181D01*
X157204248Y-87879274D01*
X157244633Y-87872130D01*
X157285972Y-87869748D01*
X157332278Y-87872785D01*
G37*
G36*
X158109558Y-88470000D02*
G01*
X157969265Y-88470000D01*
X157987046Y-88384221D01*
X157958008Y-88412966D01*
X157924435Y-88438766D01*
X157889154Y-88458471D01*
X157850337Y-88473117D01*
X157809651Y-88481355D01*
X157788330Y-88482505D01*
X157747406Y-88478615D01*
X157705924Y-88464644D01*
X157670084Y-88440513D01*
X157643353Y-88411064D01*
X157636509Y-88401221D01*
X157617249Y-88362497D01*
X157607097Y-88324409D01*
X157602810Y-88281801D01*
X157604048Y-88244871D01*
X157758605Y-88244871D01*
X157760132Y-88284911D01*
X157765469Y-88306650D01*
X157786488Y-88342693D01*
X157820899Y-88364950D01*
X157854569Y-88369958D01*
X157895863Y-88362121D01*
X157932321Y-88340978D01*
X157952852Y-88322477D01*
X157979303Y-88288203D01*
X157998638Y-88249492D01*
X158012270Y-88208829D01*
X158019091Y-88180425D01*
X158026384Y-88137172D01*
X158029132Y-88094656D01*
X158025099Y-88055642D01*
X158015183Y-88028799D01*
X157989358Y-87998690D01*
X157950654Y-87983431D01*
X157934094Y-87982295D01*
X157894893Y-87988753D01*
X157857891Y-88008124D01*
X157834443Y-88028213D01*
X157808397Y-88061216D01*
X157789491Y-88098489D01*
X157776293Y-88137641D01*
X157769768Y-88164989D01*
X157762550Y-88205227D01*
X157758605Y-88244871D01*
X157604048Y-88244871D01*
X157604390Y-88234673D01*
X157610188Y-88191947D01*
X157613648Y-88173977D01*
X157624659Y-88129134D01*
X157638274Y-88087782D01*
X157654495Y-88049923D01*
X157673319Y-88015555D01*
X157699347Y-87978923D01*
X157729126Y-87947320D01*
X157761473Y-87920958D01*
X157795209Y-87900050D01*
X157836320Y-87882551D01*
X157879321Y-87872475D01*
X157917681Y-87869748D01*
X157957521Y-87873638D01*
X157998038Y-87887609D01*
X158033206Y-87911740D01*
X158059590Y-87941189D01*
X158066376Y-87951032D01*
X158127535Y-87657159D01*
X158278575Y-87657159D01*
X158109558Y-88470000D01*
G37*
G36*
X158657690Y-87872778D02*
G01*
X158697848Y-87881866D01*
X158738344Y-87900126D01*
X158771995Y-87926633D01*
X158795392Y-87955917D01*
X158812969Y-87991452D01*
X158823786Y-88033431D01*
X158827636Y-88073335D01*
X158826793Y-88117714D01*
X158821255Y-88166567D01*
X158813446Y-88208871D01*
X158811024Y-88219895D01*
X158432545Y-88219895D01*
X158428153Y-88261256D01*
X158433208Y-88302728D01*
X158446027Y-88330488D01*
X158474312Y-88357469D01*
X158512321Y-88369341D01*
X158524967Y-88369958D01*
X158564347Y-88363689D01*
X158588274Y-88352177D01*
X158617359Y-88325311D01*
X158636732Y-88294926D01*
X158782301Y-88319937D01*
X158761082Y-88352915D01*
X158733855Y-88386163D01*
X158703453Y-88414672D01*
X158669876Y-88438443D01*
X158665455Y-88441081D01*
X158628452Y-88459204D01*
X158588568Y-88472149D01*
X158545801Y-88479916D01*
X158506015Y-88482464D01*
X158500152Y-88482505D01*
X158455967Y-88480067D01*
X158416590Y-88472754D01*
X158375685Y-88457543D01*
X158341705Y-88435312D01*
X158314649Y-88406060D01*
X158300459Y-88382658D01*
X158286143Y-88345609D01*
X158278072Y-88304557D01*
X158276248Y-88259504D01*
X158279655Y-88217702D01*
X158286000Y-88180621D01*
X158296952Y-88136615D01*
X158302659Y-88119853D01*
X158456188Y-88119853D01*
X158681868Y-88119853D01*
X158685917Y-88080889D01*
X158680284Y-88039706D01*
X158669168Y-88017466D01*
X158638979Y-87991088D01*
X158598044Y-87982295D01*
X158556718Y-87989364D01*
X158521491Y-88008586D01*
X158508749Y-88019225D01*
X158482581Y-88050778D01*
X158465401Y-88086219D01*
X158456188Y-88119853D01*
X158302659Y-88119853D01*
X158310882Y-88095700D01*
X158327788Y-88057877D01*
X158347671Y-88023145D01*
X158375460Y-87985547D01*
X158407535Y-87952400D01*
X158442603Y-87924311D01*
X158479223Y-87902034D01*
X158517396Y-87885568D01*
X158557121Y-87874914D01*
X158598399Y-87870071D01*
X158612503Y-87869748D01*
X158657690Y-87872778D01*
G37*
G36*
X159037290Y-88470000D02*
G01*
X158886446Y-88470000D01*
X159008568Y-87882254D01*
X159148861Y-87882254D01*
X159131666Y-87965296D01*
X159157562Y-87935413D01*
X159185812Y-87907578D01*
X159212364Y-87888115D01*
X159250372Y-87873264D01*
X159281729Y-87869748D01*
X159321899Y-87874972D01*
X159358587Y-87890645D01*
X159374346Y-87901402D01*
X159297751Y-88045212D01*
X159262776Y-88025392D01*
X159232099Y-88019811D01*
X159192989Y-88027385D01*
X159174653Y-88037397D01*
X159146907Y-88066145D01*
X159126781Y-88100900D01*
X159112058Y-88139303D01*
X159100798Y-88177880D01*
X159090521Y-88218610D01*
X159081517Y-88257957D01*
X159074025Y-88292972D01*
X159037290Y-88470000D01*
G37*
D10*
G36*
X140668623Y-85767000D02*
G01*
X140488616Y-85258974D01*
X140598892Y-85258974D01*
X140726264Y-85634131D01*
X140849607Y-85258974D01*
X140957440Y-85258974D01*
X140777189Y-85767000D01*
X140668623Y-85767000D01*
G37*
G36*
X141131129Y-85393157D02*
G01*
X141158412Y-85398206D01*
X141183282Y-85407042D01*
X141205739Y-85419664D01*
X141225783Y-85436073D01*
X141234900Y-85445698D01*
X141250847Y-85467907D01*
X141263333Y-85494144D01*
X141271095Y-85519084D01*
X141276454Y-85546821D01*
X141279410Y-85577354D01*
X141280045Y-85603794D01*
X141279963Y-85610684D01*
X141038163Y-85610684D01*
X141040860Y-85636535D01*
X141048649Y-85660507D01*
X141061488Y-85679805D01*
X141081460Y-85695777D01*
X141105059Y-85703606D01*
X141117175Y-85704473D01*
X141141464Y-85700556D01*
X141155155Y-85693360D01*
X141171584Y-85674174D01*
X141178602Y-85657579D01*
X141274834Y-85673210D01*
X141264209Y-85696581D01*
X141249045Y-85719334D01*
X141230481Y-85738338D01*
X141216216Y-85748926D01*
X141192159Y-85761441D01*
X141168099Y-85769127D01*
X141141521Y-85773576D01*
X141116198Y-85774815D01*
X141087642Y-85773292D01*
X141061506Y-85768721D01*
X141037791Y-85761103D01*
X141012529Y-85747940D01*
X140990753Y-85730389D01*
X140975270Y-85712411D01*
X140961233Y-85689255D01*
X140950643Y-85663598D01*
X140944310Y-85639615D01*
X140940511Y-85613795D01*
X140939244Y-85586138D01*
X140940401Y-85558634D01*
X140941823Y-85548158D01*
X141039872Y-85548158D01*
X141184098Y-85548158D01*
X141181567Y-85523805D01*
X141173461Y-85499808D01*
X141162482Y-85484166D01*
X141142717Y-85469140D01*
X141117753Y-85462378D01*
X141112290Y-85462184D01*
X141086802Y-85466602D01*
X141065474Y-85479856D01*
X141060144Y-85485265D01*
X141046842Y-85506839D01*
X141040717Y-85531583D01*
X141039872Y-85548158D01*
X140941823Y-85548158D01*
X140943871Y-85533063D01*
X140951090Y-85504927D01*
X140961640Y-85479573D01*
X140975522Y-85457002D01*
X140986627Y-85443500D01*
X141005280Y-85425944D01*
X141025702Y-85412021D01*
X141047893Y-85401730D01*
X141071853Y-85395071D01*
X141097581Y-85392044D01*
X141106551Y-85391842D01*
X141131129Y-85393157D01*
G37*
G36*
X141449101Y-85767000D02*
G01*
X141352625Y-85767000D01*
X141352625Y-85399658D01*
X141442262Y-85399658D01*
X141442262Y-85451560D01*
X141456158Y-85431054D01*
X141472868Y-85411779D01*
X141483539Y-85403322D01*
X141507202Y-85393737D01*
X141525427Y-85391842D01*
X141549813Y-85394625D01*
X141573512Y-85402971D01*
X141588930Y-85411626D01*
X141559010Y-85501508D01*
X141536891Y-85490112D01*
X141513703Y-85485632D01*
X141489726Y-85490365D01*
X141479265Y-85496623D01*
X141464048Y-85517278D01*
X141457161Y-85536312D01*
X141452572Y-85563390D01*
X141450644Y-85588360D01*
X141449605Y-85614554D01*
X141449172Y-85639760D01*
X141449101Y-85656357D01*
X141449101Y-85767000D01*
G37*
G36*
X141855155Y-85767000D02*
G01*
X141758679Y-85767000D01*
X141758679Y-85399414D01*
X141738184Y-85418319D01*
X141716358Y-85435283D01*
X141693201Y-85450307D01*
X141668714Y-85463390D01*
X141642895Y-85474533D01*
X141633993Y-85477816D01*
X141633993Y-85384027D01*
X141658222Y-85374348D01*
X141681129Y-85362006D01*
X141702366Y-85348149D01*
X141716059Y-85338109D01*
X141736483Y-85320432D01*
X141753428Y-85301351D01*
X141766892Y-85280865D01*
X141776875Y-85258974D01*
X141855155Y-85258974D01*
X141855155Y-85767000D01*
G37*
G36*
X142018065Y-85767000D02*
G01*
X142018065Y-85673210D01*
X142114663Y-85673210D01*
X142114663Y-85767000D01*
X142018065Y-85767000D01*
G37*
G36*
X142381389Y-85260816D02*
G01*
X142405426Y-85266342D01*
X142430648Y-85277444D01*
X142452830Y-85293560D01*
X142469426Y-85311364D01*
X142483569Y-85332743D01*
X142495314Y-85358105D01*
X142504663Y-85387449D01*
X142510416Y-85413793D01*
X142514635Y-85442687D01*
X142517320Y-85474129D01*
X142518327Y-85499384D01*
X142518518Y-85517017D01*
X142518084Y-85543191D01*
X142516780Y-85567947D01*
X142513688Y-85598752D01*
X142509052Y-85627039D01*
X142502869Y-85652806D01*
X142495141Y-85676055D01*
X142483308Y-85701574D01*
X142469059Y-85723158D01*
X142449624Y-85743286D01*
X142427115Y-85758471D01*
X142401532Y-85768711D01*
X142377157Y-85773554D01*
X142355120Y-85774815D01*
X142328551Y-85772823D01*
X142303984Y-85766847D01*
X142281416Y-85756886D01*
X142260850Y-85742942D01*
X142242284Y-85725013D01*
X142236540Y-85718151D01*
X142221267Y-85693781D01*
X142210954Y-85668703D01*
X142202835Y-85639291D01*
X142197919Y-85612640D01*
X142194408Y-85583214D01*
X142192302Y-85551014D01*
X142191643Y-85525044D01*
X142191604Y-85517017D01*
X142292594Y-85517017D01*
X142292811Y-85542607D01*
X142293647Y-85569844D01*
X142295415Y-85596834D01*
X142298479Y-85621369D01*
X142301509Y-85635353D01*
X142310197Y-85659365D01*
X142323979Y-85678217D01*
X142346625Y-85688178D01*
X142355120Y-85688842D01*
X142379254Y-85682728D01*
X142386383Y-85677973D01*
X142401152Y-85657708D01*
X142407632Y-85639138D01*
X142412473Y-85614913D01*
X142415143Y-85590595D01*
X142416668Y-85565937D01*
X142417490Y-85537759D01*
X142417646Y-85517017D01*
X142417428Y-85491465D01*
X142416593Y-85464274D01*
X142414825Y-85437337D01*
X142411761Y-85412863D01*
X142408731Y-85398926D01*
X142400019Y-85374806D01*
X142386139Y-85355817D01*
X142363607Y-85345627D01*
X142355120Y-85344948D01*
X142330986Y-85351062D01*
X142323857Y-85355817D01*
X142309088Y-85376081D01*
X142302608Y-85394651D01*
X142297767Y-85419044D01*
X142295097Y-85443439D01*
X142293572Y-85468125D01*
X142292750Y-85496298D01*
X142292594Y-85517017D01*
X142191604Y-85517017D01*
X142191599Y-85516040D01*
X142192034Y-85489997D01*
X142193338Y-85465359D01*
X142196429Y-85434691D01*
X142201066Y-85406519D01*
X142207249Y-85380843D01*
X142214977Y-85357663D01*
X142226810Y-85332197D01*
X142241059Y-85310632D01*
X142260500Y-85290504D01*
X142283026Y-85275319D01*
X142308638Y-85265078D01*
X142333047Y-85260236D01*
X142355120Y-85258974D01*
X142381389Y-85260816D01*
G37*
D13*
G36*
X135027368Y-84999129D02*
G01*
X135035985Y-85023116D01*
X135043011Y-85048227D01*
X135044953Y-85057014D01*
X135048961Y-85081928D01*
X135050724Y-85107731D01*
X135050815Y-85115266D01*
X135049695Y-85141590D01*
X135046333Y-85166155D01*
X135039969Y-85191388D01*
X135036649Y-85200873D01*
X135025195Y-85225110D01*
X135010480Y-85246604D01*
X134994273Y-85263766D01*
X134973277Y-85279870D01*
X134951410Y-85292006D01*
X134926895Y-85301756D01*
X134924297Y-85302600D01*
X134899742Y-85308976D01*
X134873061Y-85313265D01*
X134847560Y-85315326D01*
X134827333Y-85315789D01*
X134799787Y-85314889D01*
X134773813Y-85312187D01*
X134749412Y-85307684D01*
X134726583Y-85301379D01*
X134702807Y-85292298D01*
X134678951Y-85279919D01*
X134657790Y-85265130D01*
X134651967Y-85260224D01*
X134634381Y-85242323D01*
X134619633Y-85222204D01*
X134607724Y-85199867D01*
X134605683Y-85195133D01*
X134597246Y-85170249D01*
X134592325Y-85146282D01*
X134589935Y-85120828D01*
X134589685Y-85109038D01*
X134590206Y-85084257D01*
X134590418Y-85079973D01*
X134592636Y-85054986D01*
X134592860Y-85053351D01*
X134597368Y-85028635D01*
X134597745Y-85026972D01*
X134604183Y-85002716D01*
X134605316Y-84999129D01*
X134691290Y-84999129D01*
X134682180Y-85022400D01*
X134675074Y-85046469D01*
X134673216Y-85054816D01*
X134669186Y-85080004D01*
X134667842Y-85102810D01*
X134669717Y-85127275D01*
X134676538Y-85151696D01*
X134679200Y-85157520D01*
X134692725Y-85178128D01*
X134710829Y-85194767D01*
X134733147Y-85207407D01*
X134757563Y-85215818D01*
X134759311Y-85216260D01*
X134784964Y-85220935D01*
X134810709Y-85222932D01*
X134821105Y-85223099D01*
X134846802Y-85222120D01*
X134872276Y-85218851D01*
X134884974Y-85216138D01*
X134909428Y-85207808D01*
X134931372Y-85195195D01*
X134932602Y-85194279D01*
X134950743Y-85176269D01*
X134962399Y-85156543D01*
X134969762Y-85133026D01*
X134972567Y-85107688D01*
X134972658Y-85101833D01*
X134970704Y-85077286D01*
X134966159Y-85053080D01*
X134965575Y-85050542D01*
X134958917Y-85026152D01*
X134958125Y-85023675D01*
X134949775Y-85000555D01*
X134949210Y-84999129D01*
X135027368Y-84999129D01*
G37*
G36*
X135043000Y-84667569D02*
G01*
X134957026Y-84692360D01*
X134957026Y-84848919D01*
X135043000Y-84874321D01*
X135043000Y-84958218D01*
X134597501Y-84825228D01*
X134597501Y-84769662D01*
X134673949Y-84769662D01*
X134886684Y-84828647D01*
X134886684Y-84711288D01*
X134673949Y-84769662D01*
X134597501Y-84769662D01*
X134597501Y-84707136D01*
X135043000Y-84574146D01*
X135043000Y-84667569D01*
G37*
G36*
X135043000Y-84320988D02*
G01*
X134777141Y-84441156D01*
X134719866Y-84465946D01*
X134904636Y-84465946D01*
X135043000Y-84465946D01*
X135043000Y-84542883D01*
X134597501Y-84542883D01*
X134597501Y-84439080D01*
X134865069Y-84316470D01*
X134917214Y-84294854D01*
X134720599Y-84294854D01*
X134597501Y-84294854D01*
X134597501Y-84217918D01*
X135043000Y-84217918D01*
X135043000Y-84320988D01*
G37*
G36*
X135043000Y-83921041D02*
G01*
X134847605Y-83921041D01*
X134847605Y-84073570D01*
X135043000Y-84073570D01*
X135043000Y-84158078D01*
X134597501Y-84158078D01*
X134597501Y-84073570D01*
X134777263Y-84073570D01*
X134777263Y-83921041D01*
X134597501Y-83921041D01*
X134597501Y-83836533D01*
X135043000Y-83836533D01*
X135043000Y-83921041D01*
G37*
D15*
%TO.C,C31*%
X142253580Y-97932000D02*
X141972420Y-97932000D01*
X142253580Y-98952000D02*
X141972420Y-98952000D01*
%TO.C,R13*%
X158766742Y-101188500D02*
X159241258Y-101188500D01*
X158766742Y-102233500D02*
X159241258Y-102233500D01*
%TO.C,S1*%
X144100800Y-109447200D02*
X148100800Y-109447200D01*
X144100800Y-109847200D02*
X144100800Y-109447200D01*
X144100800Y-112047200D02*
X144100800Y-112447200D01*
X144100800Y-112447200D02*
X148100800Y-112447200D01*
X148100800Y-109447200D02*
X148100800Y-109847200D01*
X148100800Y-112447200D02*
X148100800Y-112047200D01*
D12*
%TO.C,J5*%
X128921000Y-95425000D02*
X128921000Y-89213000D01*
X128921000Y-95425000D02*
X128921000Y-101700000D01*
X136521000Y-87425000D02*
X132721000Y-87425000D01*
X136521000Y-87425000D02*
X136521000Y-89567000D01*
X136521000Y-103425000D02*
X132721000Y-103425000D01*
X136521000Y-103425000D02*
X136521000Y-101228000D01*
D16*
X138286190Y-86754000D02*
G75*
G02*
X137811810Y-86754000I-237190J0D01*
G01*
X137811810Y-86754000D02*
G75*
G02*
X138286190Y-86754000I237190J0D01*
G01*
D15*
%TO.C,TP2*%
X151576000Y-95885000D02*
G75*
G02*
X150176000Y-95885000I-700000J0D01*
G01*
X150176000Y-95885000D02*
G75*
G02*
X151576000Y-95885000I700000J0D01*
G01*
D17*
%TO.C,U4*%
X155209000Y-97758000D02*
X155209000Y-93858000D01*
X160259000Y-97758000D02*
X160259000Y-93858000D01*
D12*
X155529000Y-99848000D02*
G75*
G02*
X155329000Y-99848000I-100000J0D01*
G01*
X155329000Y-99848000D02*
G75*
G02*
X155529000Y-99848000I100000J0D01*
G01*
D15*
%TO.C,JP1*%
X139081000Y-93537000D02*
X139081000Y-92137000D01*
X139781000Y-91437000D02*
X140381000Y-91437000D01*
X140381000Y-94237000D02*
X139781000Y-94237000D01*
X141081000Y-92137000D02*
X141081000Y-93537000D01*
X139081000Y-92137000D02*
G75*
G02*
X139781000Y-91437000I699999J1D01*
G01*
X139781000Y-94237000D02*
G75*
G02*
X139081000Y-93537000I0J700000D01*
G01*
X140381000Y-91437000D02*
G75*
G02*
X141081000Y-92137000I1J-699999D01*
G01*
X141081000Y-93537000D02*
G75*
G02*
X140381000Y-94237000I-700000J0D01*
G01*
%TO.C,C32*%
X144944220Y-97940400D02*
X145225380Y-97940400D01*
X144944220Y-98960400D02*
X145225380Y-98960400D01*
%TO.C,TP1*%
X150052000Y-95885000D02*
G75*
G02*
X148652000Y-95885000I-700000J0D01*
G01*
X148652000Y-95885000D02*
G75*
G02*
X150052000Y-95885000I700000J0D01*
G01*
%TO.C,C12*%
X155866220Y-102750400D02*
X156147380Y-102750400D01*
X155866220Y-103770400D02*
X156147380Y-103770400D01*
%TO.C,R21*%
X155718742Y-90840500D02*
X156193258Y-90840500D01*
X155718742Y-91885500D02*
X156193258Y-91885500D01*
%TO.C,J3*%
X166753000Y-81644000D02*
X166753000Y-82744000D01*
X166753000Y-82744000D02*
X165953000Y-82744000D01*
X166753000Y-84644000D02*
X166753000Y-85844000D01*
X168603000Y-81644000D02*
X166753000Y-81644000D01*
X168603000Y-85844000D02*
X166753000Y-85844000D01*
X171203000Y-82944000D02*
X171203000Y-84544000D01*
%TO.C,C13*%
X145033420Y-100693000D02*
X145314580Y-100693000D01*
X145033420Y-101713000D02*
X145314580Y-101713000D01*
%TO.C,R9*%
X151875258Y-97394500D02*
X151400742Y-97394500D01*
X151875258Y-98439500D02*
X151400742Y-98439500D01*
%TO.C,C34*%
X153795000Y-94349180D02*
X153795000Y-94068020D01*
X154815000Y-94349180D02*
X154815000Y-94068020D01*
%TO.C,R14*%
X142464258Y-100680500D02*
X141989742Y-100680500D01*
X142464258Y-101725500D02*
X141989742Y-101725500D01*
%TO.C,D8*%
X160109400Y-72656800D02*
X160109400Y-74941800D01*
X160109400Y-74941800D02*
X161579400Y-74941800D01*
X161579400Y-74941800D02*
X161579400Y-72656800D01*
%TO.C,R11*%
X155808142Y-101213900D02*
X156282658Y-101213900D01*
X155808142Y-102258900D02*
X156282658Y-102258900D01*
%TO.C,S2*%
X152127200Y-109447200D02*
X156127200Y-109447200D01*
X152127200Y-109847200D02*
X152127200Y-109447200D01*
X152127200Y-112047200D02*
X152127200Y-112447200D01*
X152127200Y-112447200D02*
X156127200Y-112447200D01*
X156127200Y-109447200D02*
X156127200Y-109847200D01*
X156127200Y-112447200D02*
X156127200Y-112047200D01*
D18*
%TO.C,U3*%
X141491000Y-95507000D02*
X141491000Y-92307000D01*
X141491000Y-95507000D02*
X141491000Y-95907000D01*
X142494000Y-92197000D02*
X142748000Y-92197000D01*
X142494000Y-96007000D02*
X142748000Y-96007000D01*
X143764000Y-92197000D02*
X144018000Y-92197000D01*
X143764000Y-96007000D02*
X144018000Y-96007000D01*
X145034000Y-92197000D02*
X145288000Y-92197000D01*
X145034000Y-96007000D02*
X145288000Y-96007000D01*
X146291000Y-92307000D02*
X146291000Y-95507000D01*
X146291000Y-95507000D02*
X141491000Y-95507000D01*
X146291000Y-95507000D02*
X146291000Y-95907000D01*
D12*
X142086000Y-94996000D02*
G75*
G02*
X141886000Y-94996000I-100000J0D01*
G01*
X141886000Y-94996000D02*
G75*
G02*
X142086000Y-94996000I100000J0D01*
G01*
D15*
%TO.C,J7*%
X129049000Y-84493000D02*
X129049000Y-82893000D01*
X131649000Y-81593000D02*
X133499000Y-81593000D01*
X131649000Y-85793000D02*
X133499000Y-85793000D01*
X133499000Y-82793000D02*
X133499000Y-81593000D01*
X133499000Y-84693000D02*
X134299000Y-84693000D01*
X133499000Y-85793000D02*
X133499000Y-84693000D01*
%TO.C,C14*%
X159168580Y-102725000D02*
X158887420Y-102725000D01*
X159168580Y-103745000D02*
X158887420Y-103745000D01*
D12*
%TO.C,J6*%
X163756595Y-87430905D02*
X163756595Y-89627905D01*
X163756595Y-87430905D02*
X167556595Y-87430905D01*
X163756595Y-103430905D02*
X163756595Y-101288905D01*
X163756595Y-103430905D02*
X167556595Y-103430905D01*
X171356595Y-95430905D02*
X171356595Y-89155905D01*
X171356595Y-95430905D02*
X171356595Y-101642905D01*
D16*
X162465785Y-104101905D02*
G75*
G02*
X161991405Y-104101905I-237190J0D01*
G01*
X161991405Y-104101905D02*
G75*
G02*
X162465785Y-104101905I237190J0D01*
G01*
D12*
%TO.C,J4*%
X142117105Y-78940405D02*
X142117105Y-75140405D01*
X142117105Y-78940405D02*
X144314105Y-78940405D01*
X150117105Y-71340405D02*
X143842105Y-71340405D01*
X150117105Y-71340405D02*
X156329105Y-71340405D01*
X158117105Y-78940405D02*
X155975105Y-78940405D01*
X158117105Y-78940405D02*
X158117105Y-75140405D01*
D16*
X159025295Y-80468405D02*
G75*
G02*
X158550915Y-80468405I-237190J0D01*
G01*
X158550915Y-80468405D02*
G75*
G02*
X159025295Y-80468405I237190J0D01*
G01*
D15*
%TO.C,R22*%
X139558500Y-95761742D02*
X139558500Y-96236258D01*
X140603500Y-95761742D02*
X140603500Y-96236258D01*
%TO.C,TP3*%
X153100000Y-95885000D02*
G75*
G02*
X151700000Y-95885000I-700000J0D01*
G01*
X151700000Y-95885000D02*
G75*
G02*
X153100000Y-95885000I700000J0D01*
G01*
%TO.C,R20*%
X159193758Y-90840500D02*
X158719242Y-90840500D01*
X159193758Y-91885500D02*
X158719242Y-91885500D01*
%TO.C,C15*%
X142086420Y-102217000D02*
X142367580Y-102217000D01*
X142086420Y-103237000D02*
X142367580Y-103237000D01*
%TO.C,R12*%
X145398258Y-102204500D02*
X144923742Y-102204500D01*
X145398258Y-103249500D02*
X144923742Y-103249500D01*
%TO.C,C33*%
X153795000Y-97077420D02*
X153795000Y-97358580D01*
X154815000Y-97077420D02*
X154815000Y-97358580D01*
%TD*%
M02*
