0
SECTION
2
HEADER
9
$INSUNITS
70
4
9
$ACADVER
1
AC1014
9
$HANDSEED
5
FFFF
0
ENDSEC
0
SECTION
2
TABLES
0
TABLE
2
VPORT
5
8
100
AcDbSymbolTable
0
ENDTAB
0
TABLE
2
LTYPE
5
5
100
AcDbSymbolTable
0
LTYPE
5
14
100
AcDbSymbolTableRecord
100
AcDbLinetypeTableRecord
2
BYBLOCK
70
0
0
LTYPE
5
15
100
AcDbSymbolTableRecord
100
AcDbLinetypeTableRecord
2
BYLAYER
70
0
0
LTYPE
5
16
100
AcDbSymbolTableRecord
100
AcDbLinetypeTableRecord
2
DASHED
70
0
3
Dashed __ __ __ __ __ __ __ __ __ __ __ __ __ _
72
65
73
2
40
0.75
49
0.5
74
0
49
-0.25
74
0
0
ENDTAB
0
TABLE
2
LAYER
5
2
100
AcDbSymbolTable
70
3
0
LAYER
5
50
100
AcDbSymbolTableRecord
100
AcDbLayerTableRecord
2
1
70
0
62
7
6
DASHED
0
LAYER
5
51
100
AcDbSymbolTableRecord
100
AcDbLayerTableRecord
2
0
70
0
62
7
6
CONTINUOUS
0
ENDTAB
0
TABLE
2
STYLE
5
3
100
AcDbSymbolTable
70
1
0
STYLE
5
11
100
AcDbSymbolTableRecord
100
AcDbTextStyleTableRecord
2
STANDARD
70
0
0
ENDTAB
0
TABLE
2
VIEW
5
6
100
AcDbSymbolTable
70
0
0
ENDTAB
0
TABLE
2
UCS
5
7
100
AcDbSymbolTable
70
0
0
ENDTAB
0
TABLE
2
APPID
5
9
100
AcDbSymbolTable
70
2
0
APPID
5
12
100
AcDbSymbolTableRecord
100
AcDbRegAppTableRecord
2
ACAD
70
0
0
ENDTAB
0
TABLE
2
DIMSTYLE
5
A
100
AcDbSymbolTable
70
1
0
ENDTAB
0
TABLE
2
BLOCK_RECORD
5
1
100
AcDbSymbolTable
70
1
0
BLOCK_RECORD
5
1F
100
AcDbSymbolTableRecord
100
AcDbBlockTableRecord
2
*MODEL_SPACE
0
BLOCK_RECORD
5
1B
100
AcDbSymbolTableRecord
100
AcDbBlockTableRecord
2
*PAPER_SPACE
0
ENDTAB
0
ENDSEC
0
SECTION
2
BLOCKS
0
BLOCK
5
20
100
AcDbEntity
100
AcDbBlockBegin
2
*MODEL_SPACE
0
ENDBLK
5
21
100
AcDbEntity
100
AcDbBlockEnd
0
BLOCK
5
1C
100
AcDbEntity
100
AcDbBlockBegin
2
*PAPER_SPACE
0
ENDBLK
5
1D
100
AcDbEntity
100
AcDbBlockEnd
0
ENDSEC
0
SECTION
2
ENTITIES
0
LWPOLYLINE
5
100
100
AcDbEntity
8
0
100
AcDbPolyline
90
16
70
1
43
0.0
10
-15.957359312880717
20
21
10
15.95735931288071
20
20.999999999999996
42
-0.19891236737965581
10
18.07867965644035
20
20.121320343559642
10
20.121320343559642
20
18.078679656440357
42
-0.19891236737965731
10
21
20
15.95735931288071
10
21
20
-15.957359312880719
42
-0.19891236737965881
10
20.121320343559645
20
-18.078679656440361
10
18.078679656440364
20
-20.121320343559642
42
-0.19891236737965926
10
15.957359312880721
20
-21
10
-15.957359312880717
20
-21
42
-0.19891236737965926
10
-18.078679656440354
20
-20.121320343559645
10
-20.121320343559642
20
-18.078679656440361
42
-0.19891236737966031
10
-21
20
-15.957359312880717
10
-21
20
15.957359312880715
42
-0.19891236737965845
10
-20.121320343559645
20
18.078679656440354
10
-18.078679656440361
20
20.121320343559642
42
-0.19891236737965731
0
CIRCLE
5
101
100
AcDbEntity
8
0
100
AcDbCircle
10
-15.486000000000001
20
15.486000000000004
30
0
40
1.6000000000000005
210
0
220
0
230
1
0
CIRCLE
5
102
100
AcDbEntity
8
0
100
AcDbCircle
10
15.486000000000004
20
15.486000000000004
30
0
40
1.6000000000000001
210
0
220
0
230
1
0
CIRCLE
5
103
100
AcDbEntity
8
0
100
AcDbCircle
10
-15.486000000000001
20
-15.486000000000001
30
0
40
1.6000000000000014
210
0
220
0
230
1
0
CIRCLE
5
104
100
AcDbEntity
8
0
100
AcDbCircle
10
15.486000000000004
20
-15.486000000000001
30
0
40
1.600000000000001
210
0
220
0
230
1
0
LWPOLYLINE
5
105
100
AcDbEntity
8
0
100
AcDbPolyline
90
4
70
1
43
0.0
10
-21
20
5.0750000000000037
10
-13.5
20
5.0750000000000037
10
-13.5
20
-10.924999999999997
10
-21
20
-10.924999999999997
0
LWPOLYLINE
5
106
100
AcDbEntity
8
0
100
AcDbPolyline
90
4
70
1
43
0.0
10
-8.0000000000000036
20
20.999999999999996
10
7.9999999999999982
20
20.999999999999996
10
7.9999999999999982
20
13.499999999999996
10
-8.0000000000000036
20
13.499999999999996
0
LWPOLYLINE
5
107
100
AcDbEntity
8
0
100
AcDbPolyline
90
4
70
1
43
0.0
10
-6.4999999999999982
20
-17
10
-2.4999999999999978
20
-17
10
-2.4999999999999978
20
-20
10
-6.4999999999999982
20
-20
0
LWPOLYLINE
5
108
100
AcDbEntity
8
0
100
AcDbPolyline
90
4
70
1
43
0.0
10
2.5000000000000022
20
-17
10
6.5000000000000027
20
-17
10
6.5000000000000027
20
-20
10
2.5000000000000022
20
-20
0
LWPOLYLINE
5
109
100
AcDbEntity
8
0
100
AcDbPolyline
90
4
70
1
43
0.0
10
-21
20
10.925000000000002
10
-15.950000000000003
20
10.925000000000002
10
-15.950000000000003
20
6.5750000000000028
10
-21
20
6.5750000000000028
0
LWPOLYLINE
5
110
100
AcDbEntity
8
0
100
AcDbPolyline
90
4
70
1
43
0.0
10
13.500000000000005
20
-10.924999999999997
10
21
20
-10.924999999999997
10
21
20
5.075000000000002
10
13.5
20
5.075000000000002
0
LWPOLYLINE
5
111
100
AcDbEntity
8
0
100
AcDbPolyline
90
4
70
1
43
0.0
10
15.949999999999999
20
6.575000000000002
10
21
20
6.575000000000002
10
21
20
10.925000000000002
10
15.949999999999999
20
10.925000000000002
0
LWPOLYLINE
5
112
100
AcDbEntity
8
0
100
AcDbPolyline
90
4
70
1
43
0.0
10
9.9999999999999964
20
17.999999999999986
10
11.5
20
17.999999999999982
10
11.500000000000004
20
20.499999999999979
10
9.9999999999999982
20
20.499999999999986
0
ENDSEC
0
SECTION
2
OBJECTS
0
DICTIONARY
5
C
100
AcDbDictionary
3
ACAD_GROUP
350
D
3
ACAD_MLINESTYLE
350
17
0
DICTIONARY
5
D
100
AcDbDictionary
0
DICTIONARY
5
1A
330
C
100
AcDbDictionary
0
DICTIONARY
5
17
100
AcDbDictionary
0
ENDSEC
0
EOF
